<?xml version="1.0" encoding="UTF-8"?>
<svg id="Layer_2" data-name="Layer 2" xmlns="http://www.w3.org/2000/svg" viewBox="0 0 55.81 56.76">
  <defs>
    <style>
      .cls-1 {
        fill: #dd1a22;
      }
    </style>
  </defs>
  <g id="Layer_1-2" data-name="Layer 1">
    <path class="cls-1" d="M53.99,22.7C49.64,11.62,39.43,4.67,27.33.88,14.48-3.14,4.93,7.36,1.42,17.9-1.53,26.72.18,36.66,5.94,44.31c4.05,5.37,10.09,9.64,17.08,11.47,7,1.84,14.9,1.11,21.06-2.35,10.96-6.17,14.18-19.87,9.91-30.72ZM26.27,13.2c.08-.2.17-.39.25-.59.22-.36.51-.66.89-.88.2-.09.39-.17.58-.26.33-.1.66-.12.98-.04.32,0,.63.11.92.3.29.15.52.36.69.63.22.24.36.51.44.84.18.65.35,1.3.53,1.94.12.44.12.88,0,1.31-.09.2-.17.39-.25.59-.23.37-.52.66-.89.89-.2.08-.39.16-.59.25-.32.1-.65.12-.97.04-.33-.01-.64-.11-.92-.29-.3-.16-.52-.37-.7-.64-.22-.24-.36-.51-.43-.84-.18-.65-.35-1.29-.53-1.94-.12-.43-.12-.88,0-1.31ZM31.76,46.62c-2.31-.05-4.64-.1-6.96-.15h0c-.28,0-.55,0-.84-.02-.22,0-.43-.04-.65-.09-2.77-.57-2.07-4.89.65-4.83.23,0,.44,0,.67,0v.02s0,0,0-.02c.06-.05.21-.19.22-.19.34-.43.43-1.11.49-1.64.2-1.7.21-3.44.31-5.14.14-2.46.28-4.92.41-7.38-1.54.17-3.14-.06-4.57-.55-1.26-.43-2.09-1.67-1.72-3.03.34-1.22,1.77-2.15,3.03-1.71.19.06.38.12.57.17.22.06.43.1.64.15.09,0,.18.03.27.05h.02s.06,0,.09,0c.31.02.61.05.93.04.08,0,.62-.08.67-.06h0c.22-.07.64-.21.52-.14.36-.17.26-.13.47-.33,1.47-1.41,4.32-.46,4.2,1.74-.27,4.64-.52,9.28-.78,13.92-.08,1.39-.11,2.85-.42,4.22.59,0,1.18.03,1.77.04,3.17.07,3.17,4.99,0,4.92Z"/>
  </g>
</svg>