<?xml version="1.0" encoding="UTF-8"?>
<svg id="Layer_2" data-name="Layer 2" xmlns="http://www.w3.org/2000/svg" viewBox="0 0 45.98 54.84">
  <defs>
    <style>
      .cls-1 {
        fill: #dd1a22;
      }
    </style>
  </defs>
  <g id="Layer_1-2" data-name="Layer 1">
    <path class="cls-1" d="M28.03,22.27s-.01.01-.02.01h.03-.01ZM28.03,22.27s-.01.01-.02.01h.03-.01ZM45.69,17.35c-.11-1.79-.27-3.58-.45-5.37-.16-1.5.47-3.49-1.43-4.07-.69-.2-1.43-.13-2.14-.08-2.31.15-4.62.04-6.9-.32-.79-.12-1.88-.14-2.48-.72-.56-.56-.84-1.62-1.21-2.31C29.64,1.8,26.68.02,23.64,0c-3.04-.02-6.02,1.73-7.48,4.39-.43.77-.74,1.61-1.33,2.25-1.46,1.58-3.58.8-5.42.73-2.17-.08-4.58-.54-6.6.53-1.54.8-1.12,2.66-1.39,4.16-.48,2.67-1.01,5.35-1.26,8.05-.04.44-.07.88-.1,1.32-.14,2.58.02,5.18.06,7.75.09,5.03.19,10.05.25,15.07.03,2.43-.05,4.88-.05,7.32,0,.65,0,1.35.38,1.89.49.72,1.44.93,2.3,1.05,3.27.46,6.52.4,9.79.03,3.21-.37,6.6-.23,9.85-.35,6.89-.25,13.78-.5,20.67-.75.95-4.8,1.66-9.65,2.1-14.52.65-7.17.75-14.39.28-21.57ZM38.55,38.11c-5.78-.96-11.58-1.24-17.43-1.1-1.38.04-2.8.24-4.18.09-1.36-.14-2.42-.73-3.53-1.48-1.65-1.12-3.59-1.15-5.02.37-1.66,1.76-4.3-.9-2.65-2.66,1.78-1.89,4.51-2.7,7.05-2.11,1.34.31,2.3,1.14,3.46,1.79,1.17.66,2.63.33,3.92.28,6.5-.25,12.96.14,19.38,1.21,2.37.39,1.36,4.01-1,3.61ZM37.88,24c-.06.05-.12.11-.18.17-.38.34-.78.65-1.24.87-.88.41-1.79.41-2.69.07-.5-.19-1.37-1.01-1.85-.97-.46.04-1.12.8-1.5,1.05-1.51,1.02-3.37,1.17-4.81-.08-1.01-.87-1.41-2.72-2.99-2.08-1.85.74-3.2,2.25-5.32,2.3-1.82.05-3.65-1.02-4.28-2.8-.15-.45-.05-.37-.26-.28-.33.13-.61.37-.89.57-.89.63-1.79,1.25-2.92,1.32-1.82.12-3.79-1.34-3.58-3.31.12-1.01.77-1.87,1.88-1.87.74,0,1.56.55,1.8,1.27.18-.29.94-.68,1.24-.87.79-.52,1.74-.92,2.7-.92.94,0,1.84.41,2.49,1.08.43.44.8,1.73,1.31,2.01,1.11.6,3.21-1.42,4.15-1.85,1.87-.84,4.09-.83,5.61.69.48.49.93,1.11,1.3,1.69.08.13.14.19.18.21.23-.04.57-.37.74-.49,1.29-.92,2.61-1.74,4.27-1.27.47.13.91.39,1.33.65.19.12.75.33.59.45.2-.12.46-.47.59-.58.37-.35.77-.67,1.22-.89,1.89-.95,4.3.26,4.26,2.48-.02,1.79-2.1,2.25-3.15,1.38ZM28.04,22.28h-.03.03ZM28.03,22.27s-.01.01-.02.01h.03-.01ZM28.03,22.27s-.01.01-.02.01h.03-.01Z"/>
  </g>
</svg>