<?xml version="1.0" encoding="UTF-8"?>
<svg id="Layer_2" data-name="Layer 2" xmlns="http://www.w3.org/2000/svg" viewBox="0 0 51.47 43.1">
  <defs>
    <style>
      .cls-1 {
        fill: #dd1a22;
      }
    </style>
  </defs>
  <g id="Layer_1-2" data-name="Layer 1">
    <g>
      <path class="cls-1" d="M4.31,12.06c1.93,2.6,4.87,4.22,7.72,5.76,3.42,1.85,6.84,3.69,10.27,5.54,1.86,1.01,3.89,2.04,5.99,1.76,2.83-.38,4.74-2.96,6.9-4.83,3.26-2.82,7.54-4.19,11.01-6.76s6.13-7.29,4.16-11.12c-.95-1.85-13.6-1.93-15.77-2.08-5.43-.38-10.89-.41-16.33-.11C11.67.58-3.72,1.22,4.31,12.06Z"/>
      <path class="cls-1" d="M16.71,25.12c3.87,2.32,8.2,4.73,12.63,3.89,3.18-.6,5.8-2.79,8.25-4.9,1.97-1.69,3.88-3.55,5.95-5.12,1.79-1.36,3.75-2.59,5.57-3.96.33-.25.7-.51,1.11-.5.42.01.78.31.99.67.45.78.19,1.65.18,2.5-.02,1.15-.02,2.3-.03,3.46-.02,2.3-.04,4.61-.07,6.91-.02,2.22-.02,4.43-.04,6.65-.01,1.89.46,4.34-.63,6.03-.68,1.05-1.63,1.04-2.76,1.04-2.21-.01-4.43.13-6.64.19-6.76.19-13.52.38-20.28.58-3.38.1-6.76.19-10.14.29-1.61.05-3.32-.06-4.91.17-1.2.17-2.25.14-3.13-.9-.73-.85-.61-2.38-.81-3.45-.55-2.91-1.23-5.8-1.65-8.73-.7-4.93,0-9.72.21-14.66.01-.25.06-.55.29-.63.19-.07.39.06.55.18,1.56,1.15,3.1,2.32,4.68,3.44,1.16.83,2.57,1.29,3.8,2.07,2.36,1.49,4.48,3.35,6.87,4.78Z"/>
    </g>
  </g>
</svg>