<?xml version="1.0" encoding="UTF-8"?>
<svg id="Layer_2" data-name="Layer 2" xmlns="http://www.w3.org/2000/svg" viewBox="0 0 58.31 31.41">
  <defs>
    <style>
      .cls-1 {
        fill: #c9bba1;
      }
    </style>
  </defs>
  <g id="Layer_1-2" data-name="Layer 1">
    <g>
      <g>
        <path class="cls-1" d="M57.95,16.35c-.1.13-.21.26-.32.38-3.16,3.54-6.97,6.61-11,9.13-.96.59-1.8,1.32-2.82,1.83-1.21.61-2.52,1.02-3.76,1.57-2.27,1-4.76,1.58-7.22,1.91-4.34.59-9.37.1-13.48-1.41-3.58-1.32-6.9-3.27-10.01-5.47-2.11-1.49-3.95-3.28-5.92-4.96-.97-.83-2.47-1.72-3.17-2.81-.49-.76-.26-1.47.51-1.72.92-.3,1.3.28,1.89.86,7.96,7.84,18.25,14.85,30.03,13.3,8.57-1.12,16.94-7.04,22.89-13.03.48-.49,1.86-2.14,2.61-.97.18.28.16.66.02.96-.07.15-.16.29-.26.43Z"/>
        <path class="cls-1" d="M28.89,0c8.74-.11,17.75,4.66,24.2,10.25.51.44,2.16,1.78,2.2,2.36.06.9-.84,1.41-1.65,1.09-5.4-4.88-11.95-9.41-19.2-10.92C24.44.71,15.5,4.96,7.85,11.02c-.68.54-2.84,2.71-3.47,2.75-.39.03-.9-.21-1.06-.58-.38-.87.17-1.29.72-1.83C10.12,5.41,20.27.11,28.89,0Z"/>
      </g>
      <circle class="cls-1" cx="29.16" cy="15.71" r="9.43"/>
    </g>
  </g>
</svg>