<?xml version="1.0" encoding="UTF-8"?>
<svg id="Layer_2" data-name="Layer 2" xmlns="http://www.w3.org/2000/svg" viewBox="0 0 55.16 56.76">
  <defs>
    <style>
      .cls-1 {
        fill: #dd1a22;
      }
    </style>
  </defs>
  <g id="Layer_1-2" data-name="Layer 1">
    <g>
      <path class="cls-1" d="M15.59,19.34c-1.32,2.06-1.76,4.6-1.54,7.03.43,4.73,3.43,9.2,7.75,11.17s9.8,1.25,13.31-1.94c3.52-3.19,4.74-8.73,2.7-13.02-1.44-3.02-4.27-5.25-7.42-6.38-5.06-1.83-11.58-1.9-14.81,3.15Z"/>
      <path class="cls-1" d="M37.94,14.79c2.66-1.75,5.14-3.78,7.35-6.06.86-.89.95-2.47,0-3.34s-2.42-.95-3.34,0c-1.36,1.4-2.81,2.7-4.35,3.89l.48-.37c-.82.63-1.66,1.23-2.53,1.8-.51.34-.92.81-1.08,1.41-.16.56-.09,1.32.24,1.82.66,1.03,2.13,1.57,3.23.85h0Z"/>
      <path class="cls-1" d="M43.04,24.77c3.19-.42,6.38-.84,9.57-1.26.65-.09,1.18-.21,1.67-.69.41-.41.72-1.08.69-1.67s-.23-1.24-.69-1.67c-.43-.39-1.07-.77-1.67-.69-3.19.42-6.38.84-9.57,1.26-.65.09-1.18.21-1.67.69-.41.41-.72,1.08-.69,1.67s.23,1.24.69,1.67c.43.39,1.07.77,1.67.69h0Z"/>
      <path class="cls-1" d="M36.35,42.61c1.45,1.33,2.9,2.67,4.34,4,.46.42,1.04.69,1.67.69.58,0,1.27-.26,1.67-.69s.72-1.04.69-1.67-.23-1.24-.69-1.67c-1.45-1.33-2.9-2.67-4.34-4-.46-.42-1.04-.69-1.67-.69-.58,0-1.27.26-1.67.69s-.72,1.04-.69,1.67.23,1.24.69,1.67h0Z"/>
      <path class="cls-1" d="M25.61,3.09c-.22,1.96-.44,3.91-.66,5.87-.06.56.31,1.29.69,1.67.41.41,1.08.72,1.67.69s1.24-.23,1.67-.69l.37-.48c.21-.37.32-.77.32-1.19.22-1.96.44-3.91.66-5.87.06-.56-.31-1.29-.69-1.67-.41-.41-1.08-.72-1.67-.69s-1.24.23-1.67.69l-.37.48c-.21.37-.32.77-.32,1.19h0Z"/>
      <path class="cls-1" d="M45.32,34.88l7.47.86c.56.06,1.29-.31,1.67-.69.41-.41.72-1.08.69-1.67s-.23-1.24-.69-1.67c-.49-.45-1.01-.62-1.67-.69l-7.47-.86c-.56-.06-1.29.31-1.67.69-.41.41-.72,1.08-.69,1.67s.23,1.24.69,1.67c.49.45,1.01.62,1.67.69h0Z"/>
      <path class="cls-1" d="M24.16,44.74c-.08,3.22-.15,6.44-.23,9.65-.03,1.23,1.11,2.42,2.36,2.36s2.33-1.04,2.36-2.36c.08-3.22.15-6.44.23-9.65.03-1.23-1.11-2.42-2.36-2.36s-2.33,1.04-2.36,2.36h0Z"/>
      <path class="cls-1" d="M8.56,17.37c-1.86-.64-3.72-1.28-5.58-1.92-.56-.19-1.32-.05-1.82.24s-.96.85-1.08,1.41c-.14.6-.11,1.28.24,1.82s.8.88,1.41,1.08c1.86.64,3.72,1.28,5.58,1.92.56.19,1.32.05,1.82-.24s.96-.85,1.08-1.41c.14-.6.11-1.28-.24-1.82s-.8-.88-1.41-1.08h0Z"/>
      <path class="cls-1" d="M18.44,9.56c-1.6-2.8-3.19-5.59-4.79-8.39-.61-1.07-2.17-1.53-3.23-.85-1.08.7-1.5,2.08-.85,3.23,1.6,2.8,3.19,5.59,4.79,8.39.61,1.07,2.17,1.53,3.23.85s1.5-2.08.85-3.23h0Z"/>
      <path class="cls-1" d="M7.8,31c-1.77.85-3.55,1.7-5.32,2.55-.51.24-.94.88-1.08,1.41-.16.56-.09,1.32.24,1.82s.81.95,1.41,1.08c.65.15,1.22.05,1.82-.24,1.77-.85,3.55-1.7,5.32-2.55.51-.24.94-.88,1.08-1.41.16-.56.09-1.32-.24-1.82s-.81-.95-1.41-1.08c-.65-.15-1.22-.05-1.82.24h0Z"/>
      <path class="cls-1" d="M12.07,41.75c-1.19,2.21-2.38,4.42-3.57,6.62-.59,1.09-.31,2.62.85,3.23s2.6.31,3.23-.85c1.19-2.21,2.38-4.42,3.57-6.62.59-1.09.31-2.62-.85-3.23s-2.6-.31-3.23.85h0Z"/>
    </g>
  </g>
</svg>