<?xml version="1.0" encoding="UTF-8"?>
<svg id="Layer_2" data-name="Layer 2" xmlns="http://www.w3.org/2000/svg" viewBox="0 0 51.72 56.76">
  <defs>
    <style>
      .cls-1 {
        fill: #dd1a22;
      }
    </style>
  </defs>
  <g id="Layer_1-2" data-name="Layer 1">
    <path class="cls-1" d="M32.42,56.75c-4.94-.18-9.66-1.6-13.7-4.91-1.23-1-2.45-2.01-3.64-3.07-3.65-3.24-6.67-6.97-9.06-11.26-2.01-3.61-3.46-7.41-4.54-11.36-.57-2.09-1.03-4.22-1.34-6.37-.33-2.25-.1-4.45.79-6.63C2.85,8.44,5.95,4.74,10.13,1.88c.62-.42,1.19-.91,1.8-1.36.89-.66,1.32-.72,2.26-.04,2.79,2.01,4.9,4.53,5.78,7.93.33,1.29.59,2.6.86,3.91.19.9-.08,1.61-.85,2.19-.93.71-1.81,1.48-2.67,2.28-.73.68-1.42,1.41-2.09,2.15-1.48,1.63-2.04,3.62-2.08,5.76-.05,2.49.59,4.79,1.96,6.89,1.14,1.75,2.15,3.59,3.43,5.23,1.01,1.3,2.27,2.45,3.55,3.5,1.28,1.06,2.71,1.95,4.11,2.86.55.36,1.19.62,1.82.83,2.35.76,4.45.31,6.25-1.4,1.24-1.18,2.06-2.62,2.64-4.2.14-.39.31-.79.38-1.19.23-1.45,1.09-2.15,2.96-1.98,2.2.19,4.28,1,6.02,2.3,2.3,1.72,4.08,3.93,5.08,6.7.41,1.14.57,2.26.09,3.42-.06.15-.13.31-.16.47-.87,4.68-4.55,6.21-8.42,7.54-3.24.37-6.47.75-9.71,1.12-.16.02-.33,0-.71,0Z"/>
  </g>
</svg>