<?xml version="1.0" encoding="UTF-8"?>
<svg id="Layer_2" data-name="Layer 2" xmlns="http://www.w3.org/2000/svg" viewBox="0 0 55.6 56.5">
  <defs>
    <style>
      .cls-1 {
        fill: #dd1a22;
      }
    </style>
  </defs>
  <g id="Layer_1-2" data-name="Layer 1">
    <path class="cls-1" d="M50.43,9.28C42.96-.85,28.97-2.38,18.73,3.18,8.26,8.85,2.6,19.83.32,32.31c-2.42,13.25,9.17,21.45,20.06,23.65,9.11,1.84,18.77-1.07,25.66-7.72,4.84-4.67,8.33-11.19,9.29-18.35.98-7.17-.71-14.93-4.9-20.61ZM27.89,48.75c-3.22,0-3.22-5,0-5s3.21,5,0,5ZM35.01,26.48l-4.83,12.18c-.5,1.26-1.65,2.14-3.07,1.75-1.2-.33-2.25-1.82-1.75-3.08,1.28-3.22,2.55-6.44,3.83-9.66.64-1.61,1.33-3.2,1.88-4.84.37-1.09.84-2.43.44-3.58-.65-1.89-3.16-1.82-4.67-.98-2.38,1.34-3.64,4-4.64,6.41-.53,1.25-1.64,2.14-3.08,1.75-1.18-.33-2.27-1.83-1.75-3.08,1.53-3.65,3.35-7.37,6.95-9.4,3.28-1.85,7.66-1.71,10.37,1.12,3.13,3.28,1.78,7.72.32,11.41Z"/>
  </g>
</svg>