<?xml version="1.0" encoding="UTF-8"?>
<svg id="Layer_2" data-name="Layer 2" xmlns="http://www.w3.org/2000/svg" viewBox="0 0 311.37 63.98">
  <defs>
    <style>
      .cls-1, .cls-2 {
        fill: #f9f7f2;
      }

      .cls-2 {
        font-family: HelveticaNeueLTPro-Md, 'Helvetica Neue LT Pro';
        font-size: 47px;
        font-weight: 500;
      }
    </style>
  </defs>
  <g id="Layer_1-2" data-name="Layer 1">
    <g>
        <path class="cls-1" d="M7.13,0l50.9,10.37c.38.39.06,2.21-.25,2.62s-1.27.38-1.81.57c-1.99.68-2.77,3.23-1.61,4.97.49.74,1.8,1.25,1.92,1.83.07.33-.13,1.42-.25,1.75-.32.84-1.18.64-1.88.87-2.47.79-2.98,4.16-.99,5.75.42.34,1.06.43,1.23,1.03.09.33-.14,1.58-.29,1.92-.3.71-1.31.57-1.95.79-2.26.8-2.83,3.86-1.12,5.51.84.81,1.55.41,1.44,1.93-.04.61-.26,1.67-.96,1.79L.83,31.59c-.48-.08-.57-.4-.82-.74.01-.16-.02-.34,0-.5.03-.26.34-1.39.5-1.57.4-.44,1.3-.41,1.88-.62,2.34-.88,2.72-4.15.81-5.68-.49-.4-1.28-.49-1.29-1.31,0-.34.32-1.69.55-1.93.29-.31,1.17-.31,1.65-.47,2.34-.76,2.99-3.83,1.22-5.54-.71-.69-1.46-.46-1.45-1.68.03-2.8,1.58-1.54,3.12-2.76s1.66-3.67.2-5.05c-.37-.35-1.34-.68-1.43-1.19-.11-.56.21-2.21.75-2.56h.62ZM15.84,7.77c-.64.13-1.12.77-1.23,1.39l-3.47,17.28c.03,1.95,2.55,2.44,3.18.55l3.55-17.45c0-1.15-.82-2.01-2.02-1.76ZM45.2,13.65c-.66.11-1.15.56-1.28,1.22l-3.5,17.49c.04,1.95,2.51,2.4,3.16.53l3.52-17.35c.11-1.17-.69-2.08-1.89-1.89Z"/>
        <path class="cls-1" d="M59.06,46.19c-.48.5-1.13.15-1.65.16-2.75.03-4.18,3.17-2.55,5.42.34.47,1.01.8.92,1.46-.02.16-.49,1.25-.59,1.41-.57.92-1.15.44-1.9.46-2.48.07-4.04,2.95-2.73,5.08.37.6,1.2.95,1.16,1.72-.03.56-.76,2.28-1.56,2.06L3.07,42.23c-.89-.38.12-2.4.57-2.68.58-.35.87-.06,1.43-.06,1.85-.01,3.18-1.55,3.32-3.32.02-.29-.26-.76.05-.69l42.01,8.46c3.57.88,5.6-4.19,3.58-6.58-.65-.77-2.03-.89-1.65-2.17.22-.75,1.49-.69,2.09-.9,1.16-.41,1.78-1.53,2-2.68l7.3,3.37c.48.39-.43,2.25-.74,2.5-.55.45-.99.1-1.5.11-2.83.05-4.32,3.23-2.59,5.48.26.34.84.62.91,1.1.04.31-.58,1.81-.78,2.02Z"/>
    </g>
  </g>
</svg>