<?xml version="1.0" encoding="UTF-8"?>
<svg id="Layer_2" data-name="Layer 2" xmlns="http://www.w3.org/2000/svg" viewBox="0 0 55.44 55.44">
  <defs>
    <style>
      .cls-1 {
        fill: #752223;
      }
    </style>
  </defs>
  <g id="Layer_1-2" data-name="Layer 1">
    <g>
      <path class="cls-1" d="M37.33,18.08l-.2-.83c-.03-.32-.19-.64-.36-.91l-.25-.33c-.52-.75-1.27-1.43-1.96-2.03l-.56-.41c-.49-.54-1.77-1.09-2.41-1.37l-.98-.34-1.56-.32-2.32-.15c-2.22.28-6.69,2.16-8.18,4.02-1.56,1.94-1.67,4.24-1.05,6.53l.17.48c.45.9.85,1.81,1.42,2.64,1.93,2.81,5.85,4.62,9.26,4.29.03-.03,1.38-.34,1.56-.4,1.03-.36,2.01-.88,2.96-1.42.01-.04.07-.06.11-.09,1.44-.95,2.69-1.85,3.58-3.34l.5-1.22c.33-1.19.45-2.25.45-3.48l-.03-.3-.17-1.02Z"/>
      <path class="cls-1" d="M27.72,0C12.43,0,0,12.43,0,27.72c0,8.04,3.44,15.29,8.93,20.36,1.14,1.06,2.38,2.02,3.68,2.87,1.54,1,3.18,1.86,4.91,2.55h0c1.64.65,3.36,1.15,5.14,1.48,1.07.2,2.17.34,3.28.41.59.04,1.18.06,1.78.06,2.62,0,5.15-.36,7.55-1.05,2.93-.83,5.66-2.13,8.11-3.82.3-.21.6-.42.9-.64.56-.42,1.09-.85,1.62-1.31,5.84-5.09,9.54-12.57,9.54-20.91C55.44,12.43,43.01,0,27.72,0ZM45.46,45.28c-.2-.69-.48-1.46-.89-2.42-.53-1.27-1.1-2.5-1.78-3.69l-.24-.38c-.49-.81-.95-1.74-1.57-2.46-1.06-1.24-4.26-3.35-5.63-4.04l-.88-.32c-1.39-.5-5.25-1.94-6.61-1.7-.34.06-.69.24-1.02.37l-1.65.64c-1.17.4-2.42.68-3.55,1.21-2.94,1.38-5.02,3.54-7.13,5.95-2.01,2.3-3.73,4.19-4.76,6.62-4.34-4.49-7.02-10.61-7.02-17.33C2.75,13.95,13.95,2.75,27.72,2.75s24.97,11.2,24.97,24.97c0,6.84-2.76,13.05-7.24,17.56Z"/>
    </g>
  </g>
</svg>