<?xml version="1.0" encoding="UTF-8"?>
<svg id="Layer_2" data-name="Layer 2" xmlns="http://www.w3.org/2000/svg" viewBox="0 0 76.9 65.55">
  <defs>
    <style>
      .cls-1 {
        fill: #cabca1;
      }
    </style>
  </defs>
  <g id="Layer_1-2" data-name="Layer 1">
    <g>
      <path class="cls-1" d="M51.05,0c-27.43.22-29.49,12-29.49,12,0,0-.99,6.56-.93,15.29.03,4.16.31,8.81,1.04,13.47,1.14,7.24,3.4,14.52,7.61,20.06,0,0,7.41,7,25.75,3.97,18.34-3.03,18.93-13.09,20.11-24.18,1.19-11.09,1.73-30.77,1.73-30.77,0,0,1.6-10.06-25.83-9.84ZM69.14,54.41c-3.72,6.13-7.81,9.91-25.31,9.12-17.5-.79-18.53-25.73-18.53-25.73,0,0,1.06-3.76-.63-6.06,0,0-1.12-7.98-.47-10.25,0,0,17.79,16.65,48.61-4.24,0,0,.04,31.02-3.68,37.15Z"/>
      <path class="cls-1" d="M20.63,27.29c-.96-.76-3.52-1.68-9.86.9C1.78,31.85,0,42.51,0,42.51l21.67-1.75-.52-12.86s-.12-.29-.52-.61ZM21.08,38.21l-16.6,1.4c-.24-1.17,3.59-9.25,10.19-10.7,6.6-1.45,6.41,9.29,6.41,9.29Z"/>
    </g>
  </g>
</svg>