<?xml version="1.0" encoding="UTF-8"?>
<svg id="Layer_1" xmlns="http://www.w3.org/2000/svg" version="1.1" viewBox="0 0 512 512">
  <!-- Generator: Adobe Illustrator 29.8.1, SVG Export Plug-In . SVG Version: 2.1.1 Build 2)  -->
  <defs>
    <style>
      .st0 {
        fill: #753214;
      }
    </style>
  </defs>
  <path class="st0" d="M497.63,219.76L293.28,15.42c-20.56-20.56-54-20.56-74.56,0L14.37,219.76c-20.56,20.56-20.56,54.01,0,74.56l204.35,204.35c10.28,10.28,23.78,15.42,37.28,15.42s27-5.14,37.28-15.42l204.35-204.35c20.56-20.56,20.56-54.01,0-74.56ZM242.29,38.99c3.66-3.66,8.53-5.68,13.71-5.68s10.05,2.02,13.71,5.68l90.39,90.39-38.05,38.05c-18.48-13.64-41.32-21.71-66.04-21.71s-47.57,8.07-66.04,21.71l-38.05-38.05,90.39-90.39ZM333.98,257.05c0,43-34.98,77.98-77.98,77.98s-77.98-34.98-77.98-77.98,34.98-77.98,77.98-77.98,77.98,34.98,77.98,77.98ZM32.27,257.05c0-5.18,2.02-10.05,5.68-13.71l90.39-90.39,38.05,38.05c-13.64,18.48-21.71,41.32-21.71,66.04s8.07,47.57,21.71,66.04l-38.05,38.05-90.39-90.39c-3.66-3.66-5.68-8.53-5.68-13.71ZM269.71,475.1c-3.66,3.66-8.53,5.68-13.71,5.68s-10.05-2.02-13.71-5.68l-90.39-90.39,38.05-38.05c18.48,13.64,41.32,21.71,66.04,21.71s47.57-8.07,66.04-21.71l38.05,38.05-90.39,90.39ZM474.06,270.75l-90.39,90.39-38.05-38.05c13.64-18.48,21.71-41.32,21.71-66.04s-8.07-47.57-21.71-66.04l38.05-38.05,90.39,90.39c3.66,3.66,5.68,8.53,5.68,13.71s-2.02,10.05-5.68,13.71Z"/>
  <g>
    <path class="st0" d="M222.09,308.73c-1.65-4.05-3.15-7.3-4.3-10.67-.67-1.98-1.73-2.44-3.66-2.25-2.82.28-5.66.31-8.77.46.28-.69.4-1.18.65-1.59,7.3-12.17,14.64-24.32,21.89-36.52,1.15-1.94,2.56-2.96,4.81-3.53,4.06-1.03,8.04-2.45,11.94-4,1.69-.67,3-.81,4.62.07,1.5.81,3.21,1.22,5.34,1.99-10.78,18.57-21.51,37.06-32.52,56.04Z"/>
    <path class="st0" d="M259.19,253.02c.58-.55.64-.62.72-.67,4.39-2.86,8.72-2.52,13.2-.03,1.72.96,3.76,1.61,5.72,1.84,3.57.41,5.51,2.43,7.25,5.39,6.86,11.68,13.94,23.23,20.94,34.83.28.46.52.94,1.09,1.97-3.44-.2-6.47-.29-9.48-.59-1.61-.16-2.51.22-3.1,1.83-1.28,3.52-2.75,6.97-4.44,11.18-10.81-18.89-21.35-37.3-31.9-55.74Z"/>
    <path class="st0" d="M246.18,223.15c-4.58,4.45-5.89,9.6-5.25,15.19-5.88-1.17-11.56-2.53-17.3-3.38-3.96-.59-8.03-.69-12.04-.64-4.9.06-9.62,1.06-13.53,4.49-.26-.1-.52-.2-.78-.29.28-4.03.43-8.08.88-12.09.35-3.08,1.16-6.11,1.62-9.18.42-2.82,2.09-4.38,4.69-5.11,7.45-2.09,14.89-1.69,22.2.57,7.03,2.18,13.43,5.66,19.51,10.45Z"/>
    <path class="st0" d="M272.37,238.54c.36-5.64-.95-10.56-4.72-14.73.21-.35.32-.72.57-.93,10.9-9.18,23.2-13.79,37.58-11.38,1.68.28,3.4.86,4.88,1.71,1.01.57,2.14,1.76,2.31,2.82,1.03,6.49,1.83,13.02,2.64,19.54.12.94-.18,1.93-.31,3.16-6.15-4.8-13.06-5.03-19.89-4.29-6.98.75-13.86,2.36-20.79,3.61-.7.12-1.38.31-2.28.51Z"/>
    <path class="st0" d="M258.52,276.03c0,3.9.54,7.9-.14,11.68-.78,4.33.79,7.56,2.93,10.92,2.31,3.63,4.51,7.33,6.52,11.13.44.84-.1,2.2-.19,3.32-1.03-.47-2.43-.65-3.02-1.45-1.93-2.61-3.57-5.44-6.02-8.06,0,4.07,0,8.15,0,12.22,0,.82.22,1.75-.08,2.45-.36.85-1.17,1.5-1.78,2.24-.66-.73-1.83-1.43-1.88-2.19-.24-3.93-.18-7.87-.22-11.8,0-.82,0-1.64,0-3.3-1.78,2.61-3.16,4.63-4.54,6.66-.52.76-.91,1.67-1.59,2.22-.69.54-1.67.71-2.53,1.04-.2-.96-.85-2.14-.52-2.85,1.16-2.48,2.49-4.92,4.08-7.14,4.13-5.79,6.93-11.79,5.26-19.24-.57-2.51-.09-5.25-.61-8.09-1.49,2.32-2.99,4.64-4.46,6.97-.81,1.28-1.64,2.73-3.41,1.7-1.72-1-.76-2.35-.04-3.54,3.39-5.63,6.8-11.25,10.46-17.3,3.78,6.35,7.41,12.36,10.88,18.46.31.55-.41,1.69-.66,2.56-.86-.28-2.09-.3-2.53-.9-1.83-2.49-3.42-5.16-5.1-7.77l-.8.08Z"/>
    <path class="st0" d="M256.59,247.36c-6.46.02-11.22-4.95-11.17-11.66.04-6.3,4.88-11.32,10.97-11.39,6.05-.07,11.11,5.14,11.19,11.51.08,6.53-4.67,11.52-10.98,11.54Z"/>
    <path class="st0" d="M243.75,245.86c-4.37,1.43-8.17,2.92-12.1,3.92-8.43,2.13-16.98,2.81-25.54.74-1.82-.44-3.71-1.18-5.21-2.26-2.4-1.73-2.42-4.26.01-5.92,1.76-1.2,3.9-2.18,5.98-2.48,12.26-1.78,24.04.39,35.45,4.94.3.12.53.39,1.41,1.06Z"/>
    <path class="st0" d="M269.29,245c3.93-1.22,7.16-2.4,10.48-3.22,7.93-1.97,15.97-3.28,24.18-2.26,2.24.28,4.57.81,6.54,1.83,1.33.69,2.97,2.47,2.93,3.71-.05,1.44-1.51,3.41-2.88,4.07-2.41,1.17-5.18,1.83-7.86,2.16-10.59,1.29-20.76-.64-30.57-4.64-.74-.3-1.39-.81-2.8-1.65Z"/>
    <path class="st0" d="M307.19,262.99c2.86,1.55,5.07,2.74,7.27,3.94,1.32.72,2.82,1.5,1.81,3.32-.92,1.67-2.35.91-3.59.28-6.41-3.27-12.81-6.55-19.07-10.47,5-.56,10.01-1.11,15.01-1.69,2.63-.3,5.25-.84,7.88-.9.97-.02,1.97.99,2.96,1.53-.74.73-1.38,1.91-2.25,2.12-3.05.76-6.17,1.18-10.02,1.87Z"/>
    <path class="st0" d="M206.14,263.02c-3.7-.71-6.92-1.21-10.05-2.02-.85-.22-1.45-1.42-2.17-2.17.91-.53,1.88-1.61,2.72-1.52,7.59.84,15.16,1.88,23.39,2.95-1.36.84-2.22,1.45-3.14,1.93-5.35,2.79-10.67,5.63-16.11,8.24-.95.46-2.99.33-3.5-.33-1.18-1.52.39-2.36,1.61-3.04,2.27-1.27,4.55-2.54,7.24-4.04Z"/>
    <path class="st0" d="M262.74,220.55c-1.53-.51-2.55-.86-3.91-1.31,1.43-5.32,2.78-10.57,4.34-15.76.17-.57,1.71-1.26,2.29-1.04.63.24,1.39,1.59,1.23,2.26-1.18,5.22-2.57,10.39-3.96,15.86Z"/>
    <path class="st0" d="M254.34,219.2c-1.31.37-2.34.65-3.85,1.07-1.38-5.39-2.8-10.65-3.99-15.95-.13-.58.88-1.76,1.61-2.05.47-.19,1.85.61,2.02,1.19,1.49,5.16,2.81,10.38,4.22,15.74Z"/>
  </g>
</svg>