<?xml version="1.0" encoding="UTF-8"?>
<svg id="Layer_2" xmlns="http://www.w3.org/2000/svg" version="1.1" viewBox="0 0 45.98 54.84">
  <!-- Generator: Adobe Illustrator 29.8.1, SVG Export Plug-In . SVG Version: 2.1.1 Build 2)  -->
  <defs>
    <style>
      .st0 {
        fill: #753214;
      }
    </style>
  </defs>
  <path class="st0" d="M44.38,0H1.62C.96,0,.42.54.42,1.2v52.43c0,.66.54,1.2,1.2,1.2h42.76c.66,0,1.2-.54,1.2-1.2V1.2c0-.66-.54-1.2-1.2-1.2ZM2.82,52.43v-2.95c1.42.41,2.54,1.53,2.95,2.95h-2.95ZM2.82,5.36v-2.95h2.95c-.41,1.42-1.53,2.54-2.95,2.95ZM35.73,33.08H10.8c-2.04,0-3.69-.7-3.69-1.56s1.65-1.56,3.69-1.56h24.93c2.04,0,3.69.7,3.69,1.56s-1.65,1.56-3.69,1.56ZM35.73,26.36H10.8c-2.04,0-3.69-.7-3.69-1.56s1.65-1.56,3.69-1.56h24.93c2.04,0,3.69.7,3.69,1.56s-1.65,1.56-3.69,1.56ZM35.73,19.28H10.8c-2.04,0-3.69-.7-3.69-1.56s1.65-1.56,3.69-1.56h24.93c2.04,0,3.69.7,3.69,1.56s-1.65,1.56-3.69,1.56ZM43.18,52.43h-3.03c.34-1.55,1.52-2.79,3.03-3.23v3.23ZM43.18,5.36c-1.42-.41-2.55-1.53-2.96-2.95h2.96v2.95Z"/>
</svg>