<?xml version="1.0" encoding="UTF-8"?>
<svg id="Layer_2" xmlns="http://www.w3.org/2000/svg" version="1.1" viewBox="0 0 36.25 39.07">
  <!-- Generator: Adobe Illustrator 29.8.1, SVG Export Plug-In . SVG Version: 2.1.1 Build 2)  -->
  <defs>
    <style>
      .st0 {
        fill: #753214;
      }
    </style>
  </defs>
  <path class="st0" d="M35.64,26.57c-5.5,1.31-12.77-.16-16.43-5.2-1.59-2.19-1.76-6.18-.83-8.68.98-2.63,3-4.67,5.28-6.24,2.78-1.91,5.94-3.21,9.17-4.13.02,0,.04-.01.06-.02,0,0,0,0,0,0s0,0,0,0c.06-.02.11-.04.16-.08.03-.02.06-.05.08-.08,0,0,.01-.01.02-.02.07-.09.09-.2.09-.31,0-.03,0-.07-.01-.1,0-.01,0-.03,0-.04-.01-.05-.03-.1-.06-.14,0-.01-.02-.02-.02-.03-.02-.03-.05-.06-.08-.08-.04-.03-.09-.06-.14-.07,0,0-.01,0-.02-.01,0,0-.02,0-.03,0,0,0-.02,0-.03,0-6.49-1.94-13.73-1.81-20,.87C7.45,4.48,2.69,8.82.8,14.46c-1.91,5.69-.34,14.66,3.81,18.96,4.17,4.32,10.64,6.27,16.54,5.47,6.64-.9,12.34-5.54,15.06-11.59.18-.39-.11-.85-.57-.74Z"/>
</svg>