<?xml version="1.0" encoding="UTF-8"?>
<svg id="Layer_2" xmlns="http://www.w3.org/2000/svg" version="1.1" viewBox="0 0 51.47 43.1">
  <!-- Generator: Adobe Illustrator 29.8.1, SVG Export Plug-In . SVG Version: 2.1.1 Build 2)  -->
  <defs>
    <style>
      .st0 {
        fill: #753214;
        fill-rule: evenodd;
      }
    </style>
  </defs>
  <path id="Message" class="st0" d="M51.36,4.76c0-2.63-2.13-4.76-4.76-4.76H4.76C2.13,0,0,2.13,0,4.76v32.03s0,.01,0,.02v1.52c0,2.63,2.13,4.76,4.76,4.76h41.83c2.63,0,4.76-2.13,4.76-4.76V4.76ZM24.34,25.75l-14.45-13.75c-1.11-1.05-.31-2.83,1.28-2.83h29c1.59,0,2.39,1.78,1.28,2.83l-14.55,13.75c-.7.66-1.85.66-2.56,0Z"/>
</svg>