<?xml version="1.0" encoding="UTF-8"?>
<svg id="Layer_2" xmlns="http://www.w3.org/2000/svg" version="1.1" viewBox="0 0 58.31 31.41">
  <!-- Generator: Adobe Illustrator 29.8.1, SVG Export Plug-In . SVG Version: 2.1.1 Build 2)  -->
  <defs>
    <style>
      .st0 {
        fill: #753214;
      }
    </style>
  </defs>
  <path class="st0" d="M56.32,7.28c4.56,10.51,1.43,20.89-10.86,22.61-10.02,1.62-26.58,2.36-36.52-.11C-1.92,27.33-1.24,17.87,2.41,9.46,5.8,3.05,17.07,2.1,23.56,1.13c9.53-.4,27.5-4.46,32.76,6.15ZM20.53,10.47c.32-.98.67-1.8,1.16-2.74-2.85.34-10.66.3-11.56,3.67-.6,3.7-1.32,9.19,2.91,10.95,6.43,2.28,27.04,1.52,33.38-1.04,3.5-1.77,3.18-6.64,2.19-9.86-.91-3.05-7.37-3.91-10.21-3.81,2.39,4.7,1.18,11.34-3.83,13.74-7.48,4.01-16.81-2.34-14.04-10.91Z"/>
</svg>