<?xml version="1.0" encoding="UTF-8"?>
<svg id="Layer_2" xmlns="http://www.w3.org/2000/svg" version="1.1" viewBox="0 0 35.46 62.99">
  <!-- Generator: Adobe Illustrator 29.8.1, SVG Export Plug-In . SVG Version: 2.1.1 Build 2)  -->
  <defs>
    <style>
      .st0 {
        fill: #372c1c;
        fill-rule: evenodd;
      }

      .st1 {
        fill: #32281a;
      }
    </style>
  </defs>
  <g>
    <path class="st0" d="M30.8,10.13c-.03-.48-.5-.76-.83-1.14-1.51-1.75-3.3-2.97-5.15-4.42-1.4-1.1-2.79-2.26-4.11-3.43-.39-.05-.78-.37-1.2-.62-.42-.26-.95-.6-1.46-.52-.27.04-.64.51-.94.73-.75.56-1.1.61-1.87,1.04-.63.35-1.28.94-1.92,1.46-1.3,1.04-2.45,1.91-3.8,2.96-.68.53-1.51,1.1-1.82,1.56-.11.17-.07.39-.21.57-.16.22-.52.44-.78.68-.76.71-1.64,1.55-1.98,2.55-.02.23.14.1.21.16.16.13.01.08.1.26.43.81.79,1.28,1.46,1.98,3.03,3.2,6.8,5.93,10.97,7.85h.36c.27-.16.7-.35,1.04-.52,2.47-1.21,4.24-2.81,6.24-4.52M26.74,12.1c-2.36,2.62-5.19,4.87-7.9,7.07-.11.09-.09.32-.21.42-.34-.17-.46.25-.83.21-.19-.02-.7-.53-1.04-.78-1.77-1.32-3.49-2.71-5.2-3.95-.72-.52-1.5-1.03-2.08-1.61-.32-.32-.99-1.06-.99-1.46,0-.26.34-.82.52-1.04.39-.47.99-.78,1.4-1.2.61-.6,1.1-1.19,1.77-1.72,1.95-1.54,4.01-3.1,5.77-4.73h.1c3.17,2.12,6.18,4.4,8.94,6.91.14.08.28-.04.42.1.05.4.17.42.31.73-.46.2-.68.7-.99,1.04Z"/>
    <path class="st0" d="M9.07,11.64c1.59.96,2.66,2.34,4.16,3.54.71.57,1.61,1.1,2.39,1.72.47.37,1.11.83,1.77,1.3.16.11.49.47.52.47.08,0,1.04-.78,1.2-.88.49-.34.96-.61,1.25-.83.79-.61,1.46-1.41,2.13-1.98,1.58-1.32,3.04-2.43,4.16-4.06-2.69-2.52-5.9-4.54-8.47-7.17-2.9,2.76-6.09,5.24-9.1,7.9ZM22.27,10.49c.26.24,1.2.93,1.14,1.35-.03.22-.71.74-.94.94-1.09.94-2.12,1.7-3.22,2.44.11.21.11.4-.05.57-.47.05-.56-.27-.99-.26-.11-.09-.09-.32-.21-.42-1.42-1.25-3.13-2.2-4.37-3.64-.16-.02-.25.08-.36-.16.04-.58.62-.85,1.04-1.2.85-.7,1.5-1.36,2.34-2.13.52-.48,1.04-1.28,1.66-1.04,1.18,1.28,2.63,2.31,3.95,3.54Z"/>
    <path class="st0" d="M18.16,7.63c-1.29,1.15-2.54,2.34-3.95,3.38,1.22,1.47,2.99,2.38,4.37,3.69,1.44-.81,2.58-1.93,3.85-2.91-1.31-1.5-3.01-2.61-4.26-4.16ZM18.01,10.7c.5-.53,1.13.09,1.2.62-.37.62-1.41.34-1.2-.62Z"/>
  </g>
  <g>
    <path class="st1" d="M4.63,46.07c.4.97.82,1.89,1.25,2.76.25-.53.19-1.2-.17-1.72-.25-.36-.64-.82-1.08-1.05Z"/>
    <path class="st1" d="M3.16,39.54c-.27-.43-.63-.79-1.02-1.1.21.86.44,1.7.68,2.52.48-.33.8-.7.34-1.41Z"/>
    <path class="st1" d="M3.3,42.49c.26.79.53,1.56.82,2.3.51-.8,0-1.72-.82-2.3Z"/>
    <path class="st1" d="M7.84,41.46c-.21-.09-.42-.19-.62-.29-.37.36-.73.72-.71,1.28,0,.04,0,.07,0,.1.31.08.63.17.96.24.01-.5.13-.96.38-1.34Z"/>
    <path class="st1" d="M5.56,38.15c.74.86,1.72,1.68,2.96,2.15-.86-.53-1.44-1.48-1.44-2.56,0-1.52,1.13-2.78,2.61-2.98-.26-.03-.53-.04-.8-.04-1.39,0-2.95.37-4.71,1.37.04.08.09.18.15.28.27.49.68,1.14,1.24,1.79Z"/>
    <path class="st1" d="M9.72,47.86c1.89-.8,3.93-1.94,5.62-3.47-2.2,1.26-4.92,1.6-7.24,1.6-.76,0-1.49-.04-2.14-.09.3.31.55.66.71.99.32.67.39,1.38.2,2.01.85-.26,1.82-.6,2.85-1.04Z"/>
    <path class="st1" d="M5.04,34.17c-.32-.34-.57-.75-.73-1.19-.25.1-.48.21-.69.32.01.48.25.82.74,1.16,0,0,0,0,.01.01.22-.11.44-.21.66-.3Z"/>
    <path class="st1" d="M8.81,41.78c-.33.21-.39.69-.4,1.05,0,.06-.01.11-.03.16.47.09.95.17,1.43.23-.1-.41-.07-.85.09-1.25-.38-.04-.74-.1-1.09-.19Z"/>
    <path class="st1" d="M17.73,39.27h0s0,0,0,0l-.2.14c-2.48,1.76-4.66,2.51-6.55,2.59-.25.31-.38.76-.2,1.11.03.07.05.13.06.2.31.02.63.03.94.03,2.45,0,4.67-.66,5.95-2.61,1.28,1.95,3.5,2.61,5.95,2.61.31,0,.62-.01.94-.03,0-.06.02-.13.06-.2.18-.36.05-.8-.2-1.11-1.89-.08-4.07-.83-6.55-2.59l-.2-.14h0s0,0,0,0Z"/>
    <path class="st1" d="M5.26,43.54c.13.64.03,1.19-.25,1.66.03.01.06.03.09.04.85.1,1.88.18,3.01.18,2.99,0,6.53-.59,8.71-2.89-1.4,1.03-3.2,1.39-5.04,1.39-2.43,0-4.97-.62-6.88-1.23.17.26.3.55.36.85Z"/>
    <path class="st1" d="M2.2,24.8l2.77.02.48,2.55,2.7-.69,1.15,2.39,2.51-1.23,1.63,2.18,2.24-1.57,2.03,1.64h0s0,0,0,0h0s0,0,0,0l2.03-1.64,2.24,1.57,1.63-2.18,2.51,1.23,1.15-2.39,2.7.69.48-2.55,2.77-.02-.35-2.54,2.26-.71c0-.23,0-.45,0-.68l-.14-.24h-1.13s.01.08.01.12c0,.37-.3.67-.67.67s-.67-.3-.67-.67c0-.04,0-.08.01-.12h-1.73c-1.84,3.19-6.87,5.48-12.81,5.48-.11,0-.21,0-.32,0h0c-.11,0-.21,0-.32,0-5.93,0-10.97-2.29-12.81-5.48h-1.73s.01.08.01.12c0,.37-.3.67-.67.67s-.67-.3-.67-.67c0-.04,0-.08.01-.12H.44l-.14.24c0,.23,0,.46,0,.68l2.26.71-.35,2.54ZM31.77,22.75c.37,0,.67.3.67.67s-.3.67-.67.67-.67-.3-.67-.67.3-.67.67-.67ZM28.96,24.66c.37,0,.67.3.67.67s-.3.67-.67.67-.67-.3-.67-.67.3-.67.67-.67ZM25.66,26.28c.37,0,.67.3.67.67s-.3.67-.67.67-.67-.3-.67-.67.3-.67.67-.67ZM21.61,27.04c.37,0,.67.3.67.67s-.3.67-.67.67-.67-.3-.67-.67.3-.67.67-.67ZM17.73,27.44c.18.12.3.32.3.56s-.12.44-.3.56c-.18-.12-.3-.32-.3-.56s.12-.44.3-.56ZM13.85,27.04c.37,0,.67.3.67.67s-.3.67-.67.67-.67-.3-.67-.67.3-.67.67-.67ZM9.79,26.28c.37,0,.67.3.67.67s-.3.67-.67.67-.67-.3-.67-.67.3-.67.67-.67ZM6.5,24.66c.37,0,.67.3.67.67s-.3.67-.67.67-.67-.3-.67-.67.3-.67.67-.67ZM3.69,22.75c.37,0,.67.3.67.67s-.3.67-.67.67-.67-.3-.67-.67.3-.67.67-.67Z"/>
    <path class="st1" d="M6.64,33.65c-.3-.32-.52-.69-.63-1.11-.28.04-.54.09-.79.15.16.44.45.83.83,1.12.2-.06.39-.11.59-.16Z"/>
    <path class="st1" d="M10.68,40.68c1.49,0,3.32-.52,5.52-1.97-.04-.05-.09-.11-.13-.17-.35-.43-.87-1-1.54-1.57-.73-.62-1.62-1.23-2.67-1.66.74.55,1.23,1.43,1.23,2.42,0,1.46-1.04,2.67-2.41,2.95Z"/>
    <path class="st1" d="M14.05,52.22c.69.19,1.2.57,1.96.32.45-.15.87-.37,1.32-.51.13-.04.27-.08.41-.11.14.03.28.07.41.11.45.14.87.36,1.32.51.75.25,1.26-.13,1.96-.32.54-.15,1.04-.17,1.6-.1.02,0,.06.01.12.02-.55-1.1-2.75-1.92-5.4-1.95h0c-2.65.03-4.85.85-5.4,1.95.06-.01.1-.02.12-.02.56-.06,1.05-.05,1.6.1Z"/>
    <path class="st1" d="M29.75,47.11c-.36.52-.42,1.18-.17,1.72.43-.87.85-1.79,1.25-2.76-.44.22-.83.69-1.08,1.05Z"/>
    <path class="st1" d="M32.3,39.54c-.46.71-.13,1.09.34,1.41.24-.81.47-1.65.68-2.52-.39.32-.75.68-1.02,1.1Z"/>
    <path class="st1" d="M25.51,48.39c-2.74-1.17-5.85-3.02-7.78-5.84h0s0,0,0,0c0,0,0,0,0,0h0c-1.93,2.83-5.04,4.67-7.78,5.84-1.26.54-2.45.93-3.42,1.22-.05.07-.1.13-.15.19,4.55,8.69,10.19,12.49,11.35,13.21h0s0,0,0,0c0,0,0,0,0,0h0c1.17-.72,6.8-4.53,11.35-13.22-.05-.06-.11-.13-.15-.19-.97-.28-2.16-.68-3.42-1.22ZM17.73,43.7c.68.19,1.18.82,1.18,1.56s-.5,1.36-1.18,1.56c-.68-.19-1.18-.82-1.18-1.56s.5-1.36,1.18-1.56ZM17.25,62.16c-.33-.53-1.93-2.99-3.18-3.56,0,0,2.83.16,3.18,1.62v1.93ZM18.26,62.09v-1.93c.35-1.46,3.18-1.62,3.18-1.62-1.25.57-2.85,3.03-3.18,3.56ZM23.68,56.29s.79-1.22.79-3.07c-.14.01-.29,0-.44-.02-.25-.04-.51-.08-.76-.12-.1,2.99-2.53,5.39-5.53,5.46-3-.07-5.42-2.47-5.53-5.46-.26.03-.51.08-.76.12-.15.02-.3.03-.44.02,0,1.85.79,3.07.79,3.07-2.35-1.91-2.26-5.15-2.26-5.15-1.15.03-2.13-.92-2.13-.92,2.42.54,5.88-2.32,5.88-2.32-1.41,1.56-2.02,3.05-2.21,4.34.26.08.86-.02,1.18-.08.36-2.74,2.67-4.86,5.48-4.92,2.82.06,5.13,2.18,5.48,4.92.32.06.92.16,1.18.08-.19-1.29-.8-2.78-2.21-4.34,0,0,3.47,2.86,5.88,2.32,0,0-.99.95-2.13.92,0,0,.1,3.24-2.26,5.15Z"/>
    <path class="st1" d="M31.34,44.78c.28-.74.56-1.5.82-2.3-.82.58-1.33,1.49-.82,2.3Z"/>
    <path class="st1" d="M28.24,41.17c-.2.1-.41.2-.62.29.25.37.37.84.38,1.34.33-.08.65-.16.96-.24,0-.03,0-.07,0-.1.01-.56-.34-.92-.71-1.28Z"/>
    <path class="st1" d="M25.78,34.76c1.47.2,2.61,1.45,2.61,2.98,0,1.09-.58,2.03-1.44,2.56,1.24-.46,2.22-1.29,2.96-2.15.56-.65.97-1.3,1.24-1.79.06-.1.1-.19.15-.28-1.76-1-3.33-1.37-4.71-1.37-.27,0-.54.02-.8.04Z"/>
    <path class="st1" d="M29.49,45.9c-.65.05-1.37.09-2.14.09-2.32,0-5.04-.34-7.24-1.6,1.69,1.53,3.73,2.66,5.62,3.47,1.03.44,2,.78,2.85,1.04-.19-.63-.13-1.34.2-2.01.16-.33.41-.68.71-.99Z"/>
    <path class="st1" d="M31.84,33.3c-.2-.11-.43-.22-.69-.32-.16.44-.41.85-.73,1.19.22.09.44.19.66.3,0,0,0,0,.01-.01.49-.34.72-.68.74-1.16Z"/>
    <path class="st1" d="M25.65,43.22c.48-.06.96-.14,1.43-.23-.02-.05-.03-.1-.03-.16,0-.36-.07-.84-.4-1.05-.35.09-.71.15-1.09.19.15.4.19.84.09,1.25Z"/>
    <path class="st1" d="M18.65,42.53c2.17,2.3,5.72,2.89,8.71,2.89,1.13,0,2.17-.08,3.01-.18.03-.01.06-.03.09-.04-.28-.47-.39-1.01-.25-1.66.06-.31.19-.59.36-.85-1.91.61-4.45,1.23-6.88,1.23-1.83,0-3.64-.36-5.04-1.39Z"/>
    <path class="st1" d="M34.66,25.93l-3.14.02-.54,2.85-2.99-.77-1.26,2.61-2.71-1.33-1.74,2.33-2.47-1.73-2.08,1.69-2.08-1.69-2.47,1.73-1.74-2.33-2.71,1.33-1.26-2.61-2.99.77-.54-2.85-3.14-.02.4-2.89-.9-.28c.04,5.39.61,10.13,1.52,14.29,1.04.6,2.1,1.44,2.41,2.54.15.54.23,1.15-.17,1.61-.12.14-.26.25-.4.35.13.07.25.15.37.24.35.13.74.26,1.16.39.12.04.24.08.37.11.03-.67.39-1.15.83-1.62-.73-.5-1.34-1.08-1.83-1.65-1.27-1.47-1.84-2.91-1.86-2.95l-.21-.52.47-.3c.17-.1.33-.2.5-.3-.29-.25-.54-.53-.68-.9-.02-.05-.03-.09-.04-.14-.62.55-.81,1.04-.81,1.04-.1-1.96.62-3.05.62-3.05-1.38-2.58-1.14-4.87-1.14-4.87,1.43,3.53,11.01,6.07,10.78,6.01-2.14-.53-3.85-.68-5.21-.61.16.42.5.74.92.98.34-.04.67-.05.99-.05,2.81,0,5.02,1.31,6.51,2.57,1.49,1.27,2.29,2.53,2.31,2.57l.02.04h0s0,0,0,0h0s0,0,0,0l.02-.04s.82-1.29,2.31-2.57c1.49-1.27,3.7-2.57,6.51-2.57.32,0,.65.02.99.05.42-.24.77-.56.92-.98-1.36-.07-3.07.08-5.21.61-.23.06,9.35-2.48,10.78-6.01,0,0,.24,2.29-1.15,4.87,0,0,.72,1.1.62,3.05,0,0-.19-.49-.81-1.04-.01.05-.03.09-.04.14-.14.37-.39.65-.68.9.17.1.33.19.5.3l.47.3-.21.52s-.59,1.48-1.86,2.95c-.49.57-1.1,1.16-1.83,1.65.44.46.79.95.83,1.62.13-.04.25-.08.37-.11.42-.13.81-.26,1.16-.39.12-.09.24-.17.37-.24-.15-.1-.28-.21-.4-.35-.4-.46-.33-1.07-.17-1.61.31-1.09,1.37-1.94,2.41-2.54.91-4.16,1.48-8.9,1.52-14.29l-.9.28.4,2.89ZM17.73,37.77c-.16-.15-.25-.36-.25-.59s.1-.44.25-.59c.16.15.25.36.25.59s-.1.44-.25.59ZM17.73,35.82c-.38-.2-.64-.6-.64-1.06s.26-.86.64-1.06c.38.2.64.6.64,1.06s-.26.86-.64,1.06Z"/>
    <path class="st1" d="M30.24,32.69c-.25-.06-.51-.11-.79-.15-.11.42-.33.8-.63,1.11.19.05.39.1.59.16.38-.29.67-.68.83-1.12Z"/>
    <path class="st1" d="M23.6,35.31c-1.05.43-1.94,1.04-2.67,1.66-.67.57-1.19,1.15-1.54,1.57-.05.06-.09.12-.13.17,2.2,1.45,4.03,1.96,5.52,1.97-1.37-.28-2.41-1.49-2.41-2.95,0-.99.49-1.87,1.23-2.42Z"/>
    <path class="st1" d="M21.47,53.22c-.57.24-1.13.44-1.76.34-.64-.1-1.22-.37-1.82-.61-.05-.02-.1-.04-.16-.05h0s0,0,0,0c0,0,0,0,0,0h0c-.05.02-.1.03-.16.05-.6.24-1.18.51-1.82.61-.63.1-1.19-.1-1.76-.34-.55-.23-1.13-.22-1.72-.14.44,1.16,2.7,2.04,5.45,2.07h0c2.75-.03,5.01-.91,5.45-2.07-.58-.07-1.16-.09-1.72.14Z"/>
  </g>
</svg>