<?xml version="1.0" encoding="UTF-8"?>
<svg id="Layer_2" xmlns="http://www.w3.org/2000/svg" version="1.1" viewBox="0 0 56.32 56.76">
  <!-- Generator: Adobe Illustrator 29.8.1, SVG Export Plug-In . SVG Version: 2.1.1 Build 2)  -->
  <defs>
    <style>
      .st0 {
        fill: #753214;
      }
    </style>
  </defs>
  <path class="st0" d="M44.05,19.69c.73,1.6,1.13,3.28,1.45,5.06.25-.13.42-.21.59-.3,1.26-.67,2.52-1.36,3.8-1.99.46-.23.97-.37,1.47-.47,1.91-.4,3.42.49,4.2,2.45.4,1.02.61,2.1.69,3.19.1,1.47.15,2.95-.18,4.41-.46,2.08-1.63,3.16-3.59,3.3-1.64.11-3.23-.24-4.81-.67-.62-.17-1.23-.37-1.9-.58-.2,1.56-.39,3.09-.59,4.68.67.34,1.34.69,2.06.91,1.27.39,2.49.92,3.59,1.73.54.4,1.05.87,1.5,1.38,1,1.14,1.31,2.49.94,4.04-.29,1.22-.81,2.31-1.41,3.36-.46.81-.99,1.58-1.49,2.36-.14.21-.31.4-.48.57-.95.99-2.1,1.19-3.28.57-.65-.34-1.2-.83-1.72-1.37-1.3-1.36-2.39-2.9-3.52-4.42-.49-.66-.98-1.33-1.5-2.03-2.63.92-5.33,1.13-8.1,1.39.08.31.14.53.19.76.35,1.55.72,3.09,1.04,4.65.1.46.09.95.08,1.43-.03,1.13-.54,1.88-1.54,2.21-.52.17-1.07.28-1.61.31-1.33.09-2.66.14-3.99.15-.47,0-.95-.11-1.39-.26-.73-.24-1.18-.82-1.25-1.65-.05-.65-.05-1.32.06-1.96.29-1.64.65-3.27.98-4.91.04-.21.09-.42.15-.69-.16-.04-.28-.1-.42-.11-1.99-.19-3.94-.56-5.85-1.19-.49-.16-.51-.16-.77.37-.53,1.09-1.03,2.2-1.58,3.28-.47.92-.98,1.82-1.49,2.72-.15.27-.34.52-.53.76-1.23,1.55-2.58,1.92-4.32,1.14-1.59-.71-2.99-1.74-4.18-3.1-.21-.24-.4-.52-.57-.8-.64-1.09-.61-2.2.11-3.23.3-.42.64-.83,1.02-1.16,1.65-1.45,3.32-2.88,4.97-4.32.28-.24.54-.51.84-.79-.79-1.6-1.15-3.29-1.4-5.07-.26.05-.47.09-.67.14-1.32.38-2.64.77-3.97,1.13-.78.21-1.58.33-2.39.2-1.09-.18-1.9-.78-2.38-1.87-.16-.36-.29-.74-.38-1.12-.43-1.97-.66-3.97-.43-5.99.07-.63.21-1.26.43-1.84.43-1.1,1.23-1.74,2.33-1.78.61-.03,1.24.05,1.84.18,1.68.38,3.3,1.01,4.89,1.71.18.08.36.16.61.26.06-.51.1-.94.15-1.36.14-1.11.27-2.21.42-3.32.09-.65.1-.65-.44-.98-1.52-.95-3.04-1.91-4.38-3.16-.51-.48-.98-1.02-1.38-1.61-.9-1.35-.99-2.83-.39-4.37.32-.82.77-1.54,1.29-2.21.75-.96,1.54-1.87,2.52-2.56.38-.27.79-.51,1.21-.68,1.02-.42,1.97-.22,2.85.45.65.5,1.15,1.16,1.63,1.85.82,1.2,1.52,2.49,2.12,3.84.09.19.18.39.28.6.95-.36,1.85-.77,2.79-1.05.96-.29,1.95-.5,2.94-.68.97-.17,1.95-.27,2.99-.41-.05-.22-.08-.4-.13-.58-.57-2.02-1.02-4.08-1.35-6.17-.09-.55-.15-1.11-.14-1.66,0-1.08.46-1.78,1.4-2.11.53-.19,1.1-.32,1.65-.38,1.27-.12,2.55-.2,3.82-.24.47-.02.95.07,1.4.19.81.23,1.3.83,1.49,1.73.17.84.1,1.68-.07,2.49-.37,1.75-.79,3.48-1.19,5.23-.12.52-.25,1.04-.39,1.63.2.06.37.12.54.14,1.99.24,3.92.69,5.76,1.59.06.03.14.03.23.05.07-.15.14-.29.2-.43.58-1.48,1.35-2.83,2.19-4.14.25-.39.45-.82.65-1.24.21-.46.37-.96.6-1.41.51-1.01,1.21-1.26,2.16-.79.33.16.65.37.95.59,1.29.97,2.58,1.95,3.86,2.95.37.29.71.62,1.03.98.77.89.91,1.93.43,3.04-.38.86-.95,1.57-1.61,2.17-1.26,1.15-2.55,2.26-3.83,3.38-.25.22-.5.45-.77.69.13.29.24.54.37.82ZM22.98,40.77c.56.04,1.13.1,1.69.13,2.98.15,5.95-.06,8.87-.73,1.09-.25,2.18-.51,3.25-.82.75-.22,1.39-.69,1.94-1.3.8-.89,1.19-2.01,1.39-3.2.21-1.25.37-2.52.47-3.79.14-1.67.21-3.34.29-5.02.06-1.4,0-2.79-.31-4.16-.34-1.57-1.09-2.87-2.28-3.83-.44-.36-.9-.68-1.39-.95-3.74-2.06-7.7-2.65-11.82-2.05-1.18.17-2.34.61-3.5.94-2.03.58-3.35,2.01-4.14,4.09-.48,1.26-.79,2.57-1.06,3.9-.67,3.28-.86,6.6-.39,9.93.11.78.36,1.54.58,2.3.12.42.29.81.43,1.23.53,1.58,1.48,2.64,3.06,2.89.94.15,1.88.29,2.92.45Z"/>
  <path class="st0" d="M30.63,25.99c.68,1.14.96,2.32.7,3.62-.36,1.8-1.71,3.15-3.44,3.46-1.65.3-3.22-.48-4.11-2.06-.62-1.1-.96-2.28-.74-3.59.46-2.74,3.03-4.32,5.42-3.32.89.37,1.61.99,2.18,1.89ZM25.43,28.04c.09.8.43,1.43,1.1,1.8.62.34,1.33.12,1.85-.54.44-.57.47-1.02.02-1.72-.19-.3-.44-.59-.73-.79-1.03-.72-2.05-.18-2.24,1.25Z"/>
</svg>