<?xml version="1.0" encoding="UTF-8"?>
<svg id="Layer_2" xmlns="http://www.w3.org/2000/svg" version="1.1" viewBox="0 0 49.24 59.72">
  <!-- Generator: Adobe Illustrator 29.8.1, SVG Export Plug-In . SVG Version: 2.1.1 Build 2)  -->
  <defs>
    <style>
      .st0 {
        fill: #753214;
      }
    </style>
  </defs>
  <path class="st0" d="M45.9,7.92c-1.8-3.44-6.01-6.13-10.91-7.27-6.17-1.43-13.15-.41-18.49,2.06C5.14,7.95,1.55,17.93.41,26.91c-1.29,10.25.4,20.91,5.9,30.48.02.06.02.12.04.18.55,1.4,2.95,2.56,5.03,2.02,11.08-2.93,17.89-9.73,23.87-16.58,3.03-3.46,5.91-6.92,8.25-10.65,2.38-3.79,4.84-7.75,5.53-11.9.7-4.21-.42-8.71-3.14-12.53ZM21.4,13.53c3.61-1.23,7.54.18,9.92,3.06,2.38,2.88,3.24,7.16.9,10.33-1.85,2.49-5.01,3.82-8.09,3.72-3.87-.13-6.92-2.79-8.04-6.44-1.17-4.35.94-9.18,5.31-10.67Z"/>
</svg>