<?xml version="1.0" encoding="UTF-8"?>
<svg id="Layer_2" xmlns="http://www.w3.org/2000/svg" version="1.1" viewBox="0 0 203.83 83.41">
  <!-- Generator: Adobe Illustrator 29.8.1, SVG Export Plug-In . SVG Version: 2.1.1 Build 2)  -->
  <defs>
    <style>
      .st0 {
        fill: #251e15;
      }

      .st1 {
        fill: #2a2315;
      }

      .st2 {
        fill: #302719;
        fill-rule: evenodd;
      }
    </style>
  </defs>
  <g>
    <path class="st2" d="M40.5,13.34c-.04-.64-.66-1.01-1.1-1.52-2.01-2.33-4.38-3.95-6.83-5.87-1.86-1.46-3.7-3.01-5.45-4.56-.52-.07-1.04-.49-1.59-.83-.55-.34-1.26-.79-1.93-.69-.36.05-.85.68-1.24.97-.99.74-1.46.81-2.48,1.38-.84.47-1.69,1.24-2.55,1.93-1.72,1.38-3.26,2.54-5.04,3.93-.91.71-2.01,1.45-2.42,2.07-.15.23-.1.52-.28.76-.22.29-.69.58-1.04.9-1.02.94-2.18,2.06-2.62,3.38-.03.31.19.13.28.21.21.18.02.11.14.35.56,1.07,1.05,1.69,1.93,2.62,4.02,4.24,9.03,7.88,14.57,10.42h.48c.36-.21.93-.47,1.38-.69,3.28-1.61,5.64-3.73,8.28-6.01M35.12,15.96c-3.13,3.48-6.89,6.47-10.49,9.39-.15.13-.13.43-.28.55-.45-.23-.62.33-1.1.28-.25-.03-.93-.7-1.38-1.04-2.35-1.75-4.63-3.6-6.9-5.25-.95-.69-1.99-1.37-2.76-2.14-.43-.43-1.31-1.41-1.31-1.93,0-.35.45-1.09.69-1.38.51-.62,1.31-1.04,1.86-1.59.81-.8,1.46-1.58,2.35-2.28,2.58-2.04,5.32-4.11,7.66-6.28h.14c4.21,2.81,8.2,5.84,11.87,9.18.19.11.37-.05.55.14.07.54.23.56.41.97-.61.26-.9.93-1.31,1.38"/>
    <path class="st2" d="M11.65,15.34c2.11,1.27,3.53,3.1,5.52,4.69.95.76,2.14,1.47,3.18,2.28.62.48,1.47,1.1,2.35,1.73.21.15.65.62.69.62.1,0,1.38-1.03,1.59-1.17.65-.45,1.27-.8,1.66-1.11,1.04-.81,1.94-1.88,2.83-2.62,2.1-1.76,4.04-3.22,5.52-5.38-3.57-3.35-7.83-6.02-11.25-9.53-3.86,3.67-8.09,6.96-12.08,10.49M29.18,13.82c.34.32,1.59,1.23,1.52,1.79-.04.29-.94.99-1.24,1.24-1.45,1.25-2.82,2.25-4.28,3.24.15.28.14.53-.07.76-.62.07-.74-.36-1.31-.35-.15-.13-.13-.43-.28-.55-1.88-1.66-4.16-2.93-5.8-4.83-.21-.03-.33.11-.48-.21.05-.77.82-1.13,1.38-1.59,1.13-.93,2-1.8,3.11-2.83.69-.64,1.38-1.7,2.21-1.38,1.57,1.69,3.49,3.07,5.25,4.69"/>
    <path class="st2" d="M23.73,10.02c-1.72,1.53-3.38,3.11-5.25,4.49,1.62,1.95,3.97,3.16,5.8,4.9,1.91-1.08,3.42-2.56,5.11-3.87-1.74-1.99-3.99-3.46-5.66-5.52M23.52,14.09c.66-.71,1.5.12,1.59.83-.49.83-1.87.45-1.59-.83"/>
    <path class="st1" d="M5.76,61.05c.53,1.29,1.09,2.51,1.66,3.67.33-.71.25-1.59-.23-2.28-.33-.48-.85-1.09-1.44-1.39"/>
    <path class="st1" d="M3.81,52.38c-.36-.57-.83-1.04-1.36-1.46.28,1.15.58,2.26.9,3.34.63-.43,1.06-.93.45-1.88"/>
    <path class="st1" d="M3.99,56.3c.35,1.05.71,2.07,1.08,3.05.68-1.07,0-2.28-1.08-3.05"/>
    <path class="st1" d="M10.01,54.94c-.29-.12-.56-.25-.82-.38-.49.48-.97.96-.95,1.7,0,.05,0,.1,0,.14.42.11.84.22,1.28.32.02-.66.17-1.28.5-1.77"/>
    <path class="st1" d="M6.99,50.54c.99,1.14,2.28,2.23,3.93,2.85-1.14-.7-1.91-1.96-1.91-3.4,0-2.02,1.51-3.69,3.46-3.95-.35-.04-.7-.06-1.06-.06-1.84,0-3.92.49-6.26,1.82.06.11.12.24.2.37.36.65.9,1.51,1.64,2.37"/>
    <path class="st1" d="M12.52,63.43c2.51-1.07,5.22-2.57,7.46-4.61-2.92,1.67-6.53,2.12-9.61,2.12-1.01,0-1.97-.05-2.84-.12.4.41.73.87.94,1.32.43.89.51,1.83.26,2.67,1.12-.35,2.42-.8,3.78-1.38"/>
    <path class="st1" d="M6.3,45.26c-.43-.46-.76-1-.97-1.59-.34.13-.64.27-.91.42.02.64.34,1.09.98,1.54,0,0,.01.01.02.02.3-.14.59-.27.88-.39"/>
    <path class="st1" d="M11.31,55.36c-.44.28-.52.92-.53,1.4,0,.08-.02.15-.04.21.62.12,1.26.22,1.9.3-.14-.54-.09-1.13.11-1.66-.5-.05-.98-.13-1.44-.25"/>
    <path class="st1" d="M23.15,52.03h0s0,0,0,0l-.27.19c-3.29,2.34-6.19,3.34-8.7,3.44-.33.41-.51,1.01-.26,1.48.05.09.07.18.08.26.42.03.83.04,1.25.04,3.25,0,6.2-.87,7.91-3.47,1.7,2.6,4.65,3.46,7.91,3.47.41,0,.83-.02,1.25-.04,0-.08.03-.17.08-.26.25-.47.06-1.07-.26-1.48-2.51-.1-5.41-1.1-8.7-3.44l-.27-.19h0s0,0,0,0Z"/>
    <path class="st1" d="M6.59,57.7c.18.85.04,1.58-.34,2.2.04.02.08.03.11.05,1.12.13,2.5.24,4,.24,3.97,0,8.68-.78,11.56-3.83-1.86,1.36-4.25,1.85-6.69,1.84-3.23,0-6.6-.83-9.13-1.64.23.35.39.72.48,1.13"/>
    <path class="st1" d="M2.53,32.81l3.68.02.64,3.38,3.59-.92,1.53,3.18,3.33-1.64,2.17,2.89,2.98-2.09,2.69,2.18h0s0,0,0,0h0s0,0,0,0l2.69-2.18,2.98,2.09,2.17-2.89,3.34,1.64,1.53-3.18,3.59.92.64-3.38,3.68-.02-.47-3.37,3-.94c0-.3,0-.6,0-.91l-.19-.32h-1.5c0,.05.02.11.02.16,0,.49-.4.89-.89.89s-.89-.4-.89-.89c0-.06,0-.11.02-.16h-2.29c-2.44,4.24-9.13,7.28-17,7.28-.14,0-.28,0-.42,0h0c-.14,0-.28,0-.42,0-7.88,0-14.57-3.04-17-7.28h-2.29c0,.05.02.11.02.16,0,.49-.4.89-.89.89s-.89-.4-.89-.89c0-.06,0-.11.02-.16H.2l-.19.32c0,.3,0,.61,0,.91l3,.94-.46,3.37ZM41.79,30.09c.49,0,.89.4.89.89s-.4.89-.89.89-.89-.4-.89-.89.4-.89.89-.89M38.06,32.63c.49,0,.89.4.89.89s-.4.89-.89.89-.89-.4-.89-.89.4-.89.89-.89M33.69,34.78c.49,0,.89.4.89.89s-.4.89-.89.89-.89-.4-.89-.89.4-.89.89-.89M28.3,35.8c.49,0,.89.4.89.89s-.4.89-.89.89-.89-.4-.89-.89.4-.89.89-.89M23.15,36.32c.24.16.4.43.4.74s-.16.58-.4.74c-.24-.16-.4-.43-.4-.74s.16-.58.4-.74M18,35.8c.49,0,.89.4.89.89s-.4.89-.89.89-.89-.4-.89-.89.4-.89.89-.89M12.62,34.78c.49,0,.89.4.89.89s-.4.89-.89.89-.89-.4-.89-.89.4-.89.89-.89M8.24,32.63c.49,0,.89.4.89.89s-.4.89-.89.89-.89-.4-.89-.89.4-.89.89-.89M4.51,30.09c.49,0,.89.4.89.89s-.4.89-.89.89-.89-.4-.89-.89.4-.89.89-.89"/>
    <path class="st1" d="M8.42,44.57c-.4-.42-.7-.91-.84-1.48-.37.05-.72.12-1.05.2.22.58.6,1.1,1.1,1.48.26-.08.52-.15.78-.21"/>
    <path class="st1" d="M13.79,53.9c1.98,0,4.41-.69,7.33-2.61-.06-.07-.11-.15-.18-.22-.46-.57-1.15-1.33-2.04-2.09-.96-.82-2.16-1.63-3.54-2.2.99.73,1.63,1.89,1.63,3.21,0,1.93-1.37,3.54-3.2,3.91"/>
    <path class="st1" d="M18.26,69.22c.92.26,1.6.75,2.6.43.59-.19,1.15-.49,1.75-.68.18-.06.36-.1.54-.15.18.04.37.09.54.15.59.18,1.15.48,1.75.68,1,.33,1.67-.17,2.6-.43.72-.2,1.38-.22,2.12-.14.03,0,.09.01.16.03-.73-1.46-3.65-2.55-7.17-2.59h0c-3.52.03-6.44,1.13-7.17,2.59.08-.01.14-.03.16-.03.74-.08,1.4-.06,2.12.14"/>
    <path class="st1" d="M39.11,62.44c-.48.69-.56,1.57-.23,2.28.57-1.16,1.13-2.38,1.66-3.67-.59.3-1.11.91-1.44,1.39"/>
    <path class="st1" d="M42.49,52.38c-.61.94-.18,1.45.45,1.88.32-1.08.62-2.19.9-3.34-.52.42-.99.9-1.36,1.46"/>
    <path class="st1" d="M33.48,64.13c-3.64-1.56-7.77-4-10.33-7.76h0s0,0,0,0c0,0,0,0,0,0h0c-2.56,3.76-6.69,6.2-10.33,7.76-1.68.71-3.25,1.24-4.54,1.61-.06.09-.13.17-.2.26,6.05,11.54,13.52,16.59,15.07,17.55h0s0,0,0,0c0,0,0,0,0,0h0c1.55-.96,9.03-6.01,15.07-17.55-.07-.08-.14-.17-.2-.26-1.28-.37-2.86-.9-4.54-1.61M23.15,57.9c.9.26,1.56,1.09,1.56,2.07s-.66,1.81-1.56,2.07c-.9-.26-1.56-1.09-1.56-2.07s.66-1.81,1.56-2.07M22.51,82.42c-.44-.7-2.57-3.97-4.22-4.72,0,0,3.76.21,4.22,2.15v2.57ZM23.85,82.33v-2.57c.46-1.94,4.22-2.15,4.22-2.15-1.66.75-3.78,4.02-4.22,4.72M31.05,74.63s1.04-1.62,1.05-4.08c-.19.01-.39,0-.59-.02-.33-.05-.67-.11-1.01-.15-.14,3.97-3.36,7.16-7.34,7.25-3.98-.09-7.2-3.28-7.34-7.25-.34.05-.68.1-1.01.15-.2.03-.4.04-.59.02,0,2.45,1.05,4.08,1.05,4.08-3.13-2.53-3-6.84-3-6.84-1.52.04-2.83-1.22-2.83-1.22,3.21.72,7.81-3.08,7.81-3.08-1.88,2.07-2.68,4.05-2.94,5.76.34.11,1.14-.03,1.57-.11.47-3.63,3.54-6.45,7.28-6.53,3.74.08,6.81,2.9,7.28,6.53.43.08,1.22.22,1.57.11-.26-1.71-1.06-3.69-2.94-5.76,0,0,4.6,3.8,7.81,3.08,0,0-1.31,1.27-2.83,1.22,0,0,.13,4.31-3,6.84"/>
    <path class="st1" d="M41.22,59.35c.38-.98.74-2,1.08-3.05-1.09.77-1.77,1.98-1.08,3.05"/>
    <path class="st1" d="M37.11,54.56c-.27.14-.54.27-.82.38.33.5.49,1.12.5,1.77.44-.1.86-.21,1.28-.32,0-.04-.01-.09-.01-.14.02-.75-.45-1.22-.95-1.7"/>
    <path class="st1" d="M33.84,46.03c1.95.26,3.46,1.93,3.46,3.95,0,1.44-.77,2.7-1.91,3.4,1.65-.62,2.94-1.71,3.93-2.85.74-.86,1.29-1.73,1.64-2.37.07-.13.14-.26.2-.37-2.34-1.33-4.42-1.82-6.26-1.82-.36,0-.71.02-1.06.06"/>
    <path class="st1" d="M38.77,60.83c-.87.07-1.83.12-2.84.12-3.08,0-6.69-.45-9.61-2.12,2.24,2.03,4.95,3.54,7.46,4.61,1.36.58,2.66,1.03,3.78,1.38-.25-.84-.17-1.78.26-2.67.22-.44.54-.91.94-1.32"/>
    <path class="st1" d="M41.88,44.1c-.27-.15-.57-.29-.91-.42-.21.59-.54,1.13-.97,1.59.29.12.58.25.88.39,0,0,.01-.01.02-.02.64-.45.96-.9.98-1.54"/>
    <path class="st1" d="M33.66,57.27c.64-.08,1.28-.18,1.9-.3-.02-.06-.04-.13-.04-.21,0-.48-.09-1.11-.53-1.4-.46.12-.94.2-1.44.25.2.53.25,1.11.11,1.66"/>
    <path class="st1" d="M24.37,56.36c2.88,3.05,7.59,3.83,11.56,3.83,1.5,0,2.88-.11,4-.24.04-.02.08-.04.11-.05-.37-.62-.52-1.34-.34-2.2.08-.41.25-.79.48-1.13-2.53.81-5.9,1.64-9.13,1.64-2.44,0-4.83-.48-6.69-1.84"/>
    <path class="st1" d="M45.63,34.32l-4.16.03-.72,3.78-3.97-1.02-1.67,3.47-3.6-1.77-2.31,3.09-3.28-2.3-2.77,2.24-2.77-2.24-3.28,2.3-2.31-3.09-3.6,1.77-1.67-3.47-3.97,1.02-.72-3.78-4.16-.03.53-3.84-1.2-.38c.05,7.16.81,13.45,2.02,18.97,1.38.8,2.79,1.92,3.2,3.37.21.72.3,1.53-.23,2.14-.16.18-.34.33-.54.46.17.1.33.2.49.32.47.17.98.34,1.54.52.16.05.32.1.49.15.05-.88.52-1.53,1.1-2.15-.97-.66-1.78-1.43-2.43-2.19-1.68-1.96-2.44-3.87-2.47-3.92l-.27-.69.63-.39c.22-.14.44-.27.66-.4-.38-.33-.71-.7-.9-1.19-.02-.06-.04-.12-.06-.18-.82.73-1.07,1.38-1.07,1.38-.13-2.6.82-4.05.82-4.05-1.84-3.42-1.52-6.46-1.52-6.46,1.9,4.69,14.62,8.06,14.32,7.98-2.84-.7-5.11-.9-6.91-.81.21.56.67.99,1.22,1.31.45-.05.88-.07,1.31-.07,3.74,0,6.67,1.73,8.64,3.42,1.98,1.69,3.04,3.36,3.07,3.41l.03.05h0s0,0,0,0h0s0,0,0,0l.03-.05s1.09-1.72,3.07-3.41c1.97-1.68,4.91-3.42,8.64-3.42.43,0,.87.02,1.31.07.56-.32,1.02-.74,1.22-1.31-1.81-.09-4.07.11-6.91.81-.31.08,12.42-3.29,14.32-7.98,0,0,.32,3.04-1.52,6.46,0,0,.95,1.46.82,4.05,0,0-.26-.65-1.07-1.38-.02.06-.04.12-.06.18-.18.48-.52.86-.9,1.19.22.13.44.26.66.4l.63.39-.27.69c-.02.06-.78,1.97-2.47,3.92-.65.76-1.47,1.53-2.43,2.19.58.61,1.05,1.26,1.1,2.15.17-.05.33-.1.49-.15.56-.18,1.07-.35,1.54-.52.16-.12.32-.22.49-.32-.19-.13-.38-.28-.54-.46-.53-.61-.44-1.42-.23-2.14.42-1.45,1.82-2.57,3.2-3.37,1.21-5.52,1.97-11.82,2.02-18.97l-1.2.38.53,3.84ZM23.15,50.03c-.21-.2-.34-.48-.34-.79s.13-.59.34-.79c.21.2.34.48.34.79s-.13.59-.34.79M23.15,47.45c-.5-.27-.84-.8-.84-1.41s.34-1.14.84-1.41c.5.27.84.8.84,1.41s-.34,1.14-.84,1.41"/>
    <path class="st1" d="M39.77,43.3c-.33-.08-.67-.15-1.05-.2-.14.56-.44,1.06-.84,1.48.26.06.52.13.78.21.5-.38.89-.9,1.1-1.48"/>
    <path class="st1" d="M30.95,46.77c-1.39.57-2.58,1.38-3.54,2.2-.89.76-1.58,1.52-2.04,2.09-.06.08-.12.15-.18.22,2.92,1.92,5.34,2.61,7.33,2.61-1.83-.37-3.2-1.98-3.2-3.91,0-1.32.64-2.49,1.63-3.21"/>
    <path class="st1" d="M28.11,70.55c-.76.32-1.51.58-2.34.45-.85-.13-1.62-.5-2.42-.81-.07-.03-.14-.05-.21-.07h0s0,0,0,0c0,0,0,0,0,0h0c-.07.02-.14.05-.21.07-.8.31-1.56.68-2.42.81-.83.13-1.58-.13-2.34-.45-.73-.31-1.51-.29-2.28-.19.59,1.53,3.59,2.71,7.24,2.75h0c3.65-.04,6.66-1.21,7.24-2.75-.77-.1-1.54-.12-2.28.19"/>
  </g>
  <g>
    <path class="st0" d="M111.26,8.89h0c.13-.19.33-.29.55-.29h9.17c.67,0,1.33.28,1.74.81.47.6.42,1.18.06,2.13-.59,1.57-1.08,3.14-1.09,4.9-.06,12.7-.24,25.41-.38,38.11-.02,1.42.28,2.84.93,4.11.76,1.49,1.85,2.76,3.17,3.83,2.26,1.82,4.9,2.07,7.62,1.79,1.6-.16,3.02-.94,4.3-1.94,2.31-1.8,3.64-4.11,3.69-7.04.13-7.36.2-14.73.29-22.09.08-6.03.19-12.07.19-18.1,0-1.1-.44-2.23-.77-3.31-.43-1.4-.27-2.17.7-2.87h10.34c1.25.93,1.44,1.57.96,2.8-.76,1.9-1.19,3.81-1.2,5.92-.05,12.25-.24,24.5-.37,36.76-.04,3.5-.84,6.82-2.53,9.85-1.03,1.84-2.39,3.46-3.95,4.95-1.7,1.62-3.68,2.68-5.7,3.7-1.41.72-2.94,1.19-4.57,1.24-1.6.06-3.2.27-4.79.19-3.52-.17-6.65-1.51-9.58-3.44-1.76-1.16-3.24-2.6-4.49-4.22-1.83-2.38-3.17-5.03-3.79-8.04-.33-1.6-.38-3.19-.36-4.79.11-12.96.29-25.93.36-38.89,0-1.21-.58-2.43-.93-3.64h0c-.24-.85-.1-1.74.42-2.43"/>
    <path class="st0" d="M96.7,72.01c0,1.51-.65,2.1-2.18,2.07-3-.06-6-.1-9-.16-2.43-.05-4.82-.42-7.07-1.35-2.72-1.12-5.25-2.59-7.49-4.55-3.75-3.29-6.39-7.32-8.33-11.88-3.09-7.25-3.49-14.72-2.22-22.38.42-2.54,1.09-5.03,2.15-7.37.88-1.97,1.82-3.94,3-5.74,1.14-1.74,2.62-3.27,3.96-4.88,1.42-1.71,3.29-2.9,5.1-4.13,1.86-1.25,3.96-1.99,6.1-2.65,3.27-1.01,6.57-1.1,9.91-.49.91.16,1.77.54,2.68.73.65.14,1.34.24,1.98.17,1.37-.16,2.25.5,2.24,1.89-.01,2.72-.04,5.45-.09,8.17-.03,1.65-1.31,2.4-2.75,1.58-1.56-.9-3.09-1.82-4.87-2.21-4.34-.94-8.2.01-11.62,2.84-2.43,2.01-4.21,4.47-5.58,7.31-2.52,5.25-3.11,10.76-2.34,16.45.21,1.56.52,3.13,1.03,4.61,1.15,3.35,2.78,6.45,5.27,9.05,1.88,1.96,4.06,3.41,6.63,4.25.55.18,1.14.27,1.73.32.97.09,1.67-.5,1.78-1.47.04-.37.04-.74.04-1.11.04-4.33.14-8.67.09-13-.01-1.04-.53-2.08-.83-3.11-.07-.24-.19-.46-.24-.7-.38-1.52.33-2.42,1.89-2.4,2.48.03,4.95.07,7.43.1,1.48.02,2.1.69,2.07,2.2-.11,4.64-.45,23.2-.46,27.85"/>
    <path class="st0" d="M177.16,10.18s0,0,0,0c.49-.49,1.16-.76,1.85-.76,4.04,0,7.85,0,11.65,0,1.34,0,2.15,1.39,1.52,2.59-.94,1.8-.98,3.63-.4,5.56.54,1.79.96,3.62,1.42,5.44.48,1.88.94,3.77,1.42,5.65.34,1.37.68,2.75,1.04,4.11.48,1.84,1,3.67,1.47,5.52.38,1.47.68,2.95,1.07,4.41.49,1.88,1.04,3.74,1.54,5.61.34,1.31.63,2.63.95,3.94.29,1.2.47,2.44.93,3.57.45,1.1,1.19,2.08,1.83,3.1.37.59.56,1.19.2,1.83-.36.63-.98.64-1.62.63-2.69-.04-5.38-.06-8.07-.09-.79,0-1.49-.16-2.08-.8-.56-.61-.67-1.24-.63-2.03.07-1.32.11-2.65-.02-3.96-.1-.97-.46-1.91-.77-2.85-.23-.7-.81-1.06-1.53-1.19-1.15-.2-2.3-.39-3.44-.62-1.61-.31-3.2-.69-4.81-.96-1.32-.23-2.32.6-2.56,1.93-.12.68-.28,1.36-.51,2.01-.63,1.75-.88,3.51-.49,5.36.28,1.35-1.01,2.88-2.4,2.88-2.97,0-5.94-.03-8.91-.1-1.16-.02-1.72-.94-1.23-2,.36-.78.77-1.56,1.31-2.23.92-1.16,1.13-2.59,1.56-3.92.66-2.01,1.11-4.09,1.69-6.13.77-2.69,1.61-5.35,2.35-8.05.7-2.55,1.29-5.13,1.98-7.68.42-1.58.94-3.13,1.38-4.7.7-2.49,1.37-4.99,2.07-7.48.21-.74.5-1.45.71-2.19.48-1.67.49-3.29-.6-4.77,0,0,0,0,0,0-.37-.51-.28-1.21.16-1.65M184.84,30.62c-.77-.03-1.1.22-1.24.74-.54,1.93-1.1,3.86-1.63,5.8-.23.83.22,1.65,1.05,1.91.59.18,1.2.29,1.81.38,1.11.17,2.42-.85,1.95-2.28-.59-1.81-.96-3.7-1.46-5.54-.1-.36-.33-.69-.49-1"/>
    <path class="st0" d="M166.28,74.88c-1.45,0-2.05-.59-2.05-2.01,0-1.3,0-2.6.01-3.9.01-1.3.74-2,2.03-1.98,11.84.14,23.69.29,35.53.43,1.26.02,1.96.69,1.97,1.95.01,1.3,0,2.6-.03,3.9-.04,1.34-.77,2.03-2.12,2.01-5.91-.07-29.47-.41-35.34-.41"/>
  </g>
</svg>