<?xml version="1.0" encoding="UTF-8"?>
<svg id="Layer_2" xmlns="http://www.w3.org/2000/svg" version="1.1" viewBox="0 0 55.16 56.76">
  <!-- Generator: Adobe Illustrator 29.8.1, SVG Export Plug-In . SVG Version: 2.1.1 Build 2)  -->
  <defs>
    <style>
      .st0 {
        fill: #753214;
      }
    </style>
  </defs>
  <path class="st0" d="M44.68,48.29c-1.46-2.03-2.9-4.04-4.38-6.1-3.18,3.15-6.91,5.09-11.4,5.3-.04.18-.08.3-.08.42-.06,1.81-.12,3.62-.17,5.43-.01.51,0,1.01,0,1.52,0,.41-.06.8-.27,1.14-.37.6-.91.83-1.58.74-.62-.08-1.15-.57-1.29-1.2-.06-.28-.05-.57-.04-.86.06-1.21.15-2.42.21-3.63.05-1.03.09-2.06.13-3.09.02-.56.01-.57-.52-.66-2.98-.47-5.74-1.52-8.26-3.25-.1-.07-.21-.12-.35-.19-.35.4-.67.8-1.02,1.17-1.48,1.55-2.96,3.09-4.45,4.63-.16.16-.35.3-.55.41-.68.38-1.46.27-2-.27-.53-.53-.67-1.36-.31-2.05.13-.25.31-.49.51-.68,1.76-1.69,3.53-3.37,5.3-5.05.08-.07.14-.15.24-.26-3.15-3.66-4.06-8.04-3.95-12.81-.44-.1-.86-.02-1.28.11-1.46.47-2.96.81-4.48,1.01-.78.1-1.57.14-2.36.17-.33.01-.67-.05-.98-.15-.77-.26-1.26-.8-1.35-1.64-.09-.82.26-1.45.91-1.88.28-.18.6-.32.92-.39.74-.16,1.49-.31,2.24-.37,1.12-.08,2.25-.07,3.37-.12.49-.02.98-.08,1.46-.15.54-.07,1.07-.18,1.62-.25.35-.04.51-.22.59-.57.31-1.36.79-2.67,1.38-3.92.9-1.9,1.99-3.66,3.34-5.26.09-.11.18-.22.27-.34.03-.04.05-.09.09-.18-.09-.11-.17-.24-.28-.36-1.9-2.12-3.64-4.37-5.3-6.68-.17-.23-.33-.47-.46-.72-.44-.86-.24-1.82.47-2.39.67-.54,1.63-.48,2.32.17.2.19.38.43.53.67.58.93,1.17,1.85,1.7,2.81.72,1.3,1.7,2.39,2.57,3.58.21.29.43.56.68.88.19-.12.35-.21.51-.32,2.72-1.87,5.74-2.87,8.98-3.18.03,0,.07,0,.11,0,.48-.04.5-.06.54-.54.07-.94.12-1.88.2-2.82.12-1.5.26-2.99.4-4.49.03-.28.11-.57.23-.83C29.66.26,30.11,0,30.69,0c.58,0,1.04.27,1.27.81.14.32.22.7.21,1.05-.02,1.09-.09,2.17-.15,3.25-.08,1.28-.17,2.56-.26,3.85-.01.17,0,.35,0,.58,3.82.62,7.04,2.41,9.79,5.21.23-.24.42-.44.61-.65,1.64-1.79,3.27-3.59,4.92-5.38.24-.26.51-.5.81-.69.79-.51,1.72-.39,2.31.28.57.64.62,1.6.07,2.35-.26.36-.57.69-.9.99-1.93,1.74-3.87,3.47-5.81,5.2-.04.04-.07.08-.14.16.36.62.74,1.24,1.08,1.89.34.67.67,1.36.94,2.06.27.69.48,1.4.67,2.12.19.71.31,1.45.47,2.23.18.01.37.04.55.04,1.76-.05,3.51.07,5.26.32.43.06.87.16,1.29.29.26.08.53.21.75.37,1.09.8.97,2.43-.24,3.03-.28.14-.6.22-.91.25-1.7.2-3.4.13-5.1-.07-.38-.04-.77-.11-1.15-.15-.13-.02-.27,0-.47,0-.44,3.73-1.79,7.08-3.94,10.09.1.13.16.23.25.32,2.05,1.99,3.87,4.2,5.73,6.37.38.45.78.89,1.13,1.36.46.62.66,1.31.47,2.09-.34,1.4-1.81,2.12-3.08,1.46-.36-.19-.7-.49-.97-.81-.51-.62-.96-1.29-1.46-1.97ZM24.07,41.77c.21.02.42.05.63.06,2.8.14,5.41-.54,7.8-2.04,3.47-2.18,5.94-5.26,7.5-9.12.43-1.08.7-2.2.78-3.37.3-4.28-2.44-8.27-5.86-9.86-2.42-1.13-4.92-1.25-7.47-.6-3.05.78-5.59,2.48-7.79,4.76-1.26,1.3-2.31,2.72-2.82,4.51-.13.47-.3.93-.42,1.4-.78,3.06-.74,6.07.65,8.95,1.43,2.96,3.64,4.88,7.01,5.32Z"/>
  <path class="st0" d="M23.31,23.19c1.78-1.36,3.75-2.06,5.92-2.08,3.65-.03,6.69,2.15,7.57,5.54.53,2.05.21,4-.77,5.82-1.49,2.76-3.83,4.37-6.8,5.02-2.27.5-4.42.15-6.37-1.15-2.46-1.65-3.5-4.04-3.15-7.02.3-2.57,1.62-4.54,3.6-6.13Z"/>
</svg>