<?xml version="1.0" encoding="UTF-8"?>
<svg id="Layer_2" xmlns="http://www.w3.org/2000/svg" version="1.1" viewBox="0 0 51.72 56.76">
  <!-- Generator: Adobe Illustrator 29.8.1, SVG Export Plug-In . SVG Version: 2.1.1 Build 2)  -->
  <defs>
    <style>
      .st0 {
        fill: #753214;
      }
    </style>
  </defs>
  <path class="st0" d="M43.1,36.01c-.79-.87-1.84-1.34-2.95-1.34s-2.16.48-2.95,1.34l-1.54,1.69c-.61.67-1.53.89-2.33.56-1.94-.79-5.79-2.78-9.85-7.23-4.06-4.45-5.87-8.68-6.59-10.8-.3-.88-.1-1.89.51-2.56l1.54-1.69c.79-.87,1.22-2.02,1.22-3.24s-.43-2.37-1.22-3.24L11.48,1.33C10.19-.09,8.15-.41,6.54.55l-2.75,1.64C1.52,3.54.07,6.13,0,8.95c-.15,6.91,1.37,20.44,13.17,33.38,11.33,12.43,23.24,14.43,29.74,14.43.23,0,.46,0,.67,0,2.59-.06,4.96-1.64,6.2-4.14l1.49-3h0c.88-1.77.58-4-.72-5.42l-7.45-8.18Z"/>
</svg>