<?xml version="1.0" encoding="UTF-8"?>
<svg id="Layer_1" xmlns="http://www.w3.org/2000/svg" version="1.1" viewBox="0 0 448 512">
  <!-- Generator: Adobe Illustrator 29.8.1, SVG Export Plug-In . SVG Version: 2.1.1 Build 2)  -->
  <defs>
    <style>
      .st0 {
        fill: #753214;
      }
    </style>
  </defs>
  <rect class="st0" x="421.66" y="436.55" width="26.34" height="25.66"/>
  <rect class="st0" x="421.66" y="385.19" width="26.34" height="25.68"/>
  <rect class="st0" x="421.66" y="77.02" width="26.34" height="25.66"/>
  <rect class="st0" x="421.66" y="25.67" width="26.34" height="25.68"/>
  <rect class="st0" x="395.31" y="410.87" width="26.35" height="25.68"/>
  <path class="st0" d="M395.31,154.03v-25.67h-26.34v205.49h-26.35v-25.66h-26.35v-154.17h26.35v-25.67h26.35v-25.68h-26.35v-25.66h-52.69v-25.67h26.35v-25.68h-26.35V0h-26.35v25.67h-26.34v25.68h26.34v25.67h-79.17v-25.67h26.48v-25.68h-26.48V0h-26.35v25.67h-26.33v25.68h26.33v25.67h-52.69v25.66h-26.33v25.68h26.33v25.67h26.35v154.17h-26.35v25.66h-26.33v-205.49h-26.35v25.67H0v25.67h52.69v25.67H0v25.67h52.69v25.8H0v25.67h52.69v25.68H0v25.66h52.69v25.69h26.35v25.65h26.33v-25.65h26.35v-25.69h184.55v25.69h26.35v25.65h26.35v-25.65h26.34v-25.69h52.69v-25.66h-52.69v-25.68h52.69v-25.67h-52.69v-25.8h52.69v-25.67h-52.69v-25.67h52.69v-25.67h-52.69ZM131.73,128.36v-25.68h184.55v25.68h-26.35v25.67h-131.87v-25.67h-26.33ZM263.59,308.2h-105.52v-128.5h131.87v128.5h-26.35Z"/>
  <rect class="st0" x="395.31" y="51.34" width="26.35" height="25.67"/>
  <rect class="st0" x="368.97" y="436.55" width="26.34" height="25.66"/>
  <rect class="st0" x="368.97" y="25.67" width="26.34" height="25.68"/>
  <polygon class="st0" points="289.93 385.19 263.59 385.19 237.24 385.19 210.9 385.19 184.42 385.19 158.06 385.19 131.73 385.19 105.37 385.19 105.37 410.87 131.73 410.87 158.06 410.87 184.42 410.87 210.9 410.87 237.24 410.87 263.59 410.87 289.93 410.87 316.28 410.87 342.63 410.87 342.63 385.19 316.28 385.19 289.93 385.19"/>
  <polygon class="st0" points="289.93 436.55 263.59 436.55 263.59 462.21 237.24 462.21 237.24 487.89 263.59 487.89 263.59 513.55 289.93 513.55 289.93 487.89 316.28 487.89 316.28 462.21 289.93 462.21 289.93 436.55"/>
  <rect class="st0" x="237.24" y="231.04" width="26.34" height="25.8"/>
  <rect class="st0" x="210.9" y="256.84" width="26.35" height="25.67"/>
  <rect class="st0" x="210.9" y="205.37" width="26.35" height="25.67"/>
  <rect class="st0" x="184.42" y="231.04" width="26.48" height="25.8"/>
  <polygon class="st0" points="184.42 436.55 158.06 436.55 158.06 462.21 131.73 462.21 131.73 487.89 158.06 487.89 158.06 513.55 184.42 513.55 184.42 487.89 210.9 487.89 210.9 462.21 184.42 462.21 184.42 436.55"/>
  <rect class="st0" x="79.04" y="436.55" width="26.33" height="25.66"/>
  <rect class="st0" x="79.04" y="25.67" width="26.33" height="25.68"/>
  <rect class="st0" x="52.69" y="410.87" width="26.35" height="25.68"/>
  <rect class="st0" x="52.69" y="51.34" width="26.35" height="25.67"/>
  <rect class="st0" x="26.34" y="436.55" width="26.35" height="25.66"/>
  <rect class="st0" x="26.34" y="385.19" width="26.35" height="25.68"/>
  <rect class="st0" x="26.34" y="77.02" width="26.35" height="25.66"/>
  <rect class="st0" x="26.34" y="25.67" width="26.35" height="25.68"/>
</svg>