<?xml version="1.0" encoding="UTF-8"?>
<svg id="Layer_2" xmlns="http://www.w3.org/2000/svg" version="1.1" viewBox="0 0 55.6 56.5">
  <!-- Generator: Adobe Illustrator 29.8.1, SVG Export Plug-In . SVG Version: 2.1.1 Build 2)  -->
  <defs>
    <style>
      .st0 {
        fill: #753214;
      }
    </style>
  </defs>
  <path class="st0" d="M54.31,41.67h0l-1.98-1.14h0c1.89-3.76,2.89-7.94,2.89-12.28s-1-8.51-2.89-12.28c0,0,0,0,0,0l1.98-1.14c.77-.44,1.03-1.43.59-2.2-.44-.77-1.43-1.03-2.2-.59l-1.98,1.14s0,0,0,0c-.73-1.11-1.54-2.17-2.44-3.17l1.62-1.63c.63-.63.63-1.65,0-2.27-.63-.63-1.65-.63-2.27,0l-1.62,1.63c-1-.9-2.06-1.71-3.17-2.44l1.15-1.99c.44-.77.18-1.75-.59-2.19-.77-.44-1.75-.18-2.19.59l-1.15,1.99s0,0,0,0c-3.76-1.88-7.93-2.88-12.26-2.88s-8.5,1-12.26,2.88c0,0,0,0,0,0l-1.15-1.99c-.44-.77-1.43-1.03-2.19-.59-.77.44-1.03,1.43-.59,2.19l1.15,1.99c-1.11.73-2.17,1.54-3.17,2.44l-1.62-1.63c-.63-.63-1.64-.63-2.27,0-.63.63-.63,1.64,0,2.27l1.62,1.63c-.9,1-1.71,2.06-2.44,3.17,0,0,0,0,0,0l-1.98-1.14c-.77-.44-1.75-.18-2.2.59-.44.77-.18,1.75.59,2.2l1.98,1.14h0c-1.89,3.76-2.89,7.94-2.89,12.28s1,8.51,2.89,12.28c0,0,0,0,0,0l-1.98,1.14c-.77.44-1.03,1.43-.59,2.2.3.52.84.8,1.39.8.27,0,.55-.07.8-.22l1.98-1.14s0,0,0,0c.73,1.11,1.54,2.17,2.44,3.17l-1.62,1.63c-.63.63-.63,1.65,0,2.27.31.31.72.47,1.14.47s.82-.16,1.14-.47l1.62-1.63c1,.9,2.06,1.71,3.17,2.44l-1.15,1.99c-.44.77-.18,1.75.59,2.19.25.15.53.22.8.22.56,0,1.1-.29,1.39-.8l1.15-1.99s0,0,0,0c3.76,1.88,7.93,2.88,12.26,2.88s8.5-1,12.26-2.88c0,0,0,0,0,0l1.15,1.99c.3.52.84.8,1.39.8.27,0,.55-.07.8-.22.77-.44,1.03-1.43.59-2.19l-1.15-1.99c1.11-.73,2.17-1.54,3.17-2.44l1.62,1.63c.31.31.73.47,1.14.47s.82-.16,1.14-.47c.63-.63.63-1.64,0-2.27l-1.62-1.63c.9-1,1.71-2.06,2.44-3.17,0,0,0,0,0,0l1.98,1.14c.25.15.53.22.8.22.56,0,1.09-.29,1.39-.8.44-.77.18-1.75-.59-2.19ZM14.1,36.31h-3.22c-.89,0-1.61-.72-1.61-1.61s.72-1.61,1.61-1.61h3.22c.89,0,1.61.72,1.61,1.61s-.72,1.61-1.61,1.61ZM14.1,29.86h-5.64c-.89,0-1.61-.72-1.61-1.61s.72-1.61,1.61-1.61h5.64c.89,0,1.61.72,1.61,1.61s-.72,1.61-1.61,1.61ZM30.06,46.51h-5.86v-5.86h5.86v5.86ZM36.77,19.47c0,3.31-.41,5.72-1.32,7.8h0c-.89,1.94-1.99,3.14-2.95,4.1l-.05.05c-1.39,1.52-2.39,2.61-2.39,6.94v.91h-5.86v-.91c0-2.97.41-5.24,1.28-7.15.81-1.76,1.79-2.83,2.81-3.85l.02-.02c1.51-1.6,2.69-2.86,2.69-7.88v-2.25c0-1.72-1.44-3.12-3.21-3.12s-3.16,1.4-3.16,3.12v4.13h-5.81v-4.13c0-2.38.94-4.63,2.64-6.33s3.95-2.64,6.33-2.64c4.95,0,8.97,4.03,8.97,8.97v2.25ZM44.72,36.31h-3.22c-.89,0-1.61-.72-1.61-1.61s.72-1.61,1.61-1.61h3.22c.89,0,1.61.72,1.61,1.61s-.72,1.61-1.61,1.61ZM47.14,29.86h-5.64c-.89,0-1.61-.72-1.61-1.61s.72-1.61,1.61-1.61h5.64c.89,0,1.61.72,1.61,1.61s-.72,1.61-1.61,1.61Z"/>
</svg>