<?xml version="1.0" encoding="UTF-8"?>
<svg id="Layer_2" xmlns="http://www.w3.org/2000/svg" version="1.1" viewBox="0 0 56.7 56.76">
  <!-- Generator: Adobe Illustrator 29.8.1, SVG Export Plug-In . SVG Version: 2.1.1 Build 2)  -->
  <defs>
    <style>
      .st0 {
        fill: #753214;
      }
    </style>
  </defs>
  <path class="st0" d="M31.53,43.64c-.66.49-1.27.95-1.89,1.41-.56.41-1.14.8-1.67,1.24-1.12.95-2.35,1.74-3.5,2.65-1.04.82-2.1,1.59-3.22,2.3-.52.33-1.06.62-1.58.93-1.17.7-2.37,1.35-3.5,2.14-1.31.91-2.74,1.64-4.09,2.43-.71.03-1.37.11-1.97-.34-.59-.45-.52-1.18-.84-1.81.06-.13.22-.31.21-.49-.02-1.14.47-2.12.87-3.15.54-1.38,1.08-2.76,1.72-4.1-.02-.77.48-1.42.5-2.21.02-.61.32-1.18.47-1.78.2-.82.29-1.68.6-2.48.05-.13-.01-.31.06-.41.42-.61.07-1.07-.29-1.49-.42-.5-.92-.94-1.38-1.4-1.14-1.14-2.26-2.28-3.41-3.4-.9-.87-1.85-1.7-2.77-2.56-.97-.92-1.72-2.04-2.45-3.15-.39-.59-.92-1.04-1.28-1.65-.5-.86-1.25-1.54-1.63-2.5-.36-.9-.42-.88-.42-1.67.22-.32.43-.64.64-.94.69-.35,1.43-.29,2.16-.36,4.2-.41,8.41-.09,12.72-.23.06-.15.15-.36.24-.58.08-.19.11-.41.23-.56.69-.86.97-1.96,1.66-2.82.18-.23.26-.55.4-.82.98-1.93,2.21-3.74,3.09-5.73.2-.46.56-.86.56-1.41,0-.15.13-.31.22-.45.21-.31.62-.45.65-.94.02-.31.27-.61.43-.94-.05-.08-.11-.16-.22-.31.1-.04.19-.08.39-.17.55-1.41,1.29-2.85,1.82-4.38.38-1.11,1.27-1.69,2.44-1.44,1.31.96,1.88,2.37,2.56,3.69.81,1.56,1.54,3.17,2.44,4.68.57.97,1.12,1.95,1.71,2.91.38.63.58,1.36.9,2.03.32.68.38,1.45.66,2.13.18.44.26.86.17,1.37-.18.11-.38.23-.6.36.04.03.08.09.13.1.51.13.96-.15,1.44-.22.45-.06.89.11,1.36-.16.36-.21.86-.12,1.31-.24.95-.25,1.97-.26,2.89-.69,1.3.02,2.53-.42,3.77-.71,1.42-.33,2.89-.5,4.29-.99.43-.15.94-.22,1.42-.26.56-.04,1.06-.29,1.6-.38.6-.09,1.22-.07,1.77-.1.29.19.53.33.74.51.46.41.61.96.5,1.53-.08.39-.22.8-.44,1.13-.99,1.49-2,2.98-3.04,4.44-.48.68-.94,1.42-1.38,2.15-1.04,1.72-1.82,3.56-2.78,5.31-.72,1.31-1.52,2.57-2.22,3.89-.21.39-.71.6-.92,1.13.26.04.45.07.67.1,0,.05,0,.11-.02.15-.2.46-.64.86-.19,1.43.11.14.05.42.05.63-.03,1.02.34,1.98.52,2.96.1.57.35,1.11.37,1.71.02.45.09.9.22,1.33.36,1.23.28,2.52.47,3.75.28,1.81.1,3.6.16,5.39.04,1.21-.65,1.87-1.87,1.88-.14,0-.29,0-.28,0-1.74-.72-3.05-1.9-4.63-2.65-1.26-.6-2.45-1.37-3.58-2.18-.92-.67-1.7-1.54-2.56-2.29-.77-.67-1.57-1.31-2.37-1.93-.33-.26-.71-.44-1.2-.34Z"/>
</svg>