<?xml version="1.0" encoding="UTF-8"?>
<svg id="Layer_1" xmlns="http://www.w3.org/2000/svg" version="1.1" viewBox="0 0 576 512">
  <!-- Generator: Adobe Illustrator 29.8.1, SVG Export Plug-In . SVG Version: 2.1.1 Build 2)  -->
  <defs>
    <style>
      .st0 {
        fill: #753214;
      }
    </style>
  </defs>
  <path class="st0" d="M575.01,245.8l-69.09-197.05C495.54,19.13,468.93,0,438.13,0H137.82c-30.8,0-57.42,19.14-67.79,48.76L.99,245.8c-2.02,5.75-.9,12.16,2.94,16.85,3.83,4.7,9.89,6.96,15.72,5.95,5.92-1,11.77-2.24,17.49-3.52v231.23c0,9.52,7.56,17.23,16.87,17.23h468c9.32,0,16.87-7.72,16.87-17.23v-231.23c5.72,1.28,11.57,2.52,17.49,3.52,5.91,1,11.88-1.27,15.72-5.96,3.84-4.69,4.95-11.1,2.93-16.85h0ZM84.66,257.35c9.37,0,19.29,2.54,29.79,5.23,24.8,7.07,44.73,8.6,70.06,1.5v43.82h-113.62v-49.58c4.64-.6,9.23-.97,13.78-.97ZM70.88,342.37h113.62v51.7h-113.62v-51.7ZM218.25,479.08v-221.67c10.28-.43,20.46,2.32,31.76,5.16,28.38,8.15,47.61,8.15,75.99,0,11.3-2.85,21.47-5.59,31.76-5.16v221.67h-139.5ZM391.5,342.37h113.62v50.51h-113.62v-50.51ZM505.12,307.9h-113.62v-43.82c25.35,7.1,45.25,5.57,70.05-1.5,15.54-4.26,28.52-6.66,43.57-4.26v49.58ZM70.88,428.53h113.62v50.55h-113.62v-50.55ZM505.12,479.08h-113.62v-50.55h113.62v50.55Z"/>
</svg>