<?xml version="1.0" encoding="UTF-8"?>
<svg id="Layer_2" xmlns="http://www.w3.org/2000/svg" version="1.1" viewBox="0 0 311.37 63.98">
  <!-- Generator: Adobe Illustrator 29.8.1, SVG Export Plug-In . SVG Version: 2.1.1 Build 2)  -->
  <defs>
    <style>
      .st0 {
        fill: #f9f7f2;
      }
    </style>
  </defs>
  <path class="st0" d="M62.85,14.22c-10.5-5.84-20.83-2.96-30.83-.18-9.62,2.68-18.7,5.2-27.73.18-.64-.35-1.41-.35-2.04.02-.63.37-1.01,1.04-1.01,1.77v31.94c0,.75.4,1.43,1.06,1.8,4.49,2.5,8.94,3.4,13.35,3.4,5.91,0,11.75-1.62,17.47-3.22,9.62-2.68,18.7-5.2,27.73-.18.64.35,1.41.34,2.04-.02.63-.37,1.01-1.04,1.01-1.77v-31.94c0-.75-.4-1.43-1.06-1.8ZM5.35,19.28c1.41.57,2.81.99,4.21,1.3v27.71c-1.41-.37-2.81-.88-4.21-1.57,0,0,0-27.44,0-27.44ZM13.68,48.97v-27.81c1.18.08,2.36.08,3.54.03l-.72.72c-.8.8-.8,2.1,0,2.91l2.86,2.86-2.86,2.86c-.8.8-.8,2.1,0,2.91l2.86,2.86-2.86,2.86c-.8.8-.8,2.1,0,2.91l2.86,2.86-2.86,2.86c-.33.33-.54.77-.59,1.23-.75,0-1.49-.02-2.23-.07ZM32.02,45.98c-3.53.98-7,1.95-10.41,2.52l2.1-2.1c.8-.8.8-2.1,0-2.91l-2.86-2.86,2.86-2.86c.8-.8.8-2.1,0-2.91l-2.86-2.86,2.86-2.86c.8-.8.8-2.1,0-2.91l-2.86-2.86,2.86-2.86-.11-.11c3.2-.62,6.38-1.5,9.52-2.38,3.53-.98,7-1.95,10.41-2.52l-2.1,2.1c-.8.8-.8,2.1,0,2.91l2.86,2.86-2.86,2.86c-.8.8-.8,2.1,0,2.91l2.86,2.86-2.86,2.86c-.8.8-.8,2.1,0,2.91l2.86,2.86-2.86,2.86.11.11c-3.2.62-6.38,1.5-9.52,2.38ZM47.93,42.8l.72-.72c.8-.8.8-2.1,0-2.91l-2.86-2.86,2.86-2.86c.8-.8.8-2.1,0-2.91l-2.86-2.86,2.86-2.86c.8-.8.8-2.1,0-2.91l-2.86-2.86,2.86-2.86c.33-.33.54-.77.59-1.23.74,0,1.49.02,2.23.07v27.81c-1.18-.08-2.36-.08-3.54-.03ZM59.8,44.7c-1.41-.57-2.81-.99-4.21-1.3V15.69c1.41.37,2.81.88,4.21,1.57v27.44Z"/>
</svg>