<?xml version="1.0" encoding="UTF-8"?>
<svg id="Layer_2" xmlns="http://www.w3.org/2000/svg" version="1.1" viewBox="0 0 76.9 65.55">
  <!-- Generator: Adobe Illustrator 29.8.1, SVG Export Plug-In . SVG Version: 2.1.1 Build 2)  -->
  <defs>
    <style>
      .st0 {
        fill: #753214;
      }

      .st1 {
        fill: #fff;
      }
    </style>
  </defs>
  <path class="st0" d="M27.11,64.12c2.05-.15,4.24-.23,6.41-.47,4.87-.54,9.59-1.62,13.96-3.96,1.18-.63,2.3-1.35,3.22-2.31.52-.55.98-1.18,1.36-1.84.37-.64.82-1,1.55-1.15.71-.14,1.42-.39,2.09-.68.98-.42,1.7-1.17,2.23-2.08.22-.38.43-.78.59-1.19.58-1.46,1.63-2.52,2.91-3.36,1.61-1.04,3.24-2.05,4.87-3.04,3.45-2.1,6.24-4.85,8.17-8.41,1.94-3.58,2.58-7.41,1.53-11.39-.74-2.81-2.22-5.17-4.66-6.89-2.52-1.77-5.18-1.96-7.97-.82-2.04.83-3.86,2.01-5.43,3.58-.77.77-1.6,1.48-2.42,2.21-.17.16-.38.29-.58.41-.97.56-1.73.24-1.99-.85-.07-.28-.05-.58-.06-.88-.12-3.24-.21-6.49-.38-9.73-.11-1.97-1.15-3.51-2.64-4.72-1.89-1.53-4.12-2.4-6.44-3.03-3.59-.98-7.26-1.58-10.98-1.83-2.65-.18-5.31-.33-7.96-.29-5.39.09-10.7.78-15.89,2.28-1.63.48-3.28.94-4.73,1.91-1.17.79-2.11,1.76-2.93,2.91C.19,9.59-.03,10.73,0,11.95c.04,1.53.14,3.06.21,4.6.09,2,.18,4.01.27,6.01.15,3.27.3,6.54.45,9.81.09,2.15.17,4.3.25,6.45.1,2.51.22,5.01.31,7.52.04.94.03,1.89.04,2.83.02.85,0,1.71.08,2.56.04.52.3,1.03.32,1.55.06,1.36.81,2.43,1.49,3.5.73,1.16,1.73,2.09,2.92,2.79,2.49,1.45,5.11,2.55,7.93,3.19,3.73.84,7.48,1.4,11.31,1.36.47,0,.94,0,1.54,0ZM50.76,14.39c.09,1.89.16,3.63.27,5.36.12,1.96.03,2.13-1.82,2.96-.05.02-.1.07-.15.09-1.53.5-3.05,1.04-4.6,1.48-3.05.86-6.15,1.52-9.3,1.92-1.31.17-2.63.33-3.95.35-4.01.06-8.02.02-12.02-.31-1.85-.15-3.7-.27-5.54-.52-3.75-.51-7.35-1.48-10.82-3.01-.65-.29-.95-.65-.97-1.36-.04-1.47-.16-2.94-.22-4.41-.03-.71,0-1.43,0-2.16.09.05.16.09.23.14,2.16,1.78,4.64,2.87,7.38,3.32,2.35.39,4.71.76,7.08.99,2.7.26,5.41.41,8.12.48,2.12.05,4.24-.1,6.37-.14,4.46-.09,8.85-.69,13.16-1.85,1.94-.52,3.81-1.21,5.49-2.34.41-.28.79-.59,1.3-.98ZM2.57,34.77c.21.08.37.14.53.2,1.02.44,2.04.9,3.07,1.32,3.26,1.33,6.71,1.93,10.16,2.49,2.42.39,4.85.62,7.3.66,1.83.03,3.64.1,5.47-.04,3.86-.29,7.66-.9,11.47-1.56,3.18-.55,6.18-1.63,8.95-3.3.61-.37,1.26-.66,2.03-1.06,0,1.38,0,2.59,0,3.8,0,.44-.17.81-.52,1.08-.61.46-1.2.94-1.84,1.35-2.17,1.38-4.56,2.29-6.96,3.16-3.27,1.17-6.66,1.82-10.08,2.33-2.56.38-5.13.68-7.72.69-2.27,0-4.54-.08-6.79-.41-2.68-.39-5.29-1.05-7.84-1.95-2.28-.8-4.46-1.8-6.4-3.28-.51-.39-.79-.82-.75-1.49.03-.53-.06-1.06-.07-1.59-.01-.78,0-1.57,0-2.41ZM52.99,27.87c.21.06.43.12.65.18,1.06.29,2.09.24,3.13-.14,1.23-.45,2.21-1.22,3-2.25,1.04-1.35,2.31-2.45,3.86-3.17,1.09-.51,2.23-.82,3.43-.43,1.35.44,2.43,1.26,3,2.57.94,2.13,1.16,4.31.34,6.54-1.15,3.12-3.33,5.42-5.94,7.31-1.69,1.23-3.55,2.21-5.34,3.3-1.83,1.11-3.32,2.54-4.3,4.47-.24.47-.49.95-.79,1.38-.32.44-.71.83-1.08,1.25-.06-.03-.12-.06-.19-.09-.03-2.32.18-4.63.21-6.95.03-2.33.02-4.66.02-6.99,0-2.32,0-4.64,0-6.98ZM3.02,45.43c.18.11.38.21.56.34,1.81,1.23,3.76,2.19,5.83,2.87,4.05,1.33,8.24,1.96,12.48,2.17,1.97.1,3.95-.02,5.92-.08,4.29-.14,8.47-.9,12.57-2.18,3.71-1.16,7.17-2.78,10.26-5.15.12-.09.29-.13.56-.25,0,1.82-.03,3.53.01,5.24.01.55-.2.85-.64,1.13-3.18,2.1-6.69,3.4-10.4,4.14-2.76.55-5.54,1.03-8.33,1.46-1.63.25-3.27.39-4.92.48-3.63.2-7.24-.08-10.82-.67-2.64-.44-5.24-1-7.75-1.97-1.57-.6-3.05-1.36-4.45-2.28-.43-.29-.86-.61-.88-1.14-.04-1.35-.01-2.7-.01-4.1ZM27.31,2.87c.77.04,1.53.09,2.3.13,4.72.23,9.38.84,13.93,2.14,1.82.52,3.51,1.31,5.1,2.36,1.59,1.05,2.06,2.57,1.96,4.34-.02.35-.25.72-.47,1.01-.25.32-.58.58-.9.84-1.68,1.36-3.67,2.07-5.73,2.6-3.22.83-6.46,1.51-9.8,1.63-2.24.08-4.47.27-6.71.3-2.06.03-4.13-.08-6.19-.15-1.29-.05-2.59-.08-3.88-.22-2.16-.24-4.32-.54-6.47-.86-2.05-.3-4-.92-5.82-1.93-.85-.48-1.68-.99-2.27-1.79-.82-1.11-1.1-2.29-.34-3.53.41-.67.85-1.37,1.43-1.89,1.53-1.38,3.36-2.33,5.31-2.85,2.43-.65,4.94-1.08,7.43-1.42,3.68-.5,7.39-.79,11.12-.69ZM51.2,50.87c0,.53.02,1.03-.01,1.53-.01.17-.13.39-.26.5-.8.59-1.59,1.21-2.45,1.72-2.52,1.48-5.24,2.48-8.05,3.25-3.1.85-6.24,1.53-9.44,1.62-4.74.13-9.48.18-14.19-.64-2.81-.49-5.58-1.1-8.25-2.15-1.54-.61-2.96-1.42-4.33-2.32-.82-.53-1.04-1.32-.96-2.33.36.21.64.37.91.53,1.86,1.08,3.83,1.91,5.89,2.52,2.74.81,5.55,1.26,8.38,1.65,5.08.7,10.12.36,15.16-.32,2.09-.28,4.17-.72,6.24-1.15,2.44-.51,4.85-1.17,7.12-2.22,1.4-.65,2.76-1.4,4.26-2.18ZM43.52,35.42c-2.39.9-4.82,1.28-7.28,1.61.87-2.99,1.73-5.91,2.62-8.96,1.89,2.3,3.07,4.9,4.66,7.35ZM21.18,29.43c1.44,2.84,2.41,5.67,3.4,8.59-2.39-.15-4.65-.06-7-.6,1.23-2.6,1.81-5.45,3.6-7.99ZM25.8,36.86c-1.19-3.06-2.07-6.16-3.85-8.96,2.57.07,5.04.13,7.53.2-1.68,2.77-2.21,5.93-3.69,8.76ZM30.25,29.58c1.7,2.53,2.67,5.19,4.01,7.77-2.47.4-4.83.51-7.26.75,1.09-2.87,2.13-5.6,3.24-8.52ZM16.53,36.09c-1-3.14-2-6.05-3.37-8.85,2.47.2,4.89.4,7.4.61-2.09,2.37-2.76,5.35-4.02,8.25ZM30.99,28.12c2.19-.24,4.27-.47,6.4-.7-.61,2.78-1.4,5.41-2.32,8.18-1.33-2.63-2.29-5.23-4.08-7.48ZM5.55,25.45c1.89.49,3.74.96,5.58,1.44-.26,1.38-1.92,6.77-2.47,7.42-1.03-2.93-2.05-5.84-3.11-8.86ZM46.15,25.33c-.69,2.75-1.19,5.43-2.02,8.13-1.42-2.25-2.77-4.39-4.14-6.56,1.99-.51,3.99-1.01,6.16-1.57ZM9.8,35.92c.82-2.36,1.62-4.66,2.47-7.11,1.2,2.76,2.2,5.4,2.94,8.27-1.93-.3-3.72-.63-5.41-1.16ZM60.9,22.42c-1,.78-1.79,1.87-2.69,2.87-.99,1.1-2.26,1.77-3.83,1.49-1.44-.25-1.9-1.21-1.2-2.54,1.1.42,2.06.06,2.95-.6.47-.35.92-.73,1.36-1.12.72-.64,1.42-1.29,2.04-1.86.47.6.91,1.16,1.38,1.75ZM47.43,26.36c.11.05.15.06.16.08.85,1.73,1.7,3.46,2.53,5.2.06.13-.03.41-.14.54-.19.22-.43.41-.68.55-1.13.63-2.27,1.23-3.41,1.84-.14.07-.3.1-.49.16.69-2.83,1.35-5.57,2.03-8.37ZM63.98,40.89s-.07-.09-.1-.13c.21-.15.42-.3.63-.45,2.38-1.63,4.44-3.58,6.01-6.02,1.61-2.5,2.22-5.2,1.61-8.15-.46-2.21-1.5-3.99-3.58-5.05-.91-.46-.97-.62-.76-1.81.93.56,1.77,1.2,2.45,2,2.07,2.42,3.02,5.22,2.75,8.4-.13,1.53-.46,3.02-1.4,4.3-.82,1.11-1.64,2.22-2.44,3.35-.66.93-1.53,1.63-2.51,2.19-.86.49-1.77.91-2.65,1.37ZM4.51,27.08c1.07,2.64,1.94,5.27,2.66,7.98-1.46-.57-2.85-1.18-4.21-1.85-.67-.33-.67-.58-.31-1.27.16-.31.27-.65.37-.98.37-1.32.81-2.62,1.49-3.89ZM58.49,47.31c0,.19.02.26,0,.3-.56,1.02-1.13,2.05-1.7,3.07-.87,1.55-2.26,2.2-4,2.33,0-.72-.03-1.36.02-2,.01-.19.18-.44.35-.53,1.31-.75,2.14-1.9,2.82-3.2.2-.38.42-.75.66-1.18.59.54.94,1.3,1.86,1.21ZM68.39,17.98c.53-.25.54-.27.92-.07,1.42.76,2.67,1.73,3.57,3.08,2.31,3.51,2.65,7.27,1.41,11.23-1.35,4.31-4.27,7.39-7.8,9.99-.63.46-.67.42-1.37-.18.04-.05.06-.11.11-.14.21-.1.43-.19.64-.29,1.65-.81,3.21-1.75,4.35-3.24.72-.94,1.42-1.88,2.14-2.82,2.13-2.78,2.43-5.95,1.89-9.25-.47-2.9-2.02-5.23-4.25-7.11-.49-.41-1.03-.78-1.61-1.21ZM51.19,23.29c.06,2.08.14,4.1.18,6.13,0,.3-.13.6-.24,1.06-1.03-2.05-1.66-4.09-3.03-5.82,1.07-.48,2.04-.91,3.09-1.37ZM62.58,44.49c-.36-.16-.71-.32-1.05-.48-.44-.21-.65-.6-.73-1.05-.03-.16.06-.44.18-.53.51-.34,1.05-.62,1.51-.88.64.68,1.22,1.28,1.82,1.92-.58.33-1.15.67-1.74,1.01ZM59.47,43.29c.21,1.05.86,1.66,1.68,2.13-.67.55-1.39.7-2.12.83-.62.11-.82-.37-1.05-.76-.24-.4-.2-.8.16-1.12.39-.35.81-.66,1.32-1.08ZM63.78,20.82c-.47.07-1.01.21-1.54.21-.34,0-.84-.11-.99-.35-.15-.25-.04-.73.09-1.06.09-.25.36-.46.6-.61.36-.22.76-.38,1.14-.56.23.77.44,1.48.7,2.37ZM1.93,23.94c.83.35,1.5.63,2.27.95-1.1.97-1.31,2.33-2.03,3.57-.08-1.54-.16-2.94-.24-4.52ZM66.94,17.37c-.8.99-.64,2.02-.67,2.99-1.04-.06-1.68-.75-1.69-1.74-.01-.81.42-1.18,1.47-1.25.23-.02.46,0,.89,0Z"/>
  <path class="st1" d="M3.02,45.43c0,1.4-.03,2.75.01,4.1.02.54.44.86.88,1.14,1.4.93,2.89,1.68,4.45,2.28,2.51.97,5.11,1.53,7.75,1.97,3.59.6,7.19.87,10.82.67,1.64-.09,3.29-.23,4.92-.48,2.79-.43,5.57-.9,8.33-1.46,3.71-.74,7.22-2.05,10.4-4.14.44-.29.65-.59.64-1.13-.04-1.71-.01-3.42-.01-5.24-.27.12-.44.16-.56.25-3.09,2.37-6.56,3.99-10.26,5.15-4.1,1.28-8.28,2.03-12.57,2.18-1.97.07-3.95.18-5.92.08-4.24-.21-8.43-.85-12.48-2.17-2.07-.68-4.02-1.65-5.83-2.87-.19-.13-.39-.23-.56-.34Z"/>
  <path class="st1" d="M51.2,50.87c-1.5.77-2.86,1.53-4.26,2.18-2.27,1.05-4.68,1.71-7.12,2.22-2.07.43-4.15.87-6.24,1.15-5.03.68-10.08,1.02-15.16.32-2.83-.39-5.64-.83-8.38-1.65-2.06-.61-4.03-1.44-5.89-2.52-.28-.16-.55-.32-.91-.53-.07,1.01.15,1.79.96,2.33,1.38.9,2.8,1.72,4.33,2.32,2.66,1.05,5.43,1.66,8.25,2.15,4.71.82,9.45.77,14.19.64,3.2-.09,6.35-.78,9.44-1.62,2.81-.77,5.53-1.77,8.05-3.25.86-.5,1.65-1.12,2.45-1.72.14-.1.25-.32.26-.5.04-.5.01-1,.01-1.53Z"/>
  <path class="st1" d="M43.52,35.42c-1.6-2.45-2.77-5.05-4.66-7.35-.89,3.04-1.74,5.97-2.62,8.96,2.46-.32,4.89-.71,7.28-1.61Z"/>
  <path class="st1" d="M21.18,29.43c-1.78,2.54-2.37,5.39-3.6,7.99,2.35.54,4.61.46,7,.6-.99-2.92-1.97-5.75-3.4-8.59Z"/>
  <path class="st1" d="M25.8,36.86c1.47-2.84,2.01-6,3.69-8.76-2.49-.06-4.96-.13-7.53-.2,1.78,2.8,2.65,5.9,3.85,8.96Z"/>
  <path class="st1" d="M30.25,29.58c-1.11,2.93-2.15,5.66-3.24,8.52,2.43-.24,4.79-.35,7.26-.75-1.34-2.58-2.31-5.24-4.01-7.77Z"/>
  <path class="st1" d="M16.53,36.09c1.26-2.89,1.93-5.88,4.02-8.25-2.5-.21-4.92-.4-7.4-.61,1.38,2.8,2.37,5.71,3.37,8.85Z"/>
  <path class="st1" d="M30.99,28.12c1.79,2.25,2.75,4.85,4.08,7.48.92-2.77,1.71-5.4,2.32-8.18-2.13.23-4.21.46-6.4.7Z"/>
  <path class="st1" d="M5.55,25.45c1.06,3.01,2.08,5.93,3.11,8.86.56-.65,2.21-6.04,2.47-7.42-1.85-.48-3.7-.95-5.58-1.44Z"/>
  <path class="st1" d="M46.15,25.33c-2.17.55-4.17,1.06-6.16,1.57,1.37,2.17,2.72,4.31,4.14,6.56.82-2.7,1.33-5.38,2.02-8.13Z"/>
  <path class="st1" d="M9.8,35.92c1.69.53,3.48.86,5.41,1.16-.74-2.86-1.74-5.51-2.94-8.27-.85,2.45-1.65,4.75-2.47,7.11Z"/>
  <path class="st1" d="M60.9,22.42c-.47-.6-.91-1.16-1.38-1.75-.62.56-1.32,1.22-2.04,1.86-.44.39-.89.77-1.36,1.12-.89.66-1.85,1.02-2.95.6-.7,1.33-.23,2.29,1.2,2.54,1.57.27,2.84-.39,3.83-1.49.9-1,1.69-2.09,2.69-2.87Z"/>
  <path class="st1" d="M47.43,26.36c-.68,2.79-1.34,5.54-2.03,8.37.19-.06.35-.09.49-.16,1.14-.61,2.28-1.21,3.41-1.84.25-.14.49-.33.68-.55.11-.13.2-.4.14-.54-.83-1.74-1.68-3.47-2.53-5.2-.01-.02-.05-.03-.16-.08Z"/>
  <path class="st1" d="M63.98,40.89c.89-.45,1.79-.87,2.65-1.37.98-.56,1.84-1.26,2.51-2.19.8-1.12,1.63-2.24,2.44-3.35.94-1.28,1.27-2.76,1.4-4.3.27-3.18-.68-5.99-2.75-8.4-.68-.8-1.52-1.44-2.45-2-.21,1.19-.15,1.35.76,1.81,2.09,1.05,3.12,2.83,3.58,5.05.61,2.95,0,5.65-1.61,8.15-1.57,2.44-3.63,4.39-6.01,6.02-.21.15-.42.3-.63.45.03.04.07.09.1.13Z"/>
  <path class="st1" d="M4.51,27.08c-.68,1.27-1.12,2.56-1.49,3.89-.09.34-.2.68-.37.98-.37.69-.36.94.31,1.27,1.36.67,2.75,1.28,4.21,1.85-.72-2.71-1.6-5.34-2.66-7.98Z"/>
  <path class="st1" d="M58.49,47.31c-.92.09-1.26-.66-1.86-1.21-.24.43-.46.8-.66,1.18-.68,1.3-1.51,2.45-2.82,3.2-.17.1-.34.34-.35.53-.04.64-.02,1.28-.02,2,1.74-.13,3.13-.79,4-2.33.58-1.02,1.14-2.04,1.7-3.07.02-.04,0-.11,0-.3Z"/>
  <path class="st1" d="M68.39,17.98c.58.44,1.12.8,1.61,1.21,2.23,1.88,3.77,4.21,4.25,7.11.54,3.3.24,6.47-1.89,9.25-.72.94-1.42,1.88-2.14,2.82-1.14,1.49-2.7,2.43-4.35,3.24-.21.1-.43.19-.64.29-.05.02-.07.09-.11.14.71.6.74.64,1.37.18,3.53-2.6,6.45-5.68,7.8-9.99,1.24-3.96.9-7.72-1.41-11.23-.89-1.36-2.14-2.33-3.57-3.08-.38-.2-.39-.18-.92.07Z"/>
  <path class="st1" d="M51.19,23.29c-1.05.46-2.02.9-3.09,1.37,1.36,1.72,2,3.77,3.03,5.82.11-.47.25-.76.24-1.06-.04-2.02-.12-4.04-.18-6.13Z"/>
  <path class="st1" d="M62.58,44.49c.59-.34,1.16-.68,1.74-1.01-.6-.64-1.18-1.24-1.82-1.92-.46.26-1,.54-1.51.88-.13.08-.21.36-.18.53.08.44.29.84.73,1.05.34.16.69.32,1.05.48Z"/>
  <path class="st1" d="M59.47,43.29c-.51.42-.93.73-1.32,1.08-.36.32-.4.72-.16,1.12.23.39.44.87,1.05.76.72-.13,1.44-.27,2.12-.83-.82-.47-1.47-1.08-1.68-2.13Z"/>
  <path class="st1" d="M63.78,20.82c-.26-.89-.48-1.6-.7-2.37-.38.18-.78.34-1.14.56-.24.15-.51.36-.6.61-.12.33-.24.81-.09,1.06.15.24.65.35.99.35.53,0,1.07-.14,1.54-.21Z"/>
  <path class="st1" d="M1.93,23.94c.08,1.58.16,2.97.24,4.52.72-1.24.93-2.6,2.03-3.57-.77-.32-1.45-.6-2.27-.95Z"/>
  <path class="st1" d="M66.94,17.37c-.43,0-.66-.01-.89,0-1.06.07-1.49.44-1.47,1.25.02.99.65,1.68,1.69,1.74.03-.98-.13-2.01.67-2.99Z"/>
  <path class="st0" d="M2.02,9.73c.41-.67.85-1.37,1.43-1.89,1.53-1.38,3.36-2.33,5.31-2.85,2.43-.65,4.94-1.08,7.43-1.42,3.68-.5,7.39-.79,11.12-.69.77.04,1.53.09,2.3.13,4.72.23,9.38.84,13.93,2.14,1.82.52,3.51,1.31,5.1,2.36,1.59,1.05,2.06,2.57,1.96,4.34-.02.35-.25.72-.47,1.01-.25.32-.58.58-.9.84-1.68,1.36-3.67,2.07-5.73,2.6-3.22.83-6.46,1.51-9.8,1.63-2.24.08-4.47.27-6.71.3-2.06.03-4.13-.08-6.19-.15-1.29-.05-2.59-.08-3.88-.22-2.16-.24-4.32-.54-6.47-.86-2.05-.3-4-.92-5.82-1.93-.85-.48-1.68-.99-2.27-1.79-.82-1.11-1.1-2.29-.34-3.53Z"/>
</svg>