<?xml version="1.0" encoding="UTF-8"?>
<svg id="Layer_2" xmlns="http://www.w3.org/2000/svg" version="1.1" viewBox="0 0 45.9 50.31">
  <!-- Generator: Adobe Illustrator 29.8.1, SVG Export Plug-In . SVG Version: 2.1.1 Build 2)  -->
  <defs>
    <style>
      .st0 {
        fill: #753214;
      }
    </style>
  </defs>
  <path class="st0" d="M33.51,22.84c-1.28,0-2.32,1.04-2.32,2.32s1.04,2.32,2.32,2.32,2.32-1.04,2.32-2.32-1.04-2.32-2.32-2.32Z"/>
  <path class="st0" d="M22.95,22.84c-1.28,0-2.32,1.04-2.32,2.32s1.04,2.32,2.32,2.32,2.32-1.04,2.32-2.32-1.04-2.32-2.32-2.32Z"/>
  <path class="st0" d="M39.15,10.89c-4.33-3.79-10.09-5.88-16.2-5.88s-11.87,2.09-16.2,5.88C2.4,14.7,0,19.76,0,25.15,0,29.26,1.4,33.21,4.04,36.57c-.5,2.13-.86,4.32-1.06,6.48-.04.42.13.83.45,1.1.32.27.75.37,1.15.26l6.84-1.84c3.49,1.78,7.47,2.72,11.53,2.72,6.12,0,11.87-2.09,16.2-5.88,4.35-3.81,6.74-8.87,6.74-14.26s-2.4-10.46-6.74-14.26ZM12.39,28.45c-1.82,0-3.3-1.48-3.3-3.3s1.48-3.3,3.3-3.3,3.3,1.48,3.3,3.3-1.48,3.3-3.3,3.3ZM22.95,28.45c-1.82,0-3.3-1.48-3.3-3.3s1.48-3.3,3.3-3.3,3.3,1.48,3.3,3.3-1.48,3.3-3.3,3.3ZM33.51,28.45c-1.82,0-3.3-1.48-3.3-3.3s1.48-3.3,3.3-3.3,3.3,1.48,3.3,3.3-1.48,3.3-3.3,3.3Z"/>
  <path class="st0" d="M12.39,22.84c-1.28,0-2.32,1.04-2.32,2.32s1.04,2.32,2.32,2.32,2.32-1.04,2.32-2.32-1.04-2.32-2.32-2.32Z"/>
</svg>