<?xml version="1.0" encoding="UTF-8"?>
<svg id="Layer_2" data-name="Layer 2" xmlns="http://www.w3.org/2000/svg" xmlns:xlink="http://www.w3.org/1999/xlink" viewBox="0 0 1080 768.69">
  <defs>
    <style>
      .cls-1 {
        clip-path: url(#clippath-21);
      }

      .cls-2 {
        clip-path: url(#clippath-6);
      }

      .cls-3 {
        clip-path: url(#clippath-7);
      }

      .cls-4 {
        clip-path: url(#clippath-17);
      }

      .cls-5 {
        clip-path: url(#clippath-15);
      }

      .cls-6 {
        clip-path: url(#clippath-18);
      }

      .cls-7 {
        clip-path: url(#clippath-4);
      }

      .cls-8 {
        clip-path: url(#clippath-22);
      }

      .cls-9 {
        clip-path: url(#clippath-23);
      }

      .cls-10 {
        opacity: .07;
      }

      .cls-11 {
        clip-path: url(#clippath-9);
      }

      .cls-12 {
        clip-path: url(#clippath-10);
      }

      .cls-13 {
        clip-path: url(#clippath-25);
      }

      .cls-14 {
        clip-path: url(#clippath-11);
      }

      .cls-15 {
        fill: #FAFAF7;
      }

      .cls-16 {
        clip-path: url(#clippath-1);
      }

      .cls-17 {
        clip-path: url(#clippath-5);
      }

      .cls-18 {
        clip-path: url(#clippath-20);
      }

      .cls-19 {
        clip-path: url(#clippath-8);
      }

      .cls-20 {
        clip-path: url(#clippath-3);
      }

      .cls-21 {
        clip-path: url(#clippath-26);
      }

      .cls-22 {
        clip-path: url(#clippath-12);
      }

      .cls-23 {
        clip-path: url(#clippath-14);
      }

      .cls-24 {
        clip-path: url(#clippath-19);
      }

      .cls-25 {
        fill: #FAFAF7;
      }

      .cls-26 {
        clip-path: url(#clippath-16);
      }

      .cls-27 {
        clip-path: url(#clippath-2);
      }

      .cls-28 {
        clip-path: url(#clippath-13);
      }

      .cls-29 {
        clip-path: url(#clippath-24);
      }

      .cls-30 {
        clip-path: url(#clippath);
      }
    </style>
    <clipPath id="clippath">
      <rect class="cls-15" y="156.24" width="158.18" height="156.26"/>
    </clipPath>
    <clipPath id="clippath-1">
      <rect class="cls-15" x="948.92" y="639.65" width="131.08" height="126.16"/>
    </clipPath>
    <clipPath id="clippath-2">
      <rect class="cls-15" x="158.18" y="157.47" width="161.27" height="153.81"/>
    </clipPath>
    <clipPath id="clippath-3">
      <rect class="cls-15" x="158.19" y="5.99" width="158.19" height="152.25"/>
    </clipPath>
    <clipPath id="clippath-4">
      <rect class="cls-15" x="314.35" y="158.25" width="158.18" height="152.25"/>
    </clipPath>
    <clipPath id="clippath-5">
      <rect class="cls-15" x="472.53" y="159.93" width="158.19" height="156.26"/>
    </clipPath>
    <clipPath id="clippath-6">
      <rect class="cls-15" x="312.33" y="5.69" width="158.18" height="152.24"/>
    </clipPath>
    <clipPath id="clippath-7">
      <rect class="cls-15" x="630.71" y="161.16" width="161.27" height="153.81"/>
    </clipPath>
    <clipPath id="clippath-8">
      <rect class="cls-15" x="630.71" y="9.68" width="158.18" height="152.25"/>
    </clipPath>
    <clipPath id="clippath-9">
      <rect class="cls-15" x="786.87" y="10.03" width="158.18" height="152.24"/>
    </clipPath>
    <clipPath id="clippath-10">
      <rect class="cls-15" x="786.87" y="161.94" width="158.18" height="152.25"/>
    </clipPath>
    <clipPath id="clippath-11">
      <rect class="cls-15" y="608.75" width="158.18" height="156.26"/>
    </clipPath>
    <clipPath id="clippath-12">
      <rect class="cls-15" x="314.35" y="307.53" width="158.18" height="156.26"/>
    </clipPath>
    <clipPath id="clippath-13">
      <rect class="cls-15" x=".35" y="300.26" width="158.19" height="152.24"/>
    </clipPath>
    <clipPath id="clippath-14">
      <rect class="cls-15" x="156.64" y="609.97" width="161.27" height="153.81"/>
    </clipPath>
    <clipPath id="clippath-15">
      <rect class="cls-15" x="314.35" y="458.84" width="158.18" height="152.25"/>
    </clipPath>
    <clipPath id="clippath-16">
      <rect class="cls-15" x="472.53" y="612.44" width="158.19" height="156.25"/>
    </clipPath>
    <clipPath id="clippath-17">
      <rect class="cls-15" x="786.87" y="311.21" width="158.18" height="156.26"/>
    </clipPath>
    <clipPath id="clippath-18">
      <rect class="cls-15" x="472.88" y="303.94" width="158.18" height="152.25"/>
    </clipPath>
    <clipPath id="clippath-19">
      <rect class="cls-15" x="787.09" y="470.44" width="158.18" height="152.25"/>
    </clipPath>
    <clipPath id="clippath-20">
      <rect class="cls-15" x="155.82" y="454.5" width="158.18" height="152.25"/>
    </clipPath>
    <clipPath id="clippath-21">
      <rect class="cls-15" x="630.71" y="613.66" width="161.27" height="153.81"/>
    </clipPath>
    <clipPath id="clippath-22">
      <rect class="cls-15" x="630.71" y="462.19" width="158.18" height="152.25"/>
    </clipPath>
    <clipPath id="clippath-23">
      <rect class="cls-15" x="786.87" y="614.44" width="158.18" height="152.25"/>
    </clipPath>
    <clipPath id="clippath-24">
      <rect class="cls-15" x="948.63" y="13.86" width="131.08" height="129.48"/>
    </clipPath>
    <clipPath id="clippath-25">
      <rect class="cls-15" x="948.63" y="388.82" width="131.08" height="129.48"/>
    </clipPath>
    <clipPath id="clippath-26">
      <rect class="cls-15" x="948.92" y="133.18" width="131.08" height="126.16"/>
    </clipPath>
  </defs>
  <g id="Layer_1-2" data-name="Layer 1">
    <g class="cls-10">
      <g class="cls-30">
        <path class="cls-25" d="M111.26,186.02l-.88,92.19,47.82.45-.51,53.2-156.48-1.46,1.39-145.39c.35-36.46,18.96-63.81,53.55-63.48,33.67.31,55.46,28.27,55.11,64.5M38.47,197.49l-.77,80.04,36.45.35.78-81.42c.12-12.61-7.69-20.49-18.6-20.58-10.91-.1-17.72,7.63-17.85,21.61"/>
      </g>
      <path class="cls-25" d="M67.12,96.52l13.5-60.45,11.16,60.82-24.66-.37ZM2.03,153.93l53.69.8,6.73-29.44,32.37.49,5.6,29.62,55.74.84L110.59.86l-57.28-.86L2.03,153.93Z"/>
      <g class="cls-16">
        <path class="cls-25" d="M1078.64,746.46l-129.72-2.93.68-53.41c36.01.55,72.02,1.1,108.03,1.64l.42-52.11,21.94.49-1.36,106.31Z"/>
      </g>
      <g class="cls-27">
        <path class="cls-25" d="M317.97,225.65l1.5,83.85-158.79,1.78-1.49-83.85c-.53-29.34,8.79-61.88,37.06-62.2,15.32-.17,29.45,13.09,31.37,28.17,1.59-16.51,15.15-35.68,37.06-35.93,28.98-.32,52.45,21.22,53.29,68.18M244.69,239.61l.22,12.29,41.93-.47-.22-12.86c-.22-12.02-9.36-22.82-23.03-22.67-11.54.13-19.14,10.28-18.9,23.7M190.03,239.66l.23,12.86,26.86-.3-.23-12.86c-.16-8.94-5.95-16.99-14.9-16.89-8.48.09-12.11,8.25-11.95,17.19"/>
      </g>
      <g class="cls-20">
        <path class="cls-25" d="M316.36,83.98c-.73,48.53-39,70.44-80.28,69.65-41.5-.79-78.62-24.64-77.88-72.92.74-49.04,37.65-70.22,80.05-69.41,40.61.78,78.84,25.15,78.11,72.68M187.13,81.26c-.22,14.84,20.14,18.74,49.98,19.31,29.83.58,50.54-2.81,50.75-17.39.23-15.09-20.81-18.75-50.2-19.32-30.73-.58-50.32,2.81-50.54,17.4"/>
      </g>
      <g class="cls-7">
        <path class="cls-25" d="M472.51,236.24c-.73,48.53-39,70.44-80.28,69.65-41.5-.79-78.62-24.64-77.88-72.92.74-49.04,37.65-70.22,80.05-69.41,40.61.78,78.84,25.15,78.11,72.68M343.29,233.52c-.22,14.84,20.14,18.74,49.98,19.31,29.83.58,50.54-2.81,50.75-17.39.23-15.09-20.81-18.75-50.2-19.32-30.73-.58-50.32,2.81-50.54,17.4"/>
      </g>
      <g class="cls-17">
        <path class="cls-25" d="M583.78,189.71l-.88,92.19,47.82.45-.51,53.2-156.48-1.46,1.39-145.39c.35-36.46,18.96-63.81,53.55-63.48,33.67.31,55.46,28.27,55.11,64.5M511,201.17l-.77,80.04,36.45.35.78-81.42c.12-12.61-7.69-20.49-18.6-20.58-10.91-.1-17.72,7.63-17.85,21.61"/>
      </g>
      <path class="cls-25" d="M539.64,100.22l13.5-60.45,11.16,60.82-24.66-.37ZM474.56,157.62l53.69.8,6.73-29.43,32.37.49,5.59,29.62,55.42.84h.32L583.11,4.54l-57.28-.86-51.27,153.93Z"/>
      <g class="cls-2">
        <path class="cls-25" d="M468.87,134.58l-156.54-3.54.83-64.46c43.46.66,86.92,1.33,130.37,1.99.17-20.96.33-41.92.5-62.88,8.83.2,17.66.4,26.49.6l-1.64,128.29Z"/>
      </g>
      <g class="cls-3">
        <path class="cls-25" d="M790.49,229.34l1.5,83.85-158.79,1.78-1.49-83.85c-.53-29.35,8.79-61.88,37.06-62.2,15.32-.17,29.45,13.09,31.37,28.17,1.59-16.51,15.15-35.68,37.06-35.93,28.98-.32,52.45,21.22,53.29,68.18M717.22,243.3l.22,12.29,41.93-.47-.22-12.86c-.22-12.02-9.36-22.82-23.03-22.67-11.54.13-19.14,10.28-18.9,23.7M662.56,243.35l.23,12.86,26.86-.3-.23-12.86c-.16-8.95-5.95-16.99-14.9-16.89-8.48.09-12.11,8.25-11.95,17.19"/>
      </g>
      <g class="cls-19">
        <path class="cls-25" d="M788.88,87.67c-.73,48.53-39,70.44-80.28,69.65-41.5-.79-78.62-24.64-77.88-72.92.74-49.04,37.65-70.22,80.05-69.41,40.61.78,78.84,25.15,78.11,72.68M659.66,84.95c-.22,14.84,20.14,18.74,49.98,19.31,29.83.58,50.54-2.81,50.75-17.39.23-15.09-20.81-18.75-50.2-19.32-30.73-.58-50.32,2.81-50.54,17.4"/>
      </g>
      <g class="cls-11">
        <path class="cls-25" d="M945.04,88.02c-.73,48.53-39,70.44-80.28,69.65-41.5-.79-78.62-24.64-77.88-72.92.74-49.04,37.65-70.22,80.05-69.41,40.61.78,78.84,25.15,78.11,72.68M815.82,85.3c-.22,14.84,20.14,18.74,49.98,19.31,29.83.58,50.54-2.81,50.75-17.39.23-15.09-20.81-18.75-50.2-19.32-30.73-.58-50.32,2.81-50.54,17.4"/>
      </g>
      <path class="cls-25" d="M1004.53,595.05l11.19-50.09,9.26,50.4-20.44-.31ZM950.6,642.62l44.49.66,5.58-24.39,26.82.41,4.63,24.54,46.19.7v-.02l-37.76-128.75-47.46-.71-42.49,127.56Z"/>
      <g class="cls-12">
        <path class="cls-25" d="M945.04,239.93c-.73,48.53-39,70.44-80.28,69.65-41.5-.79-78.62-24.64-77.88-72.92.74-49.04,37.65-70.22,80.05-69.41,40.61.78,78.84,25.15,78.11,72.68M815.82,237.21c-.22,14.84,20.14,18.74,49.98,19.31,29.83.58,50.54-2.81,50.75-17.39.23-15.09-20.81-18.75-50.2-19.32-30.73-.58-50.32,2.81-50.54,17.4"/>
      </g>
      <g class="cls-14">
        <path class="cls-25" d="M111.26,638.52l-.88,92.19,47.82.45-.51,53.2-156.48-1.46,1.39-145.39c.35-36.46,18.96-63.81,53.55-63.48,33.67.31,55.46,28.27,55.11,64.5M38.47,649.99l-.77,80.04,36.45.35.78-81.42c.12-12.61-7.69-20.49-18.6-20.58-10.91-.1-17.72,7.63-17.85,21.61"/>
      </g>
      <g class="cls-22">
        <path class="cls-25" d="M425.6,337.3l-.88,92.19,47.82.45-.51,53.2-156.48-1.46,1.39-145.39c.35-36.46,18.96-63.81,53.55-63.48,33.67.31,55.46,28.27,55.11,64.5M352.82,348.77l-.77,80.04,36.45.35.78-81.42c.12-12.61-7.69-20.49-18.6-20.58-10.91-.1-17.72,7.63-17.85,21.61"/>
      </g>
      <path class="cls-25" d="M67.12,549.03l13.5-60.45,11.16,60.82-24.66-.37ZM2.03,606.43l53.69.8,6.73-29.43,32.37.49,5.6,29.62,55.74.84-45.57-155.39-57.28-.86L2.03,606.43Z"/>
      <path class="cls-25" d="M385.03,703.28l13.49-60.45,11.17,60.82-24.66-.37ZM319.94,760.69l53.69.8,6.73-29.44,32.37.49,5.6,29.62,55.74.84v-.02l-45.57-155.38-57.28-.86-51.28,153.93Z"/>
      <path class="cls-25" d="M225.3,394.78l13.5-60.45,11.16,60.82-24.66-.37ZM160.21,452.19l53.69.8,6.73-29.43,32.37.49,5.6,29.62,55.74.84-45.57-155.39-57.28-.86-51.28,153.93Z"/>
      <g class="cls-28">
        <path class="cls-25" d="M156.9,429.15L.35,425.61l.83-64.46c43.46.66,86.92,1.33,130.37,1.99.17-20.96.33-41.92.5-62.88,8.83.2,17.66.4,26.49.6l-1.64,128.29Z"/>
      </g>
      <g class="cls-23">
        <path class="cls-25" d="M316.42,678.16l1.5,83.85-158.79,1.78-1.49-83.85c-.53-29.35,8.79-61.88,37.06-62.2,15.32-.17,29.45,13.09,31.37,28.17,1.59-16.51,15.15-35.68,37.06-35.93,28.98-.32,52.45,21.22,53.29,68.18M243.15,692.12l.22,12.29,41.93-.47-.22-12.86c-.22-12.02-9.36-22.82-23.03-22.67-11.54.13-19.14,10.28-18.9,23.7M188.48,692.17l.23,12.86,26.86-.3-.23-12.86c-.16-8.95-5.95-16.99-14.9-16.89-8.48.09-12.11,8.25-11.95,17.19"/>
      </g>
      <g class="cls-5">
        <path class="cls-25" d="M472.51,536.83c-.73,48.53-39,70.44-80.28,69.65-41.5-.79-78.62-24.64-77.88-72.92.74-49.04,37.65-70.22,80.05-69.41,40.61.78,78.84,25.15,78.11,72.68M343.29,534.11c-.22,14.84,20.14,18.74,49.98,19.31,29.83.58,50.54-2.81,50.75-17.39.23-15.09-20.81-18.76-50.2-19.32-30.73-.58-50.32,2.81-50.54,17.4"/>
      </g>
      <g class="cls-26">
        <path class="cls-25" d="M583.78,642.21l-.88,92.19,47.82.45-.51,53.2-156.48-1.46,1.39-145.39c.35-36.46,18.96-63.81,53.55-63.48,33.67.31,55.46,28.27,55.11,64.5M511,653.68l-.77,80.04,36.45.35.78-81.42c.12-12.61-7.69-20.49-18.6-20.58-10.91-.1-17.72,7.63-17.85,21.61"/>
      </g>
      <g class="cls-4">
        <path class="cls-25" d="M898.13,340.99l-.88,92.19,47.82.45-.51,53.2-156.48-1.46,1.39-145.39c.35-36.46,18.96-63.81,53.55-63.48,33.67.31,55.46,28.27,55.11,64.5M825.34,352.45l-.77,80.04,36.45.35.78-81.42c.12-12.61-7.69-20.49-18.6-20.58-10.91-.1-17.72,7.63-17.85,21.61"/>
      </g>
      <path class="cls-25" d="M539.64,552.72l13.5-60.45,11.16,60.82-24.66-.37ZM474.56,610.13l53.69.8,6.73-29.44,32.37.49,5.59,29.62,55.74.84-45.57-155.39-57.28-.86-51.27,153.93Z"/>
      <path class="cls-25" d="M697.83,398.47l13.5-60.45,11.17,60.82-24.66-.37ZM632.74,455.88l53.69.8,6.73-29.44,32.38.49,5.59,29.62,55.74.84-45.57-155.39-57.28-.86-51.28,153.93Z"/>
      <g class="cls-6">
        <path class="cls-25" d="M629.42,432.84l-156.54-3.54.83-64.46c43.46.66,86.92,1.33,130.37,1.99.17-20.96.33-41.92.5-62.88,8.83.2,17.66.4,26.49.6l-1.64,128.29Z"/>
      </g>
      <g class="cls-24">
        <path class="cls-25" d="M943.64,599.33l-156.54-3.54.83-64.46c43.46.66,86.92,1.33,130.37,1.99.17-20.96.33-41.92.5-62.88,8.83.2,17.66.4,26.49.6l-1.64,128.29Z"/>
      </g>
      <g class="cls-18">
        <path class="cls-25" d="M312.36,583.4l-156.54-3.54.83-64.46c43.46.66,86.92,1.33,130.37,1.99.17-20.96.33-41.92.5-62.88,8.83.2,17.66.4,26.49.6l-1.64,128.29Z"/>
      </g>
      <g class="cls-1">
        <path class="cls-25" d="M790.49,681.85l1.5,83.85-158.79,1.78-1.49-83.85c-.53-29.34,8.79-61.88,37.06-62.2,15.32-.17,29.45,13.09,31.37,28.17,1.59-16.51,15.15-35.68,37.06-35.93,28.98-.32,52.45,21.22,53.29,68.18M717.22,695.81l.22,12.29,41.93-.47-.22-12.86c-.22-12.02-9.36-22.82-23.03-22.67-11.54.13-19.14,10.28-18.9,23.7M662.56,695.86l.23,12.86,26.86-.3-.23-12.86c-.16-8.95-5.95-16.99-14.9-16.89-8.48.09-12.11,8.25-11.95,17.19"/>
      </g>
      <g class="cls-8">
        <path class="cls-25" d="M788.88,540.18c-.73,48.53-39,70.44-80.28,69.65-41.5-.79-78.62-24.64-77.88-72.92.74-49.04,37.65-70.22,80.05-69.41,40.61.78,78.84,25.15,78.11,72.68M659.66,537.45c-.22,14.84,20.14,18.74,49.98,19.31,29.83.58,50.54-2.81,50.75-17.39.23-15.09-20.81-18.75-50.2-19.32-30.73-.58-50.32,2.81-50.54,17.4"/>
      </g>
      <g class="cls-9">
        <path class="cls-25" d="M945.04,692.43c-.73,48.53-39,70.44-80.28,69.65-41.5-.79-78.62-24.64-77.88-72.92.74-49.04,37.65-70.22,80.05-69.41,40.61.78,78.84,25.15,78.11,72.68M815.82,689.71c-.22,14.84,20.14,18.74,49.98,19.31,29.83.58,50.54-2.81,50.75-17.39.23-15.09-20.81-18.76-50.2-19.32-30.73-.58-50.32,2.81-50.54,17.4"/>
      </g>
      <g class="cls-29">
        <path class="cls-25" d="M1040.82,38.52l-.73,76.39,39.63.37-.42,44.08-129.67-1.22,1.16-120.48c.29-30.21,15.71-52.87,44.37-52.6,27.9.26,45.95,23.43,45.66,53.45M980.51,48.02l-.63,66.32,30.2.29.65-67.47c.1-10.45-6.37-16.97-15.42-17.06-9.04-.08-14.68,6.32-14.79,17.91"/>
      </g>
      <g class="cls-13">
        <path class="cls-25" d="M1040.82,413.49l-.73,76.39,39.63.37-.42,44.08-129.67-1.22,1.16-120.48c.29-30.21,15.71-52.87,44.37-52.6,27.9.26,45.95,23.43,45.66,53.45M980.51,422.99l-.63,66.32,30.2.29.65-67.47c.1-10.45-6.37-16.97-15.42-17.06-9.04-.08-14.68,6.33-14.79,17.91"/>
      </g>
      <path class="cls-25" d="M1004.24,339.33l11.19-50.09,9.26,50.4-20.44-.31ZM950.31,386.9l44.49.67,5.58-24.39,26.82.41,4.64,24.54,46.19.7-37.76-128.77-47.47-.71-42.49,127.56Z"/>
      <g class="cls-21">
        <path class="cls-25" d="M1078.64,239.99l-129.72-2.93.68-53.41c36.01.55,72.02,1.1,108.03,1.64.14-17.37.28-34.74.42-52.11,7.31.16,14.63.33,21.94.49l-1.36,106.31Z"/>
      </g>
    </g>
  </g>
</svg>
