<?xml version="1.0" encoding="UTF-8"?>
<svg id="Layer_2" xmlns="http://www.w3.org/2000/svg" version="1.1" viewBox="0 0 85.33 62.99">
  <!-- Generator: Adobe Illustrator 29.8.1, SVG Export Plug-In . SVG Version: 2.1.1 Build 2)  -->
  <defs>
    <style>
      .st0 {
        fill: #2a2315;
      }

      .st1 {
        fill: #302719;
        fill-rule: evenodd;
      }
    </style>
  </defs>
  <path class="st1" d="M55.76,10.1c-.03-.48-.5-.76-.83-1.15-1.52-1.76-3.3-2.98-5.15-4.43-1.4-1.1-2.79-2.27-4.11-3.44-.39-.05-.78-.37-1.2-.63-.41-.26-.95-.6-1.46-.52-.27.04-.64.51-.94.73-.75.56-1.1.61-1.87,1.04-.63.35-1.27.94-1.92,1.46-1.3,1.04-2.46,1.92-3.8,2.96-.69.54-1.52,1.09-1.83,1.56-.11.17-.08.39-.21.57-.17.22-.52.44-.78.68-.77.71-1.64,1.55-1.98,2.55-.02.23.14.1.21.16.16.14.02.08.11.26.42.81.79,1.27,1.46,1.98,3.03,3.2,6.81,5.94,10.99,7.86h.36c.27-.16.7-.35,1.04-.52,2.47-1.21,4.25-2.81,6.25-4.53M51.7,12.08c-2.36,2.63-5.2,4.88-7.91,7.08-.11.1-.1.32-.21.41-.34-.17-.47.25-.83.21-.19-.02-.7-.53-1.04-.78-1.77-1.32-3.49-2.72-5.2-3.96-.72-.52-1.5-1.03-2.08-1.61-.32-.32-.99-1.06-.99-1.46,0-.26.34-.82.52-1.04.38-.47.99-.78,1.4-1.2.61-.6,1.1-1.19,1.77-1.72,1.95-1.54,4.01-3.1,5.78-4.74h.11c3.18,2.12,6.19,4.41,8.95,6.92.14.08.28-.04.41.11.05.41.17.42.31.73-.46.2-.68.7-.99,1.04"/>
  <path class="st1" d="M33.99,11.61c1.59.96,2.66,2.34,4.16,3.54.72.57,1.61,1.11,2.4,1.72.47.36,1.11.83,1.77,1.31.16.11.49.47.52.47.08,0,1.04-.78,1.2-.88.49-.34.96-.6,1.25-.84.78-.61,1.46-1.42,2.13-1.98,1.58-1.33,3.05-2.43,4.16-4.06-2.69-2.53-5.91-4.54-8.49-7.19-2.91,2.77-6.1,5.25-9.11,7.91M47.22,10.46c.26.24,1.2.93,1.15,1.35-.03.22-.71.75-.94.94-1.09.94-2.13,1.7-3.23,2.44.11.21.11.4-.05.57-.47.05-.56-.27-.99-.26-.11-.1-.1-.32-.21-.41-1.42-1.25-3.14-2.21-4.38-3.64-.16-.02-.25.08-.36-.16.04-.58.62-.85,1.04-1.2.85-.7,1.51-1.36,2.35-2.13.52-.48,1.04-1.28,1.67-1.04,1.18,1.27,2.63,2.32,3.96,3.54"/>
  <path class="st1" d="M43.11,7.6c-1.3,1.15-2.55,2.35-3.96,3.39,1.22,1.47,2.99,2.38,4.38,3.7,1.44-.81,2.58-1.93,3.85-2.92-1.31-1.5-3.01-2.61-4.27-4.16M42.95,10.67c.5-.54,1.13.09,1.2.63-.37.63-1.41.34-1.2-.63"/>
  <path class="st0" d="M29.55,46.09c.4.97.82,1.89,1.25,2.77.25-.54.19-1.2-.17-1.72-.25-.36-.64-.82-1.09-1.05"/>
  <path class="st0" d="M28.08,39.55c-.27-.43-.63-.78-1.03-1.1.21.87.44,1.7.68,2.52.48-.32.8-.7.34-1.42"/>
  <path class="st0" d="M28.22,42.51c.26.79.54,1.56.81,2.3.51-.81,0-1.72-.81-2.3"/>
  <path class="st0" d="M32.76,41.48c-.22-.09-.42-.19-.62-.29-.37.36-.73.72-.72,1.28v.11c.32.08.63.17.97.24.02-.5.13-.97.38-1.34"/>
  <path class="st0" d="M30.48,38.16c.75.86,1.72,1.68,2.96,2.15-.86-.53-1.44-1.48-1.44-2.56,0-1.52,1.14-2.78,2.61-2.98-.26-.03-.53-.05-.8-.05-1.39,0-2.96.37-4.72,1.37.05.08.09.18.15.28.27.49.68,1.14,1.24,1.79"/>
  <path class="st0" d="M34.65,47.88c1.89-.81,3.94-1.94,5.63-3.48-2.2,1.26-4.93,1.6-7.25,1.6-.76,0-1.49-.04-2.14-.09.3.31.55.66.71,1,.32.67.38,1.38.2,2.01.84-.26,1.83-.6,2.85-1.04"/>
  <path class="st0" d="M29.96,34.18c-.32-.35-.57-.75-.73-1.2-.26.1-.48.2-.69.32.02.48.26.82.74,1.16,0,0,0,0,.02.02.23-.11.45-.2.66-.29"/>
  <path class="st0" d="M33.74,41.8c-.33.21-.39.69-.4,1.06,0,.06-.02.11-.03.16.47.09.95.17,1.43.23-.11-.41-.07-.85.08-1.25-.38-.04-.74-.1-1.09-.19"/>
  <path class="st0" d="M42.67,39.29h0l-.2.14c-2.48,1.77-4.67,2.52-6.56,2.59-.25.31-.38.76-.2,1.12.04.07.05.14.06.2.32.02.63.03.94.03,2.45,0,4.68-.66,5.97-2.62,1.28,1.96,3.51,2.61,5.97,2.62.31,0,.63-.02.94-.03,0-.06.02-.13.06-.2.19-.35.05-.81-.2-1.12-1.89-.08-4.08-.83-6.56-2.59l-.2-.14h-.02Z"/>
  <path class="st0" d="M30.18,43.56c.14.64.03,1.19-.26,1.66.03.02.06.02.08.04.84.1,1.89.18,3.02.18,2.99,0,6.55-.59,8.72-2.89-1.4,1.03-3.21,1.4-5.05,1.39-2.44,0-4.98-.63-6.89-1.24.17.26.29.54.36.85"/>
  <path class="st0" d="M27.11,24.79l2.78.02.48,2.55,2.71-.69,1.15,2.4,2.51-1.24,1.64,2.18,2.25-1.58,2.03,1.64h0l2.03-1.64,2.25,1.58,1.64-2.18,2.52,1.24,1.15-2.4,2.71.69.48-2.55,2.78-.02-.35-2.54,2.26-.71v-.69l-.14-.24h-1.13s.02.08.02.12c0,.37-.3.67-.67.67s-.67-.3-.67-.67c0-.05,0-.08.02-.12h-1.73c-1.84,3.2-6.89,5.49-12.82,5.49h-.63c-5.94,0-10.99-2.29-12.82-5.49h-1.73s.02.08.02.12c0,.37-.3.67-.67.67s-.67-.3-.67-.67c0-.05,0-.08.02-.12h-1.13l-.14.24v.69l2.26.71-.35,2.54h-.02ZM56.73,22.73c.37,0,.67.3.67.67s-.3.67-.67.67-.67-.3-.67-.67.3-.67.67-.67M53.92,24.65c.37,0,.67.3.67.67s-.3.67-.67.67-.67-.3-.67-.67.3-.67.67-.67M50.62,26.27c.37,0,.67.3.67.67s-.3.67-.67.67-.67-.3-.67-.67.3-.67.67-.67M46.55,27.04c.37,0,.67.3.67.67s-.3.67-.67.67-.67-.3-.67-.67.3-.67.67-.67M42.67,27.43c.18.12.3.32.3.56s-.12.44-.3.56c-.18-.12-.3-.32-.3-.56s.12-.44.3-.56M38.78,27.04c.37,0,.67.3.67.67s-.3.67-.67.67-.67-.3-.67-.67.3-.67.67-.67M34.73,26.27c.37,0,.67.3.67.67s-.3.67-.67.67-.67-.3-.67-.67.3-.67.67-.67M31.42,24.65c.37,0,.67.3.67.67s-.3.67-.67.67-.67-.3-.67-.67.3-.67.67-.67M28.61,22.73c.37,0,.67.3.67.67s-.3.67-.67.67-.67-.3-.67-.67.3-.67.67-.67"/>
  <path class="st0" d="M31.56,33.66c-.3-.32-.53-.69-.63-1.12-.28.04-.54.09-.79.15.17.44.45.83.83,1.12.2-.06.39-.11.59-.16"/>
  <path class="st0" d="M35.61,40.7c1.49,0,3.33-.52,5.53-1.97-.05-.05-.08-.11-.14-.17-.35-.43-.87-1-1.54-1.58-.72-.62-1.63-1.23-2.67-1.66.75.55,1.23,1.43,1.23,2.42,0,1.46-1.03,2.67-2.41,2.95"/>
  <path class="st0" d="M38.98,52.25c.69.2,1.21.57,1.96.32.45-.14.87-.37,1.32-.51.14-.05.27-.08.41-.11.14.03.28.07.41.11.45.14.87.36,1.32.51.75.25,1.26-.13,1.96-.32.54-.15,1.04-.17,1.6-.11.02,0,.07,0,.12.02-.55-1.1-2.75-1.92-5.41-1.95h0c-2.66.02-4.86.85-5.41,1.95.06,0,.11-.02.12-.02.56-.06,1.06-.05,1.6.11"/>
  <path class="st0" d="M54.71,47.14c-.36.52-.42,1.18-.17,1.72.43-.88.85-1.8,1.25-2.77-.45.23-.84.69-1.09,1.05"/>
  <path class="st0" d="M57.26,39.55c-.46.71-.14,1.09.34,1.42.24-.81.47-1.65.68-2.52-.39.32-.75.68-1.03,1.1"/>
  <path class="st0" d="M50.46,48.41c-2.75-1.18-5.86-3.02-7.79-5.85h0c-1.93,2.84-5.05,4.68-7.79,5.85-1.27.54-2.45.94-3.42,1.21-.05.07-.1.13-.15.2,4.56,8.71,10.2,12.51,11.37,13.24h0c1.17-.72,6.81-4.53,11.37-13.24-.05-.06-.11-.13-.15-.2-.97-.28-2.16-.68-3.42-1.21M42.67,43.71c.68.2,1.18.82,1.18,1.56s-.5,1.37-1.18,1.56c-.68-.2-1.18-.82-1.18-1.56s.5-1.37,1.18-1.56M42.19,62.21c-.33-.53-1.94-2.99-3.18-3.56,0,0,2.84.16,3.18,1.62v1.94ZM43.2,62.14v-1.94c.35-1.46,3.18-1.62,3.18-1.62-1.25.57-2.85,3.03-3.18,3.56M48.63,56.33s.78-1.22.79-3.08c-.14,0-.29,0-.45-.02-.25-.04-.51-.08-.76-.11-.11,2.99-2.53,5.4-5.54,5.47-3-.07-5.43-2.47-5.54-5.47-.26.04-.51.08-.76.11-.15.02-.3.03-.45.02,0,1.85.79,3.08.79,3.08-2.36-1.91-2.26-5.16-2.26-5.16-1.15.03-2.13-.92-2.13-.92,2.42.54,5.89-2.32,5.89-2.32-1.42,1.56-2.02,3.06-2.22,4.35.26.08.86-.02,1.18-.08.35-2.74,2.67-4.87,5.49-4.93,2.82.06,5.14,2.19,5.49,4.93.32.06.92.17,1.18.08-.2-1.29-.8-2.78-2.22-4.35,0,0,3.47,2.87,5.89,2.32,0,0-.99.96-2.13.92,0,0,.1,3.25-2.26,5.16"/>
  <path class="st0" d="M56.3,44.81c.29-.74.56-1.51.81-2.3-.82.58-1.34,1.49-.81,2.3"/>
  <path class="st0" d="M53.2,41.19c-.2.11-.41.2-.62.29.25.38.37.84.38,1.34.33-.08.65-.16.97-.24,0-.03,0-.07,0-.11.02-.57-.34-.92-.72-1.28"/>
  <path class="st0" d="M50.73,34.76c1.47.2,2.61,1.46,2.61,2.98,0,1.09-.58,2.04-1.44,2.56,1.24-.47,2.22-1.29,2.96-2.15.56-.65.97-1.31,1.24-1.79.05-.1.11-.2.15-.28-1.77-1-3.33-1.37-4.72-1.37-.27,0-.54.02-.8.05"/>
  <path class="st0" d="M54.45,45.92c-.66.05-1.38.09-2.14.09-2.32,0-5.05-.34-7.25-1.6,1.69,1.53,3.73,2.67,5.63,3.48,1.03.44,2.01.78,2.85,1.04-.19-.63-.13-1.34.2-2.01.17-.33.41-.69.71-1"/>
  <path class="st0" d="M56.8,33.3c-.2-.11-.43-.22-.69-.32-.16.45-.41.85-.73,1.2.22.09.44.19.66.29l.02-.02c.48-.34.72-.68.74-1.16"/>
  <path class="st0" d="M50.6,43.24c.48-.06.97-.14,1.43-.23-.02-.05-.03-.1-.03-.16,0-.36-.07-.84-.4-1.06-.35.09-.71.15-1.09.19.15.4.19.84.08,1.25"/>
  <path class="st0" d="M43.59,42.55c2.17,2.3,5.73,2.89,8.72,2.89,1.13,0,2.17-.08,3.02-.18.03-.02.06-.03.08-.04-.28-.47-.39-1.01-.26-1.66.06-.31.19-.6.36-.85-1.91.61-4.45,1.24-6.89,1.24-1.84,0-3.64-.36-5.05-1.39"/>
  <path class="st0" d="M59.63,25.93l-3.14.02-.54,2.85-2.99-.77-1.26,2.62-2.72-1.34-1.74,2.33-2.47-1.73-2.09,1.69-2.09-1.69-2.47,1.73-1.74-2.33-2.72,1.34-1.26-2.62-2.99.77-.54-2.85-3.14-.02.4-2.9-.91-.29c.04,5.4.61,10.15,1.52,14.31,1.04.6,2.1,1.45,2.41,2.54.16.54.23,1.15-.17,1.61-.12.14-.26.25-.41.35.13.08.25.15.37.24.35.13.74.26,1.16.39.12.04.24.08.37.11.04-.66.39-1.15.83-1.62-.73-.5-1.34-1.08-1.83-1.65-1.27-1.48-1.84-2.92-1.86-2.96l-.2-.52.48-.29c.17-.11.33-.2.5-.3-.29-.25-.54-.53-.68-.9-.02-.05-.03-.09-.05-.14-.62.55-.81,1.04-.81,1.04-.1-1.96.62-3.06.62-3.06-1.39-2.58-1.15-4.87-1.15-4.87,1.43,3.54,11.03,6.08,10.8,6.02-2.14-.53-3.85-.68-5.21-.61.16.42.51.75.92.99.34-.04.66-.05.99-.05,2.82,0,5.03,1.31,6.52,2.58,1.49,1.27,2.29,2.53,2.32,2.57l.02.04h0l.02-.04s.82-1.3,2.32-2.57c1.49-1.27,3.7-2.58,6.52-2.58.32,0,.66.02.99.05.42-.24.77-.56.92-.99-1.37-.07-3.07.08-5.21.61-.23.06,9.37-2.48,10.8-6.02,0,0,.24,2.29-1.15,4.87,0,0,.72,1.1.62,3.06,0,0-.2-.49-.81-1.04-.02.05-.03.09-.05.14-.14.36-.39.65-.68.9.17.1.33.2.5.3l.48.29-.2.52s-.59,1.49-1.86,2.96c-.49.57-1.11,1.15-1.83,1.65.44.46.79.95.83,1.62.13-.04.25-.08.37-.11.42-.14.81-.26,1.16-.39.12-.09.24-.17.37-.24-.14-.1-.29-.21-.41-.35-.4-.46-.33-1.07-.17-1.61.32-1.09,1.37-1.94,2.41-2.54.91-4.16,1.49-8.92,1.52-14.31l-.91.29.4,2.9h.02ZM42.67,37.78c-.16-.15-.26-.36-.26-.6s.1-.45.26-.6c.16.15.26.36.26.6s-.1.45-.26.6M42.67,35.83c-.38-.2-.63-.6-.63-1.06s.26-.86.63-1.06c.38.2.63.6.63,1.06s-.26.86-.63,1.06"/>
  <path class="st0" d="M55.21,32.7c-.25-.06-.51-.11-.79-.15-.11.42-.33.8-.63,1.12.2.05.39.1.59.16.38-.29.67-.68.83-1.12"/>
  <path class="st0" d="M48.55,35.32c-1.05.43-1.95,1.04-2.67,1.66-.67.57-1.19,1.15-1.54,1.58-.05.06-.09.11-.14.17,2.2,1.45,4.03,1.97,5.53,1.97-1.38-.28-2.41-1.49-2.41-2.95,0-1,.48-1.88,1.23-2.42"/>
  <path class="st0" d="M46.41,53.26c-.57.24-1.14.44-1.77.34-.64-.1-1.22-.38-1.83-.61-.05-.02-.11-.04-.16-.05h0c-.05.02-.11.04-.16.05-.6.23-1.18.51-1.83.61-.63.1-1.19-.1-1.77-.34-.55-.23-1.14-.22-1.72-.14.45,1.15,2.71,2.04,5.46,2.07h0c2.75-.03,5.02-.91,5.46-2.07-.58-.08-1.16-.09-1.72.14"/>
</svg>
