<?xml version="1.0" encoding="UTF-8"?>
<svg id="Layer_2" xmlns="http://www.w3.org/2000/svg" version="1.1" viewBox="0 0 66.62 103.84">
  <!-- Generator: Adobe Illustrator 29.8.1, SVG Export Plug-In . SVG Version: 2.1.1 Build 2)  -->
  <defs>
    <style>
      .st0 {
        fill: #753214;
      }
    </style>
  </defs>
  <path class="st0" d="M21.9,18.61c-5.7,0-11.17,3.41-15.21,8.71C2.65,32.62,0,39.87,0,47.9c0,14.47,8.5,26.6,18.55,28.95.71,1.26,1.58,2.43,2.63,3.48,4.22,4.22,10.38,5.61,16.72,4.58,6.34-1.03,12.94-4.44,18.46-9.95,5.51-5.51,8.92-12.12,9.95-18.46,1.03-6.34-.36-12.5-4.58-16.72-4.22-4.22-10.38-5.61-16.72-4.58-1.09.18-2.19.45-3.29.77-3.59-10.14-11.43-17.36-19.8-17.36ZM21.9,21.62c6.57,0,13.67,6.12,16.95,15.33-4.32,1.72-8.57,4.46-12.31,8.2-5.51,5.51-8.92,12.12-9.95,18.46-.54,3.33-.39,6.6.46,9.58-7.32-3.17-14.04-13.22-14.04-25.29,0-7.36,2.46-14,6.08-18.75,3.62-4.75,8.34-7.53,12.81-7.53ZM21.07,24.62c-.5.01-.95.27-1.22.69,0,0-3.27,4.69-3.27,9.88,0,3.29.77,7.64,3.27,11.39.45.7,1.38.9,2.08.45s.9-1.38.45-2.08c0-.01-.02-.03-.03-.04-2.04-3.07-2.76-6.91-2.76-9.71,0-3.85,2.76-8.21,2.76-8.21.47-.69.3-1.62-.39-2.1-.26-.18-.58-.27-.9-.26ZM49.58,37.9c3.95.12,7.44,1.45,10.01,4.02,3.42,3.42,4.65,8.48,3.74,14.1-.91,5.62-4.01,11.71-9.11,16.81-5.1,5.1-11.19,8.19-16.81,9.11-5.62.91-10.68-.31-14.1-3.74-.88-.88-1.61-1.87-2.2-2.94-.05-.23-.15-.44-.3-.63-1.45-3-1.88-6.62-1.24-10.53.91-5.62,4.01-11.71,9.11-16.81,5.1-5.1,11.19-8.19,16.81-9.11,1.41-.23,2.78-.32,4.09-.28ZM57.24,44.24c-.83.01-1.49.7-1.48,1.53,0,4.03-3.11,10.26-14.5,12.99-7.15,1.71-11.18,4.63-13.32,7.9-2.13,3.28-2.29,6.74-2.29,9.22-.01.83.65,1.52,1.49,1.53.83.01,1.52-.65,1.53-1.49,0-.01,0-.03,0-.04,0-2.34.16-5.05,1.8-7.57,1.64-2.52,4.83-5.02,11.49-6.62,12.31-2.95,16.81-10.31,16.81-15.92.01-.83-.65-1.52-1.49-1.53-.01,0-.03,0-.04,0Z"/>
</svg>