<?xml version="1.0" encoding="UTF-8"?>
<svg id="Layer_1" xmlns="http://www.w3.org/2000/svg" xmlns:xlink="http://www.w3.org/1999/xlink" version="1.1" viewBox="0 0 400 200">
  <!-- Generator: Adobe Illustrator 29.8.1, SVG Export Plug-In . SVG Version: 2.1.1 Build 2)  -->
  <defs>
    <style>
      .st0 {
        fill: none;
      }

      .st1 {
        fill: #753214;
      }

      .st2 {
        fill: #eee;
        stroke: #2ec97d;
        stroke-width: 4px;
      }

      .st3 {
        clip-path: url(#clippath);
      }
    </style>
    <clipPath id="clippath">
      <rect class="st0" width="400" height="200"/>
    </clipPath>
  </defs>
  <g class="st3">
    <path class="st2" d="M2,2h396v196H2V2Z"/>
  </g>
  <g>
    <path class="st1" d="M95.29,145.35l12.91,5.05c1.25.49,2.36,1.29,3.23,2.32l.11.17,3.85,8.23c.95,2.04,3.39,2.92,5.42,1.96l19.68-9.22c2.04-.96,2.92-3.39,1.96-5.42l-3.92-8.42c-.86-4.31-2.23-8.51-4.09-12.48l-5.89-12.57c-.46-.98-1.28-1.73-2.31-2.1-1.03-.37-2.13-.32-3.12.14l-.32-.68.32.68-.73.34c-.79.37-1.42.96-1.84,1.72l-.45.81-.7-.6c-1.22-1.05-2.94-1.29-4.39-.61l-.73.34c-.81.38-1.46,1-1.88,1.8l-.42.8-.71-.56c-1.22-.97-2.86-1.16-4.27-.5l-.73.34c-.65.3-1.21.77-1.61,1.36l-.74,1.07-2.88-6.14c-.95-2.04-3.39-2.92-5.42-1.96l-.73.34c-.99.46-1.73,1.28-2.1,2.31-.37,1.03-.32,2.13.14,3.12l10.09,21.54-4.56-1.65c-.41-.15-.85-.22-1.3-.22-.61,0-1.23.14-1.8.41-1,.47-1.77,1.29-2.12,2.26l-.31.84c-.76,2.09.27,4.37,2.35,5.19ZM140.41,146.23l-13.32,6.24c-.11.05-.19.14-.24.26-.04.11-.04.24.02.35s.14.19.26.24c.12.04.24.04.35-.02l13.32-6.24.83,1.77c.74,1.58.06,3.47-1.52,4.21h0s-19.68,9.22-19.68,9.22c-.43.2-.89.3-1.34.3-1.19,0-2.33-.67-2.87-1.82l-3.73-7.97,25.41-11.9,2.51,5.37ZM93.8,140.48l.31-.84c.28-.76.88-1.41,1.64-1.77.77-.36,1.65-.41,2.41-.13l5.6,2.03c.17.06.37.01.5-.12.12-.13.15-.33.07-.5l-10.56-22.54c-.36-.76-.4-1.62-.11-2.42s.87-1.43,1.63-1.79l.73-.34c.76-.36,1.62-.4,2.42-.11.8.29,1.43.87,1.79,1.63l8.19,17.49c.05.11.14.19.26.24.12.04.24.04.35-.02.11-.05.19-.14.24-.26.04-.12.04-.24-.02-.35l-4.1-8.75c-.36-.77-.4-1.62-.11-2.42.29-.8.87-1.43,1.63-1.79l.73-.34c.76-.36,1.62-.4,2.42-.11.8.29,1.43.87,1.79,1.63l4.1,8.75c.11.23.38.33.61.22.11-.05.19-.14.24-.26.04-.12.04-.24-.02-.35l-3.38-7.21c-.36-.77-.4-1.62-.11-2.42.29-.8.87-1.43,1.63-1.79l.73-.34c1.58-.74,3.47-.06,4.21,1.52l3.89,8.31c.05.11.14.19.26.24.11.04.24.04.35-.02.23-.11.33-.38.22-.61l-3.07-6.56c-.36-.76-.4-1.62-.11-2.42s.87-1.43,1.63-1.79l.73-.34c.77-.36,1.62-.4,2.42-.11.8.29,1.43.87,1.79,1.63l5.89,12.57c1.72,3.66,3.02,7.53,3.86,11.48l.12.58-25.58,11.98-.37-.38c-.88-.89-1.96-1.59-3.12-2.05l-12.91-5.05c-1.61-.63-2.41-2.4-1.82-4.02Z"/>
    <path class="st1" d="M104.21,111.48c.04-.12.04-.24-.02-.35-.92-1.95-2.54-3.43-4.57-4.17-.9-.33-1.83-.49-2.76-.49-1.17,0-2.33.26-3.42.77-4.04,1.89-5.79,6.72-3.89,10.76.1.22.36.32.59.23h.02c.11-.06.19-.15.23-.27.04-.12.04-.24-.02-.35-1.68-3.58-.13-7.86,3.45-9.54,3.58-1.68,7.86-.13,9.54,3.45.11.23.38.33.61.22.11-.05.19-.14.23-.26Z"/>
  </g>
  <g>
    <path class="st1" d="M102.74,56.74l-8.09,2.5c-.24.07-.37.33-.3.57s.33.37.57.3l7.66-2.37,11.88,38.49-16.89,5.22-7.69-24.89c-.07-.24-.33-.37-.57-.3s-.37.33-.3.57l7.69,24.89-7.74,2.39-7.69-24.89c-.07-.24-.33-.37-.57-.3s-.37.33-.3.57l7.69,24.89-16.89,5.22-11.88-38.49,7.66-2.37c.24-.07.37-.33.3-.57s-.33-.37-.57-.3l-8.09,2.5c-.24.07-.37.33-.3.57l12.15,39.35c.07.24.33.37.57.3l44.12-13.62c.24-.07.37-.33.3-.57l-12.15-39.35c-.07-.24-.33-.37-.57-.3Z"/>
    <path class="st1" d="M72.35,67.07l3-.93c-2.51,2.05-3.2,3.98-2.45,6.42l1.75,5.67c.05.16.19.28.35.31.17.03.34-.04.44-.17l1.87-2.47,2.9.99c.09.03.19.03.28,0,.07-.02.13-.06.18-.11.12-.12.17-.3.12-.46l-1.66-5.39c-.78-2.54.03-4.38.84-5.46.42.02.84-.02,1.26-.15s.79-.33,1.12-.58c1.28.44,3,1.5,3.78,4.03l1.66,5.39c.05.16.19.28.35.31.07.01.14,0,.21-.01.09-.03.17-.08.23-.16l1.84-2.46,2.93.98c.16.05.34.01.46-.11.12-.12.17-.3.12-.46l-1.75-5.67c-.75-2.44-2.41-3.65-5.64-3.92l3-.93c2.67-.82,4.17-3.67,3.35-6.34s-3.67-4.17-6.34-3.35c-1.14.35-2.1,1.07-2.71,2.01-.67,1.04-1.18,2.84-1.7,4.8-.87-.57-1.98-.77-3.05-.44s-1.88,1.12-2.27,2.08c-1.53-1.33-2.97-2.52-4.11-3.01-1.03-.44-2.23-.49-3.37-.13-2.67.82-4.17,3.67-3.35,6.34s3.67,4.17,6.34,3.35ZM78.27,71.21l1.4,4.54-2.37-.81c-.18-.06-.39,0-.51.15l-1.53,2.02-1.49-4.83c-.69-2.23-.19-4.19,4.41-7.02l.43-.13c.13.06.27.12.41.17-.84,1.29-1.56,3.29-.75,5.91ZM91.33,66.87l1.49,4.83-2.41-.81c-.18-.06-.39,0-.51.16l-1.5,2.01-1.4-4.54c-.81-2.62-2.53-3.87-3.95-4.46.09-.12.17-.24.24-.37l.43-.13c5.4-.25,6.91,1.08,7.6,3.32ZM84.62,54.57c.49-.77,1.28-1.35,2.21-1.64,2.19-.68,4.53.56,5.21,2.75s-.56,4.53-2.75,5.21l-5.58,1.72c.12-.58.1-1.19-.09-1.79-.15-.48-.39-.91-.7-1.27.52-1.98,1.06-3.98,1.7-4.98ZM79.38,59.31c1.42-.44,2.94.36,3.38,1.78s-.36,2.94-1.78,3.38-2.94-.36-3.38-1.78.36-2.94,1.78-3.38ZM69.63,58.25c.94-.29,1.91-.25,2.75.1,1.09.46,2.67,1.81,4.21,3.16-.05.47-.01.96.14,1.45.19.6.52,1.12.94,1.53l-5.58,1.72c-2.19.68-4.53-.56-5.21-2.75s.56-4.53,2.75-5.21Z"/>
  </g>
  <g>
    <path class="st1" d="M34.62,125.26l-.64-.18v6.1h6.1l-.18-.64c-.73-2.52-2.75-4.54-5.27-5.27ZM34.99,130.17v-3.73c1.69.68,3.05,2.04,3.73,3.73h-3.73Z"/>
    <path class="st1" d="M153.48,62.72h-6.56l.19.64c.8,2.73,3.01,4.81,5.77,5.41l.61.13v-6.19ZM152.48,67.63c-1.91-.61-3.45-2.04-4.2-3.91h4.2v3.91Z"/>
    <path class="st1" d="M33.99,62.72v6.11l.64-.18c2.52-.73,4.54-2.75,5.27-5.29l.18-.64h-6.1ZM34.99,67.46v-3.75h3.73c-.68,1.7-2.04,3.06-3.73,3.75Z"/>
    <path class="st1" d="M147.57,130.53l-.18.64h6.09v-6.1l-.64.18c-2.52.73-4.54,2.75-5.27,5.27ZM152.48,130.17h-3.73c.68-1.69,2.04-3.05,3.73-3.73v3.73Z"/>
    <g>
      <path class="st1" d="M30.96,132.67V61.21c0-.83.68-1.51,1.51-1.51h30.85v-1h-30.85c-1.38,0-2.51,1.12-2.51,2.51v71.46c0,1.38,1.12,2.51,2.51,2.51h40.69v-1h-40.69c-.83,0-1.51-.68-1.51-1.51Z"/>
      <path class="st1" d="M155.42,58.7h-15.61v1h15.61c.83,0,1.51.68,1.51,1.51v71.46c0,.83-.68,1.51-1.51,1.51h-11.83v1h11.83c1.38,0,2.51-1.12,2.51-2.51V61.21c0-1.38-1.12-2.51-2.51-2.51Z"/>
    </g>
  </g>
</svg>