<?xml version="1.0" encoding="UTF-8"?>
<svg id="Layer_2" data-name="Layer 2" xmlns="http://www.w3.org/2000/svg" viewBox="0 0 380.15 83.41">
  <defs>
    <style>
      .cls-1 {
        fill: #dd1a22;
      }
    </style>
  </defs>
  <g id="Layer_1-2" data-name="Layer 1">
    <g>
      <path class="cls-1" d="M75.01,57.26H27.45s0,24.37,0,24.37H0S0,1.89,0,1.89h75.01c18.81,0,33.01,9.35,33.01,26.98,0,17.16-14.32,28.4-33.01,28.4ZM68.74,20.23H27.45s0,18.58,0,18.58h42c6.51,0,10.53-4.02,10.53-9.58s-4.02-8.99-11.24-8.99Z"/>
      <path class="cls-1" d="M151.8,81.64l-2.84-15.38h-14.91s-2.84,15.38-2.84,15.38h-24.73S128.73,1.06,128.73,1.06h26.38s22.36,80.57,22.36,80.57h-25.67ZM141.62,19.64l-5.68,31.59h11.36s-5.68-31.59-5.68-31.59Z"/>
      <path class="cls-1" d="M221.13,81.64h-35.49s0-79.74,0-79.74h35.49c12.42,0,26.15,4.97,26.15,19.17,0,7.69-5.68,14.67-12.07,15.5,6.98.95,15.03,7.93,15.03,18.93,0,14.55-9.23,26.15-29.11,26.15ZM215.81,17.27h-5.44s0,13.49,0,13.49h5.44c3.79,0,7.22-2.84,7.22-7.34,0-4.26-3.43-6.15-7.22-6.15ZM215.57,44.72h-5.21s0,21.06,0,21.06h5.44c5.09,0,9.7-4.5,9.7-11.36,0-5.8-4.26-9.7-9.94-9.7Z"/>
      <path class="cls-1" d="M260.53,81.64V1.89s24.73,0,24.73,0v60.34s24.49,0,24.49,0v19.4s-49.22,0-49.22,0Z"/>
      <path class="cls-1" d="M346.67,83.41c-22.83,0-33.48-20-33.48-41.77,0-21.89,10.89-41.65,33.6-41.65,23.07,0,33.37,19.29,33.37,41.65,0,21.42-11.12,41.77-33.48,41.77ZM346.78,15.26c-6.98,0-8.64,10.77-8.64,26.5,0,15.74,1.77,26.62,8.64,26.62,7.1,0,8.64-11.12,8.64-26.62,0-16.21-1.77-26.5-8.64-26.5Z"/>
    </g>
  </g>
</svg>