<?xml version="1.0" encoding="UTF-8"?>
<svg id="Layer_2" data-name="Layer 2" xmlns="http://www.w3.org/2000/svg" viewBox="0 0 66.62 103.84">
  <defs>
    <style>
      .cls-1 {
        fill: #ead8c2;
      }

      .cls-2 {
        fill: #fefefe;
      }

      .cls-3 {
        fill: #751314;
      }
    </style>
  </defs>
  <g id="Layer_1-2" data-name="Layer 1">
    <g>
      <path class="cls-2" d="M48.23.02c-2.53.16-8.02,4.02-10.13,5.7C20.23,19.98,11.54,40.68,4.64,61.9c-3.13,9.64-6.67,20.29-3.23,30.46,1.77,5.22,7.18,11.16,12.95,11.46,11.2.58,30.39-11.56,37.5-19.94,12.78-15.04,15.89-39.93,14.42-58.93-.67-8.64-4.87-15.59-10.69-21.8C53.54.96,51.37-.17,48.23.02Z"/>
      <path class="cls-1" d="M48.23.02c3.13-.19,5.31.94,7.36,3.13,5.82,6.21,10.02,13.16,10.69,21.8,1.47,19-1.64,43.89-14.42,58.93-7.11,8.37-26.3,20.52-37.5,19.94-5.77-.3-11.18-6.24-12.95-11.46-3.44-10.17.1-20.82,3.23-30.46C11.54,40.68,20.23,19.98,38.1,5.72,40.21,4.04,45.7.18,48.23.02ZM46.01,30.86l-2.44,1.2c-7.77,16.5-16.24,33.36-21.55,50.83-.46,1.51-1.46,2.94-1.33,4.82,2.59.32,2.44-2.54,2.98-3.96,3.77-10.02,7.51-20.1,11.84-29.9,2.8-6.35,6.42-12.64,9.15-18.91.57-1.3,1.21-2.64,1.36-4.08Z"/>
      <path class="cls-3" d="M46.01,30.86c-.15,1.44-.79,2.78-1.36,4.08-2.73,6.27-6.35,12.56-9.15,18.91-4.32,9.79-8.06,19.87-11.84,29.9-.53,1.42-.38,4.27-2.98,3.96-.13-1.88.87-3.31,1.33-4.82,5.31-17.47,13.77-34.33,21.55-50.83l2.44-1.2Z"/>
    </g>
  </g>
</svg>