<svg width="400" height="200" viewBox="0 0 400 200" fill="none" xmlns="http://www.w3.org/2000/svg">
<g clip-path="url(#clip0_618_2434)">
<path d="M2 2H398V198H2V2Z" fill="#EEEEEE" stroke="#2EC97D" stroke-width="4"/>
<path d="M103.461 67.9846C103.461 67.7003 103.214 67.3884 103.212 67.0791C103.207 66.8396 103.015 66.7248 102.957 66.5477C102.818 66.1311 102.738 65.6845 102.331 65.5473C101.922 65.4076 101.493 65.2505 101.111 65.2579C100.806 65.2654 100.499 65.4351 100.24 65.465C99.6409 65.5423 99.012 65.5024 98.463 65.6222C97.934 65.7344 97.4773 66.3307 96.8435 66.4878C96.3169 66.62 95.6955 66.3182 95.1565 66.4604C94.4753 66.64 94.4927 66.7049 93.814 66.8845C93.1327 67.0641 93.1502 67.124 92.4689 67.3036C91.7527 67.4932 91.054 67.7526 90.3378 67.9447C89.6216 68.1368 88.9328 68.4312 88.2141 68.6183C87.74 68.743 87.0038 68.9102 86.3101 69.0923C86.7518 68.7081 87.3457 68.2266 87.8074 67.8025C88.2466 67.4009 88.6409 66.9943 89.0327 66.62C89.4594 66.2109 89.8062 65.7619 90.1905 65.3702C90.5898 64.9611 91.1613 64.6842 91.568 64.2326C91.9748 63.7811 92.3117 63.3245 92.6985 62.863C93.0678 62.4215 93.255 61.8427 93.5919 61.3937C93.9387 60.9321 94.373 60.5405 94.6824 60.0765C95.0467 59.5301 95.1989 58.9339 95.4485 58.4424C95.7405 57.8662 96.2545 57.4271 96.4117 56.8807C96.5016 56.5764 96.2895 56.1772 96.3269 55.8255C96.3643 55.5012 96.5939 55.1544 96.544 54.8426C96.4841 54.4509 96.2495 54.1116 96.0699 53.8247C95.8503 53.473 95.461 53.3358 95.1066 53.1611C94.7298 52.974 94.3829 52.6697 93.9837 52.6797C93.6318 52.6897 93.2799 52.5924 93.0154 52.6572C92.9805 52.6647 93.0728 53.0214 93.0379 53.0314C92.4589 53.1886 91.8825 53.3807 91.2586 53.7424C90.747 54.0368 90.0932 54.2114 89.5093 54.6505C89.0202 55.0172 88.5136 55.369 88.1043 55.7606C87.6776 56.1673 87.2309 56.6088 86.7817 57.1177C86.4024 57.5443 86.1903 58.178 85.7561 58.7168C85.3918 59.1709 85.1871 59.7521 84.8303 60.2536C84.4959 60.7226 83.9918 61.0918 83.6524 61.6157C83.3105 62.1471 82.9412 62.6335 82.6393 63.1399C82.3198 63.6763 81.8781 64.1278 81.5912 64.6542C81.2967 65.1981 81.2967 65.9066 81.0222 66.4778C80.7527 67.0392 80.6105 67.6553 80.3634 68.2366C80.2661 68.4661 80.0115 68.516 79.9392 68.7056C79.5823 68.1668 79.3003 67.5855 78.9185 67.0367C78.5467 66.5028 78.11 65.9964 77.7107 65.465C77.3164 64.9411 76.9471 64.3848 76.5254 63.8759C76.1286 63.3994 75.4798 63.1799 75.0705 62.7707C74.6288 62.3292 74.3418 61.7579 73.8927 61.4036C73.3886 61.0095 72.7996 60.8797 72.333 60.6178C71.7341 60.281 71.2425 59.9841 70.7059 59.8469C70.0222 59.6698 69.3609 59.3655 68.762 59.4628C68.6272 59.4877 68.5049 59.5176 68.4201 59.5401C68.2254 59.59 68.1231 59.9367 67.941 60.0166C67.6864 60.1263 67.4219 60.2012 67.1749 60.3858C66.7107 60.7276 66.2565 61.0743 65.982 61.4061C65.6202 61.8502 65.2908 62.3391 65.0263 62.8406C64.7418 63.3794 64.8166 64.0131 64.6444 64.517C64.4498 65.0858 64.0006 65.5473 63.9432 66.0887C63.9108 66.3855 64.068 66.665 64.0855 66.9269C64.0979 67.1689 64.2327 67.336 64.2726 67.5131C64.32 67.7127 64.3425 67.8898 64.3974 68.0445C64.5247 68.3888 64.4498 68.8378 64.6345 69.0773C64.8566 69.3667 65.4006 69.3218 65.6601 69.5314C66.0744 69.8656 66.3913 70.4319 67.0052 70.6739C67.4618 70.856 68.0308 70.8361 68.6696 70.9733C69.321 71.1155 70.0172 71.3999 70.414 71.4697C71.0154 71.577 71.5544 71.7691 72.0435 71.8489C72.6524 71.9487 73.4584 72.0186 74.0149 72.1009C73.0891 72.303 72.1758 72.4053 71.4446 72.5549C70.7134 72.7071 69.9473 72.5874 69.1687 72.7445C68.5199 72.8743 68.5074 72.8094 67.8586 72.9391C67.3096 73.0514 66.823 73.5703 66.2515 73.6875C65.6801 73.8048 65.0437 73.5428 64.4847 73.6626C63.7835 73.8148 63.3069 74.1366 62.8228 74.2513C62.6106 74.3037 62.5907 74.2214 62.3786 74.2738C62.1165 74.3386 61.7198 74.3012 61.3554 74.4235C61.0036 74.5432 60.6667 74.7428 60.3547 74.9249C60.2724 74.9748 60.3547 75.2742 60.2699 75.3465C60.0952 75.4962 59.8207 75.6084 59.7059 75.8878C59.5213 76.3394 59.4963 76.7785 59.7109 77.1726C59.8731 77.4745 59.963 77.7963 60.1751 78.153C60.215 78.2179 60.3972 78.1106 60.4346 78.1755C60.779 78.7568 60.8838 79.4902 61.2406 80.0715C61.5975 80.6527 62.2114 81.0743 62.5682 81.6481C62.6406 81.7629 62.3611 81.9375 62.4335 82.0522C62.6431 82.3865 62.8352 82.7208 63.0374 83.0451C63.3219 83.5466 63.8484 83.9083 64.1354 84.4072C64.3924 84.8538 64.8166 85.213 65.0812 85.6671C65.3482 86.1236 65.4904 86.65 65.7499 87.089C65.8697 87.2936 65.982 87.2287 66.1018 87.4308C66.3863 87.9173 66.6508 88.4686 66.9727 89.01C67.2772 89.5189 67.3845 90.165 67.6964 90.6789C68.0632 91.2801 68.5349 91.7791 68.9641 92.4626C69.1987 92.8368 69.2885 93.3008 69.5231 93.675C69.8375 94.179 70.3965 94.5307 70.7109 95.0347C71.0254 95.5386 71.0828 96.2022 71.3972 96.7036C71.7141 97.2125 71.9686 97.7564 72.2856 98.2503C72.61 98.7592 72.9044 99.2806 73.2239 99.7671C73.5183 100.216 74.1771 100.441 74.4816 100.882C74.806 101.354 74.8933 101.97 75.1803 102.377C75.2003 102.406 75.2327 102.384 75.2527 102.411C75.5721 102.871 75.9364 103.225 76.2334 103.614C76.3482 103.764 76.5453 103.853 76.6826 104.008C76.705 104.033 76.6876 104.05 76.71 104.075C76.7774 104.153 76.735 104.39 76.8398 104.477C76.9571 104.579 77.1567 104.597 77.3214 104.677C77.6483 104.826 78.0002 104.679 78.4569 104.669C78.7139 104.664 79.0134 104.976 79.3328 104.934C79.9991 104.841 80.6204 104.594 81.152 104.467C81.2268 104.45 81.2468 104.203 81.3217 104.183C81.7459 104.078 82.1876 104.033 82.8788 103.836C83.5102 103.656 84.0742 103.626 84.5782 103.462C85.1272 103.282 85.6288 102.938 86.2003 102.736C86.7393 102.544 87.4006 102.646 87.9746 102.429C88.4462 102.249 88.8929 101.955 89.3571 101.773C89.8761 101.571 90.3777 101.404 90.787 101.241C91.0315 101.147 90.9317 100.892 91.1738 100.797C91.7452 100.573 92.3965 100.555 92.968 100.333C93.7191 100.039 93.784 100.204 94.5352 99.9093C95.0717 99.6972 95.5059 99.2307 96.0374 99.0212C96.569 98.8116 97.083 98.5247 97.6121 98.3127C97.6844 98.2828 97.7593 98.4674 97.8317 98.4399C98.2284 98.2803 98.7849 98.2329 99.2516 98.0358C99.4862 97.936 99.7457 97.8761 99.9803 97.7713C100.025 97.7514 99.9878 97.6691 100.033 97.6491C100.247 97.5543 100.387 97.245 100.617 97.1053C100.834 96.9755 101.206 96.9805 101.405 96.751C101.525 96.6113 101.52 96.3668 101.595 96.2122C101.682 96.0251 101.922 95.8729 101.967 95.7157C102.052 95.4363 101.745 95.0621 101.779 94.8126C101.817 94.5632 101.929 94.3137 101.967 93.9719C102.029 93.3882 102.358 92.8318 102.401 92.293C102.453 91.6419 102.181 91.0282 102.211 90.5642C102.256 89.8557 102.376 89.1372 102.416 88.4362C102.458 87.6828 102.63 86.9618 102.663 86.3107C102.67 86.166 102.533 86.161 102.541 86.0163C102.583 85.2031 102.795 84.3973 102.84 83.584C102.855 83.2946 102.603 83.2796 102.618 82.9903C102.645 82.4813 102.77 81.9599 102.798 81.4211C102.825 80.8822 103.092 80.3908 103.12 79.8594C103.147 79.338 102.907 78.7992 102.93 78.2703C102.955 77.7439 102.975 77.215 102.995 76.6911C102.997 76.6587 102.937 76.7785 102.94 76.746C102.96 76.2221 103.287 76.2296 103.294 75.7057C103.299 75.4413 103.302 75.4488 103.314 75.1843C103.327 75.1095 103.12 75.0247 103.115 74.9748C103.115 74.8276 103.334 74.8351 103.339 74.6879C103.352 74.3262 103.095 73.9545 103.107 73.5927C103.107 73.5528 103.12 73.5553 103.12 73.5154C103.142 72.6697 103.434 71.9163 103.449 71.2003C103.459 70.7089 103.06 70.7014 103.067 70.2099C103.08 69.5189 103.142 68.778 103.145 68.062C103.172 67.9522 103.449 68.0445 103.449 67.9996L103.461 67.9846ZM101.023 84.8064C100.874 84.8264 100.886 84.9586 100.789 85.0733C100.681 85.2006 100.968 85.2155 100.963 85.3802C100.963 85.4226 100.674 85.4525 100.672 85.4974C100.672 85.5324 100.649 85.7594 100.684 85.7669C100.829 85.8018 100.879 85.6371 101.028 85.6346L101.001 85.3378C100.851 85.3552 100.929 85.8068 100.784 85.8392C100.766 85.8417 100.522 85.6097 100.522 85.6272C100.499 86.171 100.539 86.7024 100.514 87.2163C100.487 87.7651 100.522 88.299 100.494 88.8054C100.467 89.3293 100.504 89.8881 100.462 90.4943C100.427 91.0107 100.494 91.577 100.447 92.1882C100.397 92.8019 100.375 93.3632 100.32 93.8896C100.267 94.3935 100.03 94.8575 99.9079 95.3066C99.8879 95.364 99.8979 95.4114 99.8804 95.4488C99.858 95.4812 99.8854 95.561 99.853 95.5985C99.8181 95.6259 99.6658 95.4588 99.6384 95.4737C99.3414 95.6234 99.0345 95.793 98.7151 95.9253C98.6053 95.9702 98.5778 96.2122 98.468 96.2596C98.3632 96.302 98.3158 96.1872 98.211 96.2296C97.7843 96.4067 97.4224 96.746 96.9957 96.9206C96.4517 97.1427 95.7929 97.0653 95.2613 97.2774C94.7298 97.4894 94.2706 97.9759 93.7466 98.183C92.676 98.6096 92.681 98.617 91.5456 98.8091C91.4333 98.3401 91.3609 98.0208 91.2611 97.6541C91.1064 97.0928 90.9417 97.1377 90.787 96.5764C90.5449 95.7107 90.5474 94.87 90.3677 94.1914C90.2155 93.6252 90.203 93.0189 90.0533 92.4501C89.9036 91.8814 89.397 91.4074 89.2473 90.8386C89.2123 90.7089 89.2647 90.6939 89.2298 90.5642C89.0801 90.0004 89.1425 89.3767 88.9927 88.8054C88.843 88.2416 88.7507 87.6603 88.5984 87.089C88.4487 86.5252 88.309 85.954 88.1542 85.3827C87.9995 84.8114 87.6102 84.3149 87.453 83.7486C87.2259 82.9279 86.8192 82.162 86.5871 81.3388C86.3051 80.3359 86.1504 80.3085 86.2252 79.2682C86.9464 79.0885 87.6427 78.9663 88.2865 78.8116C88.9952 78.6395 89.7014 78.637 90.3602 78.4848C91.0939 78.3152 91.0215 78.0009 91.7577 77.8312C92.5687 77.6441 93.4471 77.3148 94.343 77.1028C94.897 76.9705 95.5009 77.1577 96 77.0354C96.564 76.8982 97.113 76.8533 97.5996 76.7311C98.6452 76.4716 98.6302 76.4117 99.6733 76.1523L99.6808 76.2072C100.068 76.1174 99.9902 75.7906 100.377 75.7007C100.592 75.6484 100.836 75.7806 101.111 75.7207C101.083 76.3494 101.278 76.9606 101.25 77.5892C101.228 78.0907 101.123 78.5846 101.098 79.111C101.076 79.59 100.781 80.0789 100.754 80.6228C100.749 80.7375 100.754 80.7375 100.749 80.8498C100.719 81.4635 100.986 82.1321 100.956 82.8056C100.926 83.4443 100.829 84.0954 100.806 84.744C100.801 84.8663 100.614 84.9611 100.706 85.0409C100.819 85.1382 100.901 85.0683 101.048 85.0733V84.7515L101.143 84.981C101.131 84.8837 101.023 84.7989 101.023 84.7989V84.8064ZM77.6309 102.933C77.7357 102.826 77.6034 102.706 77.6533 102.566C77.6783 102.494 77.4761 102.658 77.4287 102.599C77.1966 102.297 77.1942 101.81 76.9995 101.541C76.6202 101.019 76.4106 100.478 76.1036 100.034C76.0787 99.9442 75.924 99.9293 75.8666 99.8369C75.7618 99.6698 75.7842 99.4104 75.652 99.2183C75.6095 99.1584 75.2177 99.4278 75.1778 99.3655C74.8734 98.9214 74.9582 98.2428 74.6837 97.8312C74.3892 97.3847 74.0549 96.9955 73.7878 96.5739C73.5009 96.1198 73.164 95.6982 72.8795 95.2417C72.8371 95.1719 72.7747 95.2093 72.7323 95.1419C72.4603 94.7054 72.0909 94.3262 71.8164 93.8896C71.764 93.8048 71.8913 93.7973 71.7915 93.7948C71.6442 93.7898 71.6417 93.7025 71.5145 93.7798L71.5569 93.8422C71.6717 93.7449 71.6293 93.7025 71.7316 93.5927C71.7441 93.5802 71.9088 93.5204 71.8988 93.5054C71.6293 93.0813 71.3198 92.6722 71.0453 92.2356C70.7708 91.799 70.3216 91.4822 70.0571 91.0506C69.7427 90.5367 69.563 89.9979 69.2935 89.5563C68.9841 89.0474 68.5524 88.6682 68.2803 88.2166C68.0208 87.7851 68.0333 87.1888 67.7763 86.7572C67.5167 86.3232 67.0151 86.0363 66.7581 85.6022C66.546 85.2455 66.7481 85.1257 66.536 84.769C66.3888 84.522 66.1392 84.3673 65.992 84.1204C66.7656 83.9432 67.4968 83.6089 68.173 83.4568C68.3003 83.4293 68.3502 83.6489 68.4775 83.6214C68.6846 83.5765 68.9117 83.6713 69.1338 83.6214C69.1563 83.6189 69.0065 83.2871 69.029 83.2821C70.0172 83.0601 70.0272 83.105 71.0129 82.8755C71.5843 82.7433 72.2132 82.8206 72.7921 82.6834C73.3711 82.5462 73.965 82.4689 74.534 82.3341C75.1229 82.1944 75.7069 82.0722 76.2658 81.94C76.8398 81.8053 76.7849 81.5683 77.3589 81.4311C77.8555 81.3138 78.4394 81.0619 78.8536 80.9571C79.1082 81.5259 79.2429 82.2768 79.5 82.853C79.7595 83.4368 79.7071 83.4593 79.9666 84.043C80.2386 84.6517 80.3584 85.3228 80.6129 85.8966C80.9024 86.5502 81.4639 87.0342 81.6935 87.5556C81.8207 87.8449 81.933 87.795 82.0603 88.0844C82.3273 88.6931 82.2974 89.4316 82.5669 90.0378C82.7865 90.5317 82.9262 91.0606 83.1434 91.5546C83.363 92.0485 83.6375 92.5175 83.8571 93.0115C84.0767 93.5054 84.2513 94.0193 84.4709 94.5108C84.693 95.0047 85.2196 95.3615 85.4392 95.8504C85.5115 96.0126 85.2969 96.1124 85.3693 96.2745C85.5864 96.7535 85.9907 97.1003 86.1828 97.5194C86.3949 97.9834 86.5197 98.4524 86.7243 98.8865C86.9514 99.3704 86.9439 99.9841 87.1835 100.478C87.2184 100.55 87.2359 100.466 87.2384 100.545C87.176 100.568 87.3407 100.69 87.2783 100.713C86.7243 100.92 86.1654 101.047 85.6463 101.229C85.0898 101.424 84.5134 101.496 83.9893 101.663C83.4303 101.843 82.8888 102.002 82.3573 102.155C81.7983 102.317 81.3316 102.773 80.7901 102.908C80.6903 102.933 80.6105 102.606 80.5106 102.631C79.8543 102.783 79.0608 103.135 78.3096 103.14C78.2348 103.135 78.1275 103.235 78.0701 103.225C78.0526 103.217 78.0052 103.16 77.9877 103.152C77.9802 103.147 78.1799 102.895 78.1799 102.895C78.0626 102.763 77.8505 102.958 77.7457 102.821C77.5984 102.841 77.4038 102.606 77.3613 102.748C77.3339 102.843 77.6234 102.923 77.6234 102.923L77.6309 102.933ZM70.7683 64.6068C70.8232 64.6293 70.7484 64.7316 70.8058 64.759C71.5669 65.1257 72.3829 65.45 72.9818 65.8567C73.6256 66.2957 74.1272 67.0367 74.8534 67.6454C74.9308 67.7102 74.8359 67.8175 74.9133 67.8824C75.0955 68.0395 75.4299 67.9846 75.6095 68.1493C75.078 67.8898 74.6238 67.4682 74.0948 67.1514C73.693 66.9119 73.0567 67.0666 72.6973 66.8171C72.318 66.5527 72.2307 65.924 71.8888 65.6421C71.5195 65.3278 71.1327 65.0035 70.7708 64.6093L70.7683 64.6068ZM73.5283 64.0655C73.0517 63.7536 72.5152 63.7112 72.0909 63.4892C71.6343 63.2522 71.1052 63.1848 70.5712 63.0426C70.4165 63.0002 70.3266 62.6884 70.1594 62.661C70.0097 62.636 69.8375 62.4714 69.6504 62.4863C69.4532 62.5013 69.1587 62.6809 68.9666 62.7882C68.6247 62.9678 68.1905 63.2722 68.1156 63.6089C67.9484 64.3524 68.7919 64.8912 69.2361 65.4226C69.5306 65.7768 69.5455 66.4304 70.0122 66.8496C70.4813 67.2737 70.9779 67.603 71.4271 67.9422C71.8913 68.2915 72.4303 68.5784 72.9618 68.8952C73.4535 69.1871 74.0174 69.4091 74.5814 69.681C75.1753 69.9679 75.8391 70.1376 76.3582 70.3696C76.3881 70.3821 76.3981 70.3596 76.428 70.3721C76.5428 70.422 76.6052 70.5342 76.7075 70.5791C76.1436 70.4768 75.5771 70.3995 75.0106 70.2972C74.9033 70.2773 74.8883 70.3521 74.781 70.3322C74.3693 70.2548 73.9975 69.9555 73.5832 69.8806C73.2863 69.8257 73.2788 69.8706 72.9818 69.8158C71.9013 69.6187 71.0927 69.686 70.2942 69.5264C70.2792 69.5239 70.3042 69.3991 70.2867 69.3966C69.8176 69.3018 69.2735 69.3692 68.7695 69.237C68.2654 69.1048 67.9085 68.6632 67.4494 68.4611C67.1299 68.304 66.6907 68.3588 66.4337 68.1593C66.269 68.0121 66.3064 67.7102 66.2041 67.573C66.1293 67.4508 65.9845 67.4034 65.9446 67.3086C65.8922 67.1414 65.6901 66.9843 65.6701 66.8096C65.6576 66.5427 65.9022 66.2583 65.9496 65.9465C66.0669 65.3552 66.3938 64.8189 66.6708 64.2002C66.8479 63.826 66.6832 63.3645 66.8455 63.1125C67.0052 62.863 67.2422 62.6285 67.4369 62.389C67.7164 62.0697 68.1007 62.0024 68.3278 61.8352C68.48 61.7404 68.6247 61.7354 68.7744 61.678C68.8244 61.6631 68.8568 61.6681 68.9092 61.6556C69.044 61.6232 69.1213 61.3612 69.2411 61.3463C69.4931 61.3338 69.7876 61.1641 70.0372 61.2016C70.3591 61.2689 70.651 61.5857 70.9879 61.7304C71.6118 62.0323 72.2132 62.4963 72.892 63.0501C72.9718 63.1175 72.9394 63.3021 73.0167 63.3695C73.4235 63.7362 74.0499 63.9083 74.4566 64.3499C74.8235 64.7515 75.2951 65.1157 75.6744 65.5897C75.6869 65.6072 75.5646 65.7095 75.5796 65.7269C74.8085 65.1008 74.1871 64.4996 73.5308 64.068L73.5283 64.0655ZM74.6812 73.9594C74.9582 73.8996 74.9058 73.6476 75.1853 73.5952C75.1953 73.5952 75.4024 73.5578 75.4074 73.5653C75.4748 73.705 75.2826 73.9694 75.3525 74.1091C75.5297 74.4684 75.5821 74.89 75.7618 75.2467C75.8042 75.3315 75.9265 75.2717 75.9689 75.3565C76.2084 75.8355 76.2833 76.3618 76.4929 76.7984C76.7225 77.2799 77.3688 77.5368 77.5685 77.9809C77.7706 78.425 77.5635 79.0536 77.7731 79.5176C77.813 79.6074 77.9777 79.4503 77.9253 79.5326C77.6883 79.59 77.5485 79.6474 77.3114 79.7072C76.7574 79.8419 76.2284 80.044 75.6919 80.1737C75.1354 80.3085 74.6138 80.5479 74.0798 80.6752C73.5183 80.8099 72.9768 80.9671 72.4478 81.0918C71.8788 81.229 71.2899 81.1841 70.7683 81.3088C70.2168 81.441 69.7028 81.5932 69.1712 81.7155C68.6397 81.8377 68.1456 82.0323 67.5841 82.162C67.4968 82.182 67.4469 81.9624 67.3595 81.9824C66.8854 82.0922 66.4187 82.2468 65.9421 82.3591C65.8223 82.3865 65.7549 82.626 65.6352 82.656C65.4904 82.6909 65.4605 82.5687 65.3157 82.6061C65.2209 82.631 65.1186 82.858 65.0487 82.7907C64.8316 82.5886 65.1435 82.3441 64.9913 82.0922C64.7642 81.7155 64.2926 81.4884 64.063 81.1093C63.9757 80.9671 64.1778 80.8448 64.0905 80.7026C63.801 80.2261 63.4167 79.8095 63.1322 79.3305C62.99 79.0935 62.8452 79.1809 62.703 78.9439C62.3137 78.2952 62.0691 77.4495 61.6599 76.6961C61.6499 76.6762 61.7772 76.6088 61.7672 76.5914C61.7547 76.5664 61.4677 76.5265 61.4527 76.499C61.6374 76.4242 61.8895 76.4043 62.0716 76.3569C62.5233 76.2346 63.0324 76.3369 63.489 76.2296C63.811 76.1548 64.1479 76.1423 64.4748 76.0675C65.0238 75.9452 65.5753 75.8404 66.1293 75.7257C66.6832 75.6109 67.1848 75.2567 67.7363 75.1469C68.2878 75.0372 68.8119 74.7428 69.3584 74.633C70.2518 74.4559 70.2942 74.663 71.1876 74.4858C71.7615 74.3686 72.3505 74.3062 72.9269 74.1815C73.5034 74.0567 74.0474 74.0942 74.6213 73.9669C74.7211 73.9769 74.6837 73.9594 74.6862 73.9594H74.6812ZM83.7997 88.0844C83.4428 87.2687 82.8614 86.5502 82.507 85.7294C82.4721 85.6496 82.3124 85.7195 82.2774 85.6371C82.0379 85.0858 82.0553 84.4047 81.8058 83.8335C81.5612 83.2697 81.4414 82.646 81.1969 82.0872C80.9548 81.5358 80.8325 81.5907 80.588 81.0394C80.578 81.0145 80.7128 80.9246 80.7003 80.9022C80.6878 80.8847 80.2486 81.0718 80.2212 81.007C80.2062 80.9745 80.6005 80.7575 80.583 80.7176C80.5655 80.6777 80.4907 80.6652 80.4732 80.6228C80.2885 80.1762 80.2461 80.1912 80.0465 79.7496C79.9317 79.4952 79.8543 79.5301 79.7246 79.2806C79.6372 79.111 79.4575 78.9763 79.3802 78.8042C79.3128 78.657 79.208 78.4749 79.1456 78.2828C79.1406 78.2628 79.3278 78.2179 79.3228 78.1979C79.3128 78.163 79.2779 78.1655 79.2629 78.1331C78.941 77.4121 78.6066 76.8533 78.357 76.307C78.1674 75.8928 78.1624 75.3415 77.9403 74.8675C77.7382 74.4334 77.4836 73.9969 77.2665 73.5453C77.2116 73.4306 76.9945 73.3008 76.9371 73.1886C77.3564 73.0963 77.828 73.1187 78.2472 73.0289C78.5342 72.9666 78.7838 72.7346 79.0707 72.6722C79.3028 72.6223 79.3702 72.9316 79.6023 72.8817C80.0664 72.7819 80.4732 72.4028 80.9374 72.303C80.9997 72.2905 81.0497 72.52 81.112 72.505C81.3192 72.4601 81.5038 72.308 81.711 72.2631C81.8781 72.2256 82.1427 72.061 82.3099 72.0211C82.4097 72.1209 82.1626 72.2805 82.1976 72.4177C82.2924 72.7795 82.2699 73.2485 82.3972 73.68C82.527 74.1166 83.0086 74.4459 83.1483 74.9099C83.333 75.5236 83.4628 76.1423 83.6399 76.7535C83.7423 77.1003 83.6325 77.5119 83.7373 77.8736C83.8171 78.1056 83.8171 78.3052 83.8595 78.4699C83.887 78.5672 83.897 78.662 83.9194 78.7592C83.9494 78.884 84.2139 78.9513 84.2488 79.096C84.2688 79.1709 84.4485 79.116 84.4684 79.1908C84.4784 79.2282 84.2888 79.3255 84.2963 79.3505C84.3062 79.3829 84.2663 79.4478 84.2938 79.4977C84.3936 79.8245 84.2339 79.8694 84.3287 80.1987C84.4984 80.7849 84.975 81.2739 85.1397 81.8452C85.3094 82.4314 85.5939 82.9753 85.7561 83.5491C85.9183 84.1228 85.7761 84.8014 85.9383 85.3752C86.1005 85.949 86.1828 86.5602 86.345 87.1364C86.5172 87.7476 86.7393 88.3214 86.8965 88.8977C87.0637 89.5039 87.1735 90.1076 87.3282 90.6914C87.3956 90.9434 87.72 90.856 87.7874 91.108C87.9122 91.572 87.8149 92.1308 87.9521 92.6348C88.0844 93.1212 88.4387 93.5528 88.576 94.0368C88.818 94.885 89.0102 95.8205 89.2098 96.4866C89.3596 96.9855 89.1 97.0628 89.2498 97.5643C89.4319 98.168 89.5891 98.6769 89.7464 99.2332C89.7788 99.348 90.0683 99.2657 90.1007 99.3829C90.1132 99.4278 90.0408 99.5376 90.0533 99.5825C89.9435 99.6498 89.8836 99.5276 89.7613 99.575C89.4868 99.6823 89.2547 99.8045 88.9528 99.9268C88.7282 99.4378 88.2391 99.116 88.0195 98.6345C87.7974 98.1431 87.8822 97.5169 87.6676 97.0354C87.453 96.5539 87.0762 96.1223 86.8616 95.6409C86.6395 95.1469 86.3201 94.7029 86.1055 94.2239C85.8285 93.6027 85.5839 92.9666 85.3069 92.3454C85.272 92.268 85.5689 92.1333 85.534 92.056C85.2795 91.4872 84.6132 90.9658 84.2913 90.2374C84.0068 89.5987 84.0891 88.7555 83.7972 88.0844H83.7997ZM94.3804 54.9673C94.4054 55.0571 94.6624 55.092 94.6799 55.2043C94.6849 55.4388 94.8371 55.7282 94.7997 55.9777C94.7048 56.4167 94.2781 56.7884 94.056 57.2874C93.8264 57.7639 93.4521 58.1406 93.1776 58.5746C92.8906 59.0337 92.7035 59.5326 92.404 59.9343C92.0646 60.3858 91.608 60.6901 91.3035 61.0519C91.2736 61.0868 91.6329 61.3961 91.603 61.4311C91.5755 61.461 91.5481 61.4311 91.5231 61.461C91.6005 61.3388 91.618 61.1866 91.6953 61.0569C91.8226 60.8448 91.8999 60.5779 92.0372 60.3159C92.1894 60.0166 92.2443 59.7172 92.3342 59.4677C92.4514 59.1484 92.414 58.8615 92.4514 58.6021C92.5088 58.2279 92.4614 57.9984 92.3317 57.7464C92.2468 57.5892 92.2368 57.2749 92.0322 57.1751C92.0147 57.1651 92.0023 57.1926 91.9823 57.1826C91.9124 57.1477 91.8176 57.1876 91.7552 57.1701C91.6853 57.1477 91.5456 56.8932 91.4283 56.8982C91.3085 56.9057 91.1738 56.9631 91.054 56.993C91.0215 57.0005 91.0789 57.2076 91.0465 57.2175C90.9192 57.2599 90.777 57.1801 90.6971 57.2175C90.5399 57.2974 90.5 57.5369 90.4002 57.6067C90.1581 57.7788 89.7389 57.7339 89.5991 57.8637C89.0202 58.4 88.6459 59.2058 88.0419 59.9118C87.9671 59.9991 87.715 59.9318 87.6402 60.0216C87.5828 60.0864 87.6626 60.1563 87.6027 60.2187C87.5878 60.2336 87.7001 60.3633 87.6851 60.3858C87.5728 60.5205 87.3981 60.3758 87.2858 60.5105C86.9664 60.8972 86.5222 61.224 86.1679 61.678C85.8634 62.0697 85.8335 62.7158 85.4841 63.1799C85.2071 63.5516 84.8403 63.9532 84.5009 64.4172C84.1989 64.8289 83.7073 65.1382 83.4004 65.5773C83.1708 65.9066 83.2407 66.3631 83.0385 66.6625C83.3729 66.0238 83.7173 65.4376 84.0717 64.8388C84.3811 64.3149 84.4784 63.6838 84.7854 63.1973C85.1098 62.6834 85.282 62.0847 85.6089 61.6082C85.9532 61.1068 86.4723 60.745 86.8167 60.286C87.181 59.802 87.5928 59.3754 87.9621 58.9314C88.012 58.8715 88.1318 58.9763 88.1817 58.9164C88.7581 58.2528 89.0202 57.5094 89.5118 57.0504C90.0408 56.5589 90.5574 55.9752 91.1563 55.5461C91.9024 55.0397 92.666 54.9923 93.24 54.7777C93.3124 54.7553 93.3972 54.8201 93.4721 54.8027C93.6193 54.7652 93.7266 54.6829 93.8439 54.6679C93.9662 54.663 94.0435 54.7153 94.1509 54.7253C94.2033 54.7378 94.3455 54.4359 94.3904 54.4534C94.4254 54.4734 94.348 54.7029 94.3879 54.7303C94.4179 54.7603 94.62 54.6505 94.6425 54.6779C94.6674 54.7253 94.368 54.9199 94.3854 54.9648L94.3804 54.9673ZM87.211 63.7362C87.5404 63.3046 87.6502 62.7607 87.9421 62.3915C88.274 61.9724 88.4537 61.4735 88.7606 61.1093C89.1899 60.6028 89.8013 60.3509 90.1856 59.9542C90.2255 59.9118 90.3278 60.0116 90.3677 59.9717C90.4476 59.8918 90.3303 59.6349 90.4226 59.5401C90.1631 60.039 89.7139 60.4507 89.2972 61.0394C88.9228 61.5708 88.8729 62.4115 88.3314 63.0651C87.9646 63.4967 87.2309 63.6464 86.7792 64.1378C86.4049 64.5445 86.0431 65.0234 85.5714 65.5099C85.4042 65.682 85.4142 65.9864 85.2545 66.151C85.5365 65.7644 85.7761 65.3203 86.1179 64.8663C86.4049 64.4846 86.8641 64.1877 87.211 63.7362ZM99.566 74.1191C99.1118 74.2314 98.7151 74.5831 98.2609 74.6929C98.1486 74.7203 98.1885 74.89 98.0762 74.9174C97.6295 75.0247 97.113 74.8575 96.6663 74.9673C96.0574 75.117 95.3936 75.1344 94.7722 75.2841C94.1509 75.4338 93.5295 75.7232 92.943 75.8629C92.2343 76.0325 91.5531 76.0251 91.044 76.1473C90.5798 76.2571 90.6896 76.7236 90.223 76.8308C90.1631 76.8383 90.0009 76.4142 89.946 76.4342C89.2597 76.5988 88.5885 76.8284 87.8922 77.0005C87.216 77.1651 86.5447 77.3946 85.8385 77.5718C85.836 77.5718 85.8484 77.6416 85.8459 77.6441C85.8185 77.6516 85.7162 77.7389 85.7037 77.714C85.6313 77.4495 85.529 77.1726 85.4566 76.9057C85.3369 76.4591 85.3893 75.9652 85.2645 75.5161C85.242 75.4363 85.2146 75.4438 85.1921 75.3615C85.0349 74.7802 84.8028 74.2189 84.6506 73.6351C84.5258 73.1686 84.6082 72.6023 84.4535 72.076C84.436 72.0186 84.3936 72.031 84.3761 71.9737C84.3412 71.8614 84.139 71.7167 84.1041 71.6045C84.4734 71.5146 84.8952 71.5371 85.262 71.4448C85.3443 71.4248 85.3019 71.2552 85.3843 71.2352C85.9058 71.1055 86.5072 71.2776 87.0313 71.1429C87.5553 71.0082 88.0095 70.5966 88.5286 70.4619C89.0576 70.3247 89.6415 70.4145 90.1531 70.2798C90.6647 70.1451 91.1837 69.8956 91.6903 69.7634C91.8999 69.7085 91.855 69.5438 92.0646 69.4889C92.6186 69.3443 93.2375 69.4116 93.8364 69.252C94.3754 69.1073 94.9793 69.0923 95.5882 68.9276C95.6357 68.9152 95.5383 68.5609 95.5857 68.546C96.1073 68.4038 96.6588 68.309 97.1978 68.1668C97.7368 68.0246 98.3208 68.1019 98.8548 67.9772C99.4412 67.8424 99.8879 67.8125 100.297 67.7427C100.507 67.7052 100.726 67.6878 100.996 67.6628C101.098 67.6504 101.223 67.3934 101.373 67.3859C101.373 67.4183 101.592 67.4882 101.592 67.5231C101.592 67.5655 101.38 67.5655 101.383 67.6055C101.383 67.8674 101.325 68.1368 101.323 68.3863C101.323 68.4536 101.163 68.4512 101.161 68.5185C101.153 69.0898 101.465 69.686 101.45 70.3147C101.438 70.881 101.547 71.4772 101.53 72.1084C101.515 72.6747 101.173 73.2534 101.153 73.8846C101.093 73.9046 101.116 73.7599 101.051 73.7748C100.297 73.7798 100.282 73.932 99.561 74.1116L99.566 74.1191Z" fill="#DD1A22"/>
<path d="M141.093 137.357C140.614 137.692 139.883 137.752 139.331 137.485C138.505 137.086 138.006 136.237 137.555 135.437C135.454 131.7 133.355 127.965 131.254 124.228C129.385 120.905 126.844 117.891 124.628 114.761C124.209 114.169 123.076 111.582 122.018 112.121C121.713 112.276 121.654 112.68 121.651 113.019C121.641 114.132 121.838 115.257 122.235 116.297C122.619 117.305 123.914 118.839 122.118 119.316C120.758 119.678 119.944 117.979 119.213 117.148C118.904 116.799 118.512 116.542 118.255 116.153C117.516 115.03 117.017 113.648 116.423 112.44C116.316 112.221 116.198 111.991 116.004 111.844C115.595 111.532 114.943 111.719 114.664 112.154C114.177 112.907 114.789 114.234 115.043 114.995C115.39 116.033 115.872 117.021 116.393 117.979C116.52 118.211 116.428 118.797 116.538 119.094C116.63 119.348 116.797 119.548 116.905 119.79C117.094 120.219 117.154 120.433 116.825 120.75C116.53 121.032 116.024 121.242 115.625 121.282C115.033 121.344 114.447 121.057 114.015 120.648C113.306 119.979 113.014 119.154 112.558 118.35C112.223 117.764 111.814 117.225 111.402 116.691C110.995 116.163 110.574 115.641 110.209 115.08C109.882 114.573 109.695 113.942 109.343 113.463C109.251 113.336 109.104 113.239 108.947 113.246C108.792 113.254 108.655 113.363 108.58 113.498C108.505 113.633 108.475 113.79 108.455 113.945C108.378 114.571 108.355 115.444 108.69 116.005C108.997 116.524 109.406 116.993 109.708 117.535C110.354 118.687 111.118 119.917 111.51 121.184C111.799 122.12 110.923 123.365 109.99 123.589C109.553 123.694 108.997 123.579 108.667 123.26C108.338 122.941 108.32 122.549 107.874 122.327C107.449 122.12 106.935 120.863 106.673 120.451C106.254 119.792 105.832 119.134 105.408 118.478C104.694 117.375 103.719 116.312 103.145 115.155C101.785 112.413 100.395 109.694 98.8874 107.029C98.6578 106.625 98.4208 106.211 98.0614 105.914C97.7046 105.617 97.198 105.455 96.7638 105.622C96.2223 105.834 95.9727 106.496 96.0501 107.072C96.1499 107.825 96.659 108.604 96.951 109.307C97.3003 110.145 97.6746 110.976 98.0664 111.794C98.865 113.471 99.7484 115.107 100.722 116.689C102.184 119.064 104.008 121.197 105.393 123.622C105.802 124.34 105.695 125.752 106.89 126.271C106.96 127.214 104.233 127.611 103.477 127.459C103.2 127.404 103.02 126.94 102.883 126.952C102.745 126.962 102.638 127.449 102.376 127.546C101.533 127.855 101.066 127.164 99.4414 127.773C98.6454 128.07 97.6572 128.239 96.931 128.706C96.3545 129.078 96.6166 129.26 96.649 129.833L98.9648 131.128C102.127 131.772 105.5 132.141 108.582 133.087C109.72 133.436 110.147 134.227 111.12 134.908C112.662 135.99 114.307 136.953 115.894 137.971C119.158 140.067 122.425 142.162 125.689 144.258C127.321 145.306 129.018 146.331 130.54 147.541C131.408 148.232 132.239 149.983 130.26 149.721C129.721 149.649 129.25 149.337 128.798 149.033C126.879 147.738 124.96 146.446 123.041 145.151C119.979 143.088 116.917 141.022 113.855 138.959C111.27 137.218 109.204 135.464 106.249 134.621C105.975 134.543 105.785 134.092 105.461 133.945C105.206 133.83 104.392 134.142 103.993 134.059C102.501 133.743 98.3559 132.907 97.2205 132.371C96.8137 132.178 96.4593 131.58 96.0351 131.355C95.8529 131.26 95.0893 131.632 94.5104 130.737C93.7593 129.574 95.1218 127.753 96.0601 126.927C96.8961 126.555 97.8393 126.558 98.598 126.361C98.7427 126.323 98.8076 125.994 98.9373 125.967C99.7359 125.79 103.918 125.954 103.846 125.034C103.015 124.687 103.357 124.078 103.197 123.794C101.937 121.574 100.397 119.51 99.0172 117.477C98.5805 116.834 98.3833 116.02 97.999 115.354C97.3827 114.282 96.7788 113.216 96.2572 112.091C95.6583 110.799 95.1417 109.469 94.71 108.112C94.3656 107.027 93.4523 105.326 94.4854 104.44C97.0483 102.24 99.656 105.455 100.974 107.444C102.142 109.207 102.975 111.156 104.093 112.947C104.677 113.885 105.326 114.78 105.947 115.694C106.351 116.287 106.691 117.415 107.377 117.714C107.794 117.298 107.088 116.562 106.898 116.17C106.573 115.501 106.364 114.773 106.486 114.025C106.646 113.039 107.27 112.119 108.173 111.672C108.962 111.283 109.975 111.268 110.676 111.797C111.247 112.228 111.532 112.934 111.791 113.603C111.894 113.867 112.538 116.105 113.032 115.898C113.441 115.728 112.904 114.199 112.807 113.925C112.48 112.994 112.044 111.712 112.637 110.799C112.964 110.297 113.361 110.273 113.87 110.103C114.564 109.871 115.14 109.439 115.912 109.694C116.376 109.846 116.73 110.218 117.044 110.592C117.598 111.248 118.155 111.966 118.547 112.732C118.866 113.354 119.018 114.179 119.642 114.583L119.585 111.453C120.019 110.841 120.715 109.759 121.531 109.644C121.848 109.599 122.168 109.686 122.465 109.806C124.556 110.652 125.856 112.657 127.031 114.466C128.107 116.12 129.078 117.841 130.168 119.483C131.8 122.245 133.936 124.762 135.793 127.374C137.572 129.878 139.157 132.46 140.954 134.955C141.313 135.454 141.692 136.033 141.572 136.637C141.513 136.936 141.338 137.173 141.098 137.343L141.093 137.357Z" fill="#DD1A22"/>
<path d="M147.542 106.94C147.502 106.378 147.597 105.772 147.44 105.221C147.288 104.682 146.941 104.188 146.684 103.677C146.432 103.175 146.232 102.614 145.89 102.155C145.556 101.703 145.012 101.416 144.6 101.022C144.193 100.633 143.939 100.022 143.467 99.7C143.003 99.3857 142.289 99.4904 141.768 99.2559C141.236 99.0165 140.739 98.7321 140.17 98.5774C139.611 98.4227 139.072 98.1358 138.484 98.061C137.91 97.9861 137.316 98.1508 136.719 98.1533C136.143 98.1533 135.561 98.1159 134.97 98.1857C134.398 98.2556 133.864 98.5275 133.28 98.6597C132.719 98.7869 132.058 98.7296 131.491 98.9167C132.04 98.5475 132.669 98.2256 133.196 97.8415C133.732 97.4498 134.246 97.0357 134.748 96.6191C135.257 96.195 135.631 95.6336 136.095 95.1746C136.562 94.7081 136.919 94.1718 137.326 93.6553C137.73 93.1439 138.212 92.6999 138.548 92.1261C138.825 91.6496 139.237 91.213 139.447 90.6767C139.649 90.1553 139.587 89.5441 139.711 88.9878C139.834 88.4389 139.873 87.8926 139.908 87.3288C139.946 86.765 140.026 86.2137 139.966 85.6549C139.903 85.0911 139.991 84.4848 139.819 83.9485C139.649 83.4146 139.389 82.8758 139.1 82.3868C138.818 81.9103 138.231 81.6559 137.827 81.2417C137.43 80.8351 137.029 80.4958 136.547 80.189C136.078 79.8921 135.606 79.6526 135.057 79.448C134.546 79.2584 134.047 79.0115 133.463 78.9042C132.929 78.8044 132.375 78.7121 131.783 78.6822C131.239 78.6547 130.665 78.4826 130.074 78.5125C129.527 78.5425 128.988 78.8668 128.402 78.9466C127.858 79.019 127.249 78.8169 126.67 78.9341C126.079 79.0514 125.542 79.4356 124.953 79.5728C124.364 79.7125 123.815 79.9844 123.231 80.1441C122.647 80.3012 121.981 80.1665 121.402 80.3436C120.826 80.5233 120.322 80.9299 119.75 81.127C119.179 81.3241 118.602 81.4937 118.036 81.7107C117.472 81.9253 116.913 82.1473 116.354 82.3818C115.797 82.6163 115.213 82.7884 114.664 83.0404C114.115 83.2924 113.501 83.4994 112.962 83.7689C113.469 82.993 113.559 83.0429 114.188 82.3618C114.814 81.6783 114.774 81.6434 115.403 80.9598C116.032 80.2788 116.281 80.5108 116.91 79.8297C117.537 79.1487 117.372 78.9965 117.998 78.3154C118.625 77.6344 118.632 77.6419 119.261 76.9608C119.887 76.2798 119.952 76.3372 120.579 75.6561C120.998 75.2021 121.416 74.748 121.834 74.294C122.46 73.6129 122.445 73.6005 123.074 72.9194C123.7 72.2384 123.733 72.2683 124.359 71.5872C124.988 70.9062 124.993 70.9137 125.619 70.2326C126.246 69.5516 126.278 69.5815 126.905 68.9005C127.533 68.2194 127.449 68.1421 128.075 67.461C128.704 66.78 128.809 66.8773 129.435 66.1962C130.061 65.5152 129.862 65.3305 130.491 64.652C131.117 63.9709 131.349 64.183 131.975 63.5019C132.4 63.0429 132.507 62.282 132.914 61.7706C133.313 61.2667 133.75 60.8102 134.079 60.2638C134.416 59.7025 134.636 59.1312 134.838 58.535C135.05 57.9188 135.309 57.3525 135.314 56.7114C135.319 56.0902 135.182 55.4964 134.94 54.8603C134.71 54.2616 134.329 53.8225 133.902 53.3635C133.488 52.9194 133.136 52.3881 132.554 52.0837C132.028 51.8068 131.451 51.4999 130.802 51.3403C130.226 51.2006 129.587 51.0459 128.923 51.0035C128.327 50.9636 127.693 51.2779 127.034 51.3203C126.433 51.3577 125.814 51.3752 125.165 51.4825C124.564 51.5798 123.982 51.7769 123.383 51.8891C122.785 52.0014 122.173 52.0438 121.577 52.171C120.98 52.2957 120.411 52.5302 119.82 52.67C119.226 52.8072 118.575 52.7024 117.983 52.8521C117.392 53.0017 116.795 53.1315 116.206 53.2936C115.62 53.4533 115.004 53.5231 114.417 53.6928C113.833 53.8649 113.272 54.1269 112.69 54.3065C112.106 54.4861 111.495 54.5784 110.916 54.768C110.337 54.9576 109.873 55.494 109.297 55.691C108.72 55.8881 108.011 55.7135 107.437 55.918C106.863 56.1226 106.332 56.4519 105.76 56.664C105.189 56.876 104.573 56.9708 104.004 57.1879C103.432 57.4049 103 57.9812 102.434 58.2032C101.868 58.4252 101.206 58.4127 100.64 58.6398C99.8387 58.9616 98.7931 58.9366 98.3789 59.8073C98.2117 60.1565 98.2142 60.6081 98.4687 60.9C98.6758 61.137 99.0102 61.2268 99.3246 61.2118C99.9934 61.1769 100.697 60.8176 101.311 60.5757C101.87 60.3536 102.494 60.2937 103.053 60.0742C103.614 59.8547 104.076 59.3832 104.637 59.1686C105.201 58.9541 105.868 59.0215 106.432 58.8144C106.998 58.6048 107.472 58.1558 108.041 57.9537C108.608 57.7517 109.134 57.4323 109.703 57.2353C110.272 57.0407 110.944 57.1504 111.515 56.9608C112.086 56.7737 112.591 56.3721 113.165 56.1925C113.738 56.0128 114.327 55.8756 114.904 55.706C115.483 55.5364 116.064 55.3767 116.643 55.217C117.225 55.0574 117.826 54.9775 118.41 54.8304C118.991 54.6807 119.565 54.4886 120.152 54.3514C120.736 54.2142 121.315 54.0321 121.904 53.9098C122.493 53.7851 123.074 53.6129 123.665 53.5007C124.257 53.3909 124.908 53.6204 125.502 53.5231C125.886 53.4608 126.465 53.1539 127.182 53.114C127.713 53.0816 128.31 53.0866 128.906 53.1265C129.477 53.1689 130.044 53.3385 130.588 53.4907C131.159 53.6504 131.681 53.8799 132.125 54.2142C132.574 54.5534 132.941 54.9726 133.161 55.5438C133.388 56.1376 133.365 56.7363 133.246 57.355C133.131 57.9288 132.891 58.4876 132.572 59.0564C132.28 59.5803 131.893 60.0592 131.504 60.5557C131.117 61.0471 130.79 61.591 130.383 62.0326C129.769 62.6986 129.665 62.6038 129.051 63.2699C128.437 63.936 128.636 64.1181 128.023 64.7842C127.411 65.4503 127.179 65.2382 126.568 65.9018C125.954 66.5679 126.263 66.8523 125.649 67.5184C125.038 68.182 124.971 68.1196 124.357 68.7857C123.745 69.4518 123.785 69.4892 123.174 70.1553C122.56 70.8189 122.453 70.7216 121.839 71.3852C121.227 72.0513 121.255 72.0762 120.643 72.7423C120.03 73.4059 120.097 73.4683 119.483 74.1318C118.872 74.7979 118.712 74.6482 118.098 75.3143C117.487 75.9779 117.422 75.918 116.808 76.5841C116.197 77.2477 116.152 77.2078 115.54 77.8739C114.926 78.5375 115.158 78.752 114.547 79.4181C113.933 80.0817 113.896 80.0468 113.284 80.7129C112.67 81.3764 112.738 81.4413 112.126 82.1049C111.513 82.771 111.455 82.7161 110.844 83.3822C110.23 84.0458 110.31 84.1181 109.696 84.7842C109.084 85.4478 108.897 85.2757 108.283 85.9392C107.672 86.6053 107.652 86.5879 107.038 87.2515C106.696 87.6232 106.606 88.3516 106.936 88.7358C107.263 89.12 108.006 89.1574 108.426 88.8755C108.94 88.5337 109.509 88.2868 110.035 87.9625C110.562 87.6381 110.909 87.012 111.448 86.7076C111.984 86.4033 112.715 86.4581 113.264 86.1713C113.813 85.8869 114.302 85.4977 114.861 85.2308C115.418 84.9663 116.029 84.8266 116.596 84.5796C117.162 84.3352 117.584 83.7439 118.16 83.5194C118.734 83.2924 119.403 83.3123 119.987 83.1053C120.569 82.8982 121.172 82.7735 121.761 82.5889C122.353 82.4018 122.839 81.8704 123.436 81.7057C124.032 81.5411 124.634 81.364 125.233 81.2218C125.834 81.0796 126.503 81.2243 127.107 81.102C127.673 80.9898 128.235 81.0447 128.759 80.9773C129.333 80.9025 129.852 80.5008 130.376 80.4784C130.96 80.4534 131.529 80.4958 132.048 80.5382C132.632 80.5856 133.158 80.8326 133.662 80.9623C134.226 81.1095 134.67 81.4164 135.135 81.6658C135.634 81.9353 136.028 82.2396 136.407 82.6288C136.849 83.0803 137.218 83.5144 137.463 84.0757C137.707 84.6345 138.179 85.1684 138.254 85.7871C138.324 86.3958 138.169 87.0519 138.099 87.6681C138.029 88.2843 137.593 88.8106 137.403 89.3894C137.206 89.9906 137.161 90.6268 136.861 91.1382C136.577 91.6272 136.203 92.0438 135.853 92.4853C135.504 92.9244 135.185 93.3859 134.785 93.7876C134.391 94.1817 134.139 94.753 133.702 95.1222C133.278 95.4815 132.764 95.7609 132.307 96.1002C131.861 96.4344 131.302 96.624 130.832 96.9459C130.371 97.2627 130.036 97.7791 129.562 98.0909C129.422 98.1832 129.275 97.9612 129.136 98.0535C128.644 98.3753 128.09 98.6173 127.598 98.9491C127.109 99.2784 126.583 99.5703 126.101 99.917C125.622 100.261 125.362 100.9 124.903 101.272C124.442 101.643 123.982 102.003 123.551 102.409C123.121 102.813 122.518 103.055 122.128 103.502C121.741 103.943 121.402 104.45 121.065 104.941C120.788 105.341 120.945 105.922 121.292 106.261C121.639 106.6 122.126 106.608 122.52 106.323C122.984 105.987 123.518 105.742 123.99 105.408C124.459 105.076 124.958 104.782 125.435 104.457C125.911 104.136 126.398 103.834 126.887 103.527C127.376 103.22 127.885 102.961 128.387 102.679C128.891 102.397 129.228 101.788 129.747 101.541C130.268 101.294 130.942 101.394 131.481 101.189C131.995 100.995 132.569 100.588 133.293 100.406C133.887 100.256 134.556 100.196 135.247 100.114C135.876 100.039 136.53 100.221 137.206 100.246C137.847 100.269 138.461 100.351 139.12 100.496C139.744 100.633 140.415 100.621 141.031 100.897C141.605 101.157 142.132 101.484 142.616 101.858C143.115 102.24 143.714 102.546 144.101 103.018C144.5 103.504 144.612 104.188 144.874 104.737C145.146 105.306 145.558 105.839 145.66 106.438C145.765 107.054 145.576 107.693 145.478 108.302C145.381 108.9 145.441 109.564 145.184 110.1C144.929 110.629 144.577 111.168 144.201 111.645C143.836 112.101 143.128 112.261 142.681 112.675C142.252 113.074 141.793 113.426 141.311 113.79C140.839 114.149 140.542 114.76 140.046 115.09C139.544 115.424 138.918 115.556 138.416 115.866C137.653 116.337 137.735 116.472 136.971 116.943C136.322 117.343 135.911 118.009 135.978 118.807C136.018 119.291 136.412 119.78 136.896 119.74C137.326 119.705 137.74 119.036 138.122 118.799C138.885 118.328 138.748 118.106 139.509 117.634C140.008 117.328 140.495 116.988 140.996 116.659C141.488 116.332 141.895 115.888 142.371 115.534C142.848 115.18 143.39 114.918 143.831 114.528C144.278 114.134 144.917 113.917 145.309 113.481C145.708 113.037 146.095 112.538 146.414 112.044C146.736 111.545 146.636 110.824 146.856 110.27C147.07 109.729 147.4 109.23 147.497 108.629C147.587 108.07 147.584 107.506 147.545 106.94H147.542ZM103.347 137.594C102.851 137.901 102.419 138.31 101.92 138.605C101.416 138.904 100.862 139.106 100.355 139.388C99.8437 139.673 99.2423 139.775 98.7307 140.037C98.2067 140.304 97.8224 140.838 97.2983 141.077C96.7618 141.322 96.1878 141.459 95.6538 141.666C95.1023 141.88 94.5908 142.195 94.0442 142.362C93.4778 142.534 92.9038 142.679 92.3423 142.793C91.7659 142.911 91.157 142.783 90.5855 142.833C90.0016 142.883 89.4326 142.918 88.8562 142.886C88.2747 142.856 87.6484 143.073 87.0794 142.948C86.5179 142.823 85.9989 142.467 85.4499 142.245C84.8734 142.01 84.3169 141.738 83.8128 141.409C83.2988 141.07 82.9544 140.536 82.5177 140.114C82.076 139.69 81.5245 139.371 81.1626 138.877C80.8033 138.385 80.5662 137.809 80.2842 137.265C80.0047 136.724 79.5356 136.247 79.3335 135.669C79.1313 135.092 79.1513 134.436 79.029 133.837C78.9017 133.239 78.6397 132.642 78.5923 132.039C78.5449 131.423 78.7021 130.794 78.7345 130.19C78.7695 129.572 78.762 128.943 78.8818 128.354C78.9941 127.795 79.1912 127.256 79.3584 126.73C79.5281 126.186 79.573 125.587 79.7951 125.079C80.0197 124.557 80.434 124.121 80.7035 123.634C80.978 123.138 81.3298 122.694 81.6393 122.232C81.9562 121.761 82.2482 121.277 82.5925 120.845C82.9494 120.399 83.2039 119.865 83.5783 119.461C83.9675 119.036 84.4991 118.762 84.8959 118.385C85.3176 117.986 85.7144 117.582 86.1311 117.233C86.6452 116.878 87.0744 116.4 87.5785 116.03C88.0826 115.659 88.5817 115.289 89.0758 114.905C89.4975 114.576 89.6946 114.117 89.3852 113.68C89.0758 113.246 88.5068 113.169 88.0576 113.458C87.5061 113.813 86.8872 114.059 86.3707 114.436C85.8391 114.823 85.2802 115.162 84.7886 115.571C84.3019 115.906 84.0224 116.529 83.5258 116.851C83.0317 117.173 82.5376 117.502 82.0361 117.812C81.532 118.118 80.8906 118.196 80.3791 118.49C79.8675 118.784 79.3559 119.071 78.8369 119.353C78.3178 119.633 77.9235 120.154 77.397 120.421C76.8729 120.688 76.2541 120.775 75.7225 121.03C75.1885 121.282 74.7044 121.646 74.1678 121.885C73.6288 122.125 72.9925 122.14 72.446 122.364C71.902 122.591 71.4727 123.11 70.9212 123.322C70.3697 123.532 69.7334 123.517 69.1769 123.714C68.6204 123.909 68.1064 124.235 67.5449 124.415C66.9834 124.597 66.3471 124.537 65.7831 124.702C65.2515 124.857 64.6951 124.934 64.1386 125.066C63.5921 125.196 63.073 125.448 62.5165 125.53C61.955 125.615 61.3935 125.617 60.8371 125.63C60.2656 125.642 59.7141 125.622 59.1626 125.535C58.6061 125.448 58.0471 125.373 57.5256 125.153C56.9766 124.926 56.4151 124.709 55.9684 124.358C55.5167 123.998 55.2198 123.464 54.8704 123C54.5285 122.544 54.1442 122.095 53.9022 121.564C53.6651 121.045 53.5952 120.453 53.453 119.887C53.3157 119.331 53.0362 118.784 52.9888 118.206C52.9389 117.632 53.0013 117.036 53.0387 116.459C53.0762 115.881 52.9863 115.259 53.1086 114.701C53.2334 114.129 53.5678 113.598 53.7799 113.069C53.8922 112.787 54.4586 112.111 55.0451 111.32C55.4668 110.752 56.0208 110.203 56.4276 109.671C56.9042 109.048 57.2086 108.431 57.5555 107.965C58.0746 107.271 58.5337 106.785 58.8132 106.353C59.4471 105.37 59.5419 104.869 59.3572 104.405C59.1876 103.983 58.8432 103.569 58.4065 103.392C57.9224 103.193 57.2286 103.093 56.5124 103.22C55.9834 103.315 55.4843 103.849 54.838 104.076C54.3064 104.26 53.6127 104.168 53.0038 104.422C52.4723 104.642 51.9257 104.931 51.3368 105.191C50.7504 105.45 50.1714 105.752 49.6075 106.054C48.9936 106.381 48.1925 106.279 47.5138 106.266C46.8724 106.254 46.2461 106.066 45.6122 105.932C44.9759 105.797 44.367 105.622 43.778 105.368C43.1766 105.111 42.5877 104.849 42.0786 104.467C41.5571 104.076 41.1503 103.587 40.771 103.065C40.3967 102.551 40.1921 101.975 40.0024 101.339C39.8177 100.718 39.8302 100.149 39.8427 99.5304C39.8577 98.9067 39.5657 98.2381 39.7454 97.6269C39.9201 97.0382 40.2345 96.4594 40.5289 95.8906C40.8134 95.3443 41.2976 94.9002 41.6669 94.3788C42.0262 93.8724 42.5278 93.4832 42.9421 93.0067C43.3563 92.5327 43.5959 91.9016 44.0401 91.4675C44.4967 91.016 44.9484 90.5694 45.4076 90.1703C45.8668 89.7736 46.2436 89.2772 46.7077 88.8905C47.1744 88.5038 47.7309 88.2244 48.205 87.8477C48.6791 87.4685 49.3355 87.3288 49.8146 86.9596C50.2962 86.5929 50.7778 86.2311 51.2644 85.8719C51.7536 85.5127 51.9931 84.8116 52.4872 84.4624C52.9813 84.1131 53.5852 83.9185 54.0868 83.5768C54.5859 83.235 55.075 82.8758 55.5816 82.544C56.3802 82.0201 57.7377 81.823 57.014 80.4958C56.6147 79.7649 56.0832 79.7624 55.4818 80.1466C54.9827 80.4659 54.556 80.8975 54.0644 81.2243C53.5703 81.5536 53.1011 81.9178 52.6145 82.2521C52.1254 82.5889 51.5764 82.8333 51.0923 83.1776C50.6106 83.5219 50.1041 83.8337 49.6274 84.188C49.1533 84.5397 48.6667 84.884 48.1975 85.2457C47.7284 85.6075 47.2368 85.9442 46.7751 86.3135C46.3109 86.6827 46.0938 87.3537 45.6397 87.7329C45.1855 88.1121 44.4992 88.2169 44.0501 88.6061C43.6059 88.9928 43.3189 89.5316 42.9196 89.9183C42.4929 90.3274 42.0437 90.6867 41.6694 91.0958C41.2701 91.5324 40.7286 91.8367 40.3867 92.2708C40.0199 92.7373 39.6655 93.2138 39.3661 93.6778C39.0441 94.1767 38.9443 94.7929 38.6998 95.2894C38.4377 95.8232 38.2156 96.3496 38.046 96.876C37.8663 97.4398 37.9362 98.0261 37.8638 98.5774C37.7864 99.1562 37.497 99.71 37.5394 100.274C37.5818 100.845 37.9087 101.359 38.0734 101.913C38.2506 102.509 38.308 103.133 38.6074 103.644C38.9169 104.171 39.4858 104.48 39.9026 104.916C40.3168 105.353 40.7461 105.722 41.2451 106.069C41.7392 106.413 42.0662 107.064 42.6177 107.321C43.1642 107.573 43.7606 107.813 44.3445 107.98C44.926 108.147 45.5972 107.947 46.1962 108.025C46.8001 108.105 47.3965 108.362 47.9954 108.352C48.7989 108.339 49.575 108.09 50.3262 107.828C50.9575 107.608 51.6063 107.481 52.2227 107.207C52.5995 107.039 53.1186 106.688 53.7449 106.428C54.259 106.216 54.8255 106.032 55.3545 105.842C55.9734 105.622 56.4974 105.468 56.9341 105.393C56.6522 105.817 56.3976 106.401 55.9809 106.96C55.5916 107.478 54.9802 107.853 54.6358 108.302C54.279 108.771 53.9995 109.232 53.705 109.621C53.3357 110.113 53.1286 110.629 52.864 111.003C52.4473 111.6 52.0979 112.011 51.9657 112.341C51.7336 112.917 51.7336 113.566 51.5914 114.184C51.4541 114.79 51.1447 115.372 51.0898 116.003C51.0399 116.627 51.1921 117.255 51.227 117.881C51.262 118.51 51.4391 119.099 51.5589 119.712C51.6812 120.331 51.7685 120.932 51.9806 121.519C52.1978 122.112 52.2676 122.768 52.5771 123.31C52.894 123.856 53.4155 124.248 53.8298 124.717C54.2415 125.188 54.6658 125.62 55.1773 125.992C55.6764 126.351 56.218 126.62 56.8119 126.867C57.4258 127.124 57.9673 127.631 58.6011 127.745C59.2474 127.86 59.9387 127.72 60.59 127.72C61.2413 127.72 61.9051 127.703 62.5514 127.616C63.2028 127.528 63.8241 127.281 64.4555 127.137C65.1043 126.987 65.7606 126.912 66.3745 126.733C66.9659 126.56 67.6147 126.565 68.2037 126.378C68.7876 126.189 69.2742 125.695 69.8557 125.49C70.4371 125.286 71.046 125.163 71.6225 124.944C72.1964 124.722 72.7205 124.375 73.2894 124.138C73.8584 123.901 74.4224 123.664 74.9864 123.415C75.5478 123.163 76.1992 123.1 76.7556 122.836C77.3096 122.569 77.8537 122.275 78.4027 121.993C78.9517 121.713 79.6329 121.219 80.1719 120.922C79.8151 121.454 79.3385 122.142 79.039 122.689C78.7296 123.247 78.47 123.821 78.223 124.395C77.9684 124.979 77.5567 125.505 77.367 126.101C77.1749 126.708 77.2148 127.376 77.09 127.992C76.9752 128.566 76.7931 129.13 76.7457 129.709C76.6958 130.292 76.9253 130.874 76.9428 131.453C76.9603 132.039 76.8155 132.625 76.8979 133.199C76.9827 133.78 77.2697 134.306 77.4144 134.868C77.5617 135.434 77.5816 136.03 77.7888 136.572C77.9984 137.118 78.3153 137.607 78.5848 138.121C78.8568 138.64 79.1064 139.161 79.4358 139.638C79.7702 140.119 80.2518 140.461 80.6411 140.89C81.0329 141.327 81.3149 141.848 81.7591 142.222C82.2082 142.596 82.64 142.993 83.1366 143.295C83.6332 143.599 84.1772 143.819 84.7187 144.038C85.2327 144.248 85.7867 144.268 86.3083 144.402C86.8398 144.542 87.3289 144.822 87.868 144.886C88.4095 144.954 88.956 144.946 89.5025 144.946C90.0964 144.946 90.6978 144.986 91.2967 144.914C91.8857 144.844 92.4546 144.637 93.0436 144.502C93.6225 144.373 94.2314 144.338 94.8103 144.156C95.3718 143.976 95.8734 143.599 96.4374 143.38C96.9864 143.163 97.5604 142.993 98.1094 142.741C98.6484 142.494 99.1051 142.075 99.6416 141.801C100.171 141.529 100.772 141.394 101.299 141.102C101.818 140.81 102.374 140.578 102.891 140.271C103.405 139.969 103.974 139.747 104.483 139.433C104.887 139.184 105.481 139.224 105.526 138.6C105.551 138.258 105.359 137.931 105.102 137.707C104.433 137.12 104.041 137.168 103.347 137.594Z" fill="#DD1A22"/>
<path d="M153.446 59.0588C152.138 59.0588 152.138 59.1511 150.833 59.1511C149.528 59.1511 149.525 59.0863 148.22 59.0863C146.913 59.0863 146.913 59.3757 145.608 59.3757C144.3 59.3757 144.3 59.5303 142.992 59.5303C141.685 59.5303 141.353 58.4202 140.312 59.2135C139.519 59.8197 139.653 60.5981 140.447 61.2043C141.485 61.9976 141.685 61.329 142.99 61.329C144.295 61.329 144.297 61.3739 145.603 61.3739C146.908 61.3739 146.91 61.3939 148.215 61.3939C149.52 61.3939 149.523 61.5261 150.831 61.5261C152.138 61.5261 152.138 61.4138 153.446 61.4138C154.753 61.4138 155.809 62.3344 155.809 63.6166C155.809 64.8939 155.964 64.8939 155.964 66.1737C155.964 67.451 156.014 67.451 156.014 68.7308C156.014 70.0081 155.782 70.0081 155.782 71.2878C155.782 72.5651 155.637 72.5651 155.637 73.8449C155.637 75.1222 155.884 75.1222 155.884 76.402C155.884 77.6818 155.899 77.6793 155.899 78.9565C155.899 80.2338 155.634 80.2338 155.634 81.5111C155.634 82.7884 155.542 82.7884 155.542 84.0657C155.542 85.343 155.854 85.343 155.854 86.6203C155.854 87.8975 155.652 87.8975 155.652 89.1773C155.652 90.4546 155.579 90.4546 155.579 91.7319C155.579 93.0092 155.784 93.0092 155.784 94.289C155.784 95.5662 155.544 95.5662 155.544 96.846C155.544 98.1233 155.604 98.1233 155.604 99.4031C155.604 100.68 155.524 100.68 155.524 101.96C155.524 103.237 155.692 103.237 155.692 104.517C155.692 105.795 155.649 105.795 155.649 107.074C155.649 108.352 155.911 108.352 155.911 109.631C155.911 110.909 155.881 110.909 155.881 112.188C155.881 113.468 155.729 113.466 155.729 114.745C155.729 116.023 155.742 116.023 155.742 117.303C155.742 118.58 155.584 118.58 155.584 119.86C155.584 121.139 155.894 121.139 155.894 122.417C155.894 123.694 155.647 123.694 155.647 124.974C155.647 126.254 155.821 126.254 155.821 127.533C155.821 128.813 155.911 128.813 155.911 130.093C155.911 131.373 154.721 132.211 153.441 132.211C152.173 132.211 152.173 132.286 150.905 132.286C149.638 132.286 149.638 132.593 148.37 132.593C147.102 132.593 147.102 132.52 145.835 132.52C144.567 132.52 144.242 131.565 143.244 132.348C142.461 132.964 142.486 133.83 143.269 134.449C144.265 135.232 144.564 134.613 145.832 134.613C147.1 134.613 147.1 134.379 148.367 134.379C149.635 134.379 149.635 134.351 150.903 134.351C152.171 134.351 152.171 134.316 153.438 134.316C154.224 134.316 155.07 134.389 155.704 134.02C156.358 133.64 156.585 132.785 156.964 132.131C157.331 131.495 157.83 130.881 157.83 130.095C157.83 128.818 157.593 128.818 157.593 127.538C157.593 126.261 157.631 126.261 157.631 124.981C157.631 123.704 157.96 123.704 157.96 122.424C157.96 121.144 157.918 121.147 157.918 119.867C157.918 118.587 157.536 118.59 157.536 117.31C157.536 116.03 157.928 116.033 157.928 114.755C157.928 113.478 157.691 113.478 157.691 112.201C157.691 110.924 157.763 110.924 157.763 109.646C157.763 108.369 157.85 108.369 157.85 107.092C157.85 105.814 157.668 105.814 157.668 104.535C157.668 103.257 157.815 103.257 157.815 101.98C157.815 100.703 157.638 100.703 157.638 99.423C157.638 98.1458 157.973 98.1458 157.973 96.866C157.973 95.5887 157.596 95.5887 157.596 94.3089C157.596 93.0316 157.548 93.0316 157.548 91.7518C157.548 90.4746 157.641 90.4746 157.641 89.1948C157.641 87.9175 157.873 87.9175 157.873 86.6377C157.873 85.3604 157.74 85.3604 157.74 84.0807C157.74 82.8009 157.813 82.8034 157.813 81.5236C157.813 80.2463 157.815 80.2463 157.815 78.9665C157.815 77.6892 157.828 77.6892 157.828 76.4095C157.828 75.1322 158 75.1322 158 73.8524C158 72.5726 157.733 72.5726 157.733 71.2953C157.733 70.018 157.536 70.018 157.536 68.7383C157.536 67.4585 157.88 67.4585 157.88 66.1787C157.88 64.8989 157.923 64.8989 157.923 63.6191C157.923 62.8333 157.516 62.1123 157.147 61.4762C156.767 60.8201 156.298 60.174 155.642 59.7948C154.985 59.4156 154.219 59.0613 153.436 59.0613L153.446 59.0588ZM30 63.6141C30 64.8914 30.0923 64.8914 30.0923 66.1712C30.0923 67.4485 30.0275 67.4485 30.0275 68.7283C30.0275 70.0056 30.3169 70.0056 30.3169 71.2853C30.3169 72.5626 30.4716 72.5626 30.4716 73.8424C30.4716 75.1197 30.1323 75.1197 30.1323 76.3995C30.1323 77.6793 30.3519 77.6768 30.3519 78.954C30.3519 80.2313 30.2046 80.2313 30.2046 81.5086C30.2046 82.7859 30.1597 82.7859 30.1597 84.0632C30.1597 85.3405 30.1397 85.3405 30.1397 86.6178C30.1397 87.895 30.0075 87.895 30.0075 89.1748C30.0075 90.4521 30.1198 90.4521 30.1198 91.7294C30.1198 93.0067 30.282 93.0067 30.282 94.2865C30.282 95.5637 30.4367 95.5637 30.4367 96.8435C30.4367 98.1208 30.4866 98.1208 30.4866 99.4006C30.4866 100.678 30.2545 100.678 30.2545 101.958C30.2545 103.235 30.1098 103.235 30.1098 104.515C30.1098 105.792 30.3569 105.792 30.3569 107.072C30.3569 108.349 30.3718 108.349 30.3718 109.629C30.3718 110.909 30.1073 110.906 30.1073 112.186C30.1073 113.463 30.015 113.463 30.015 114.743C30.015 116.02 30.3269 116.02 30.3269 117.3C30.3269 118.577 30.1248 118.577 30.1248 119.857C30.1248 121.137 30.0524 121.137 30.0524 122.414C30.0524 123.691 30.257 123.691 30.257 124.971C30.257 126.251 30.0175 126.251 30.0175 127.531C30.0175 128.811 30.0774 128.811 30.0774 130.09C30.0774 130.876 30.2396 131.734 30.6089 132.371C30.9882 133.024 31.7069 133.516 32.3632 133.895C32.9996 134.264 33.7731 134.526 34.5592 134.526C35.8144 134.526 35.8144 134.264 37.0722 134.264C38.3299 134.264 38.3274 134.294 39.5851 134.294C40.8428 134.294 40.8403 134.446 42.098 134.446C43.3557 134.446 43.3532 134.434 44.611 134.434C45.8687 134.434 45.8662 134.591 47.1239 134.591C48.3816 134.591 48.3791 134.281 49.6368 134.281C50.8945 134.281 50.8921 134.528 52.1498 134.528C53.4075 134.528 53.405 134.354 54.6627 134.354C55.9204 134.354 55.9179 134.264 57.1756 134.264C58.4334 134.264 58.4309 134.621 59.6886 134.621C60.9463 134.621 60.9438 134.546 62.2015 134.546C63.4592 134.546 63.4592 134.239 64.7144 134.239C65.9697 134.239 65.9697 134.311 67.2274 134.311C68.4851 134.311 68.4851 134.501 69.7428 134.501C71.0005 134.501 71.3025 135.232 72.2857 134.451C73.0668 133.83 73.1641 132.882 72.3805 132.261C71.3973 131.48 71.0005 132.45 69.7428 132.45C68.4876 132.45 68.4876 132.478 67.2299 132.478C65.9747 132.478 65.9747 132.513 64.7169 132.513C63.4617 132.513 63.4617 132.201 62.204 132.201C60.9463 132.201 60.9488 132.66 59.6911 132.66C58.4334 132.66 58.4358 132.341 57.1781 132.341C55.9229 132.341 55.9229 132.578 54.6652 132.578C53.41 132.578 53.41 132.54 52.1523 132.54C50.897 132.54 50.897 132.211 49.6393 132.211C48.3841 132.211 48.3841 132.253 47.1264 132.253C45.8712 132.253 45.8712 132.635 44.6135 132.635C43.3557 132.635 43.3557 132.243 42.1005 132.243C40.8453 132.243 40.8453 132.48 39.5876 132.48C38.3299 132.48 38.3299 132.408 37.0722 132.408C35.8144 132.408 35.8144 132.321 34.5567 132.321C33.2765 132.321 32.1486 131.375 32.1486 130.095C32.1486 128.818 32.2958 128.818 32.2958 127.538C32.2958 126.261 32.1187 126.261 32.1187 124.981C32.1187 123.704 32.453 123.704 32.453 122.424C32.453 121.144 32.0762 121.147 32.0762 119.867C32.0762 118.59 32.0288 118.59 32.0288 117.31C32.0288 116.033 32.1211 116.033 32.1211 114.755C32.1211 113.478 32.3532 113.478 32.3532 112.201C32.3532 110.924 32.221 110.924 32.221 109.646C32.221 108.369 32.2933 108.369 32.2933 107.092C32.2933 105.814 32.2958 105.814 32.2958 104.535C32.2958 103.257 32.3083 103.257 32.3083 101.98C32.3083 100.703 32.4805 100.703 32.4805 99.423C32.4805 98.1458 32.2135 98.1458 32.2135 96.866C32.2135 95.5887 32.0163 95.5887 32.0163 94.3089C32.0163 93.0316 32.3607 93.0316 32.3607 91.7518C32.3607 90.4746 32.4031 90.4746 32.4031 89.1948C32.4031 87.9175 32.2035 87.9175 32.2035 86.6377C32.2035 85.3604 32.3333 85.3604 32.3333 84.0807C32.3333 82.8034 32.4331 82.8034 32.4331 81.5236C32.4331 80.2463 32.186 80.2463 32.186 78.9665C32.186 77.6892 32.0113 77.6892 32.0113 76.4095C32.0113 75.1322 32.2983 75.1322 32.2983 73.8524C32.2983 72.5726 32.4406 72.5726 32.4406 71.2953C32.4406 70.018 32.3058 70.018 32.3058 68.7383C32.3058 67.4585 32.4705 67.4585 32.4705 66.1787C32.4705 64.8989 31.9964 64.8989 31.9964 63.6191C31.9964 62.3369 33.284 61.5036 34.5642 61.5036C35.8444 61.5036 35.8369 61.4388 37.1071 61.4388C38.3773 61.4388 38.3798 61.3789 39.65 61.3789C40.9202 61.3789 40.9227 61.3066 42.1929 61.3066C43.463 61.3066 43.4655 61.1968 44.7357 61.1968C46.0059 61.1968 46.0084 61.1718 47.2786 61.1718C48.5488 61.1718 48.5513 61.3515 49.8215 61.3515C51.0917 61.3515 51.0942 61.324 52.3644 61.324C53.6346 61.324 53.6371 61.2492 54.9098 61.2492C56.1824 61.2492 56.1824 61.4762 57.4526 61.4762C58.7228 61.4762 58.7253 61.4313 59.998 61.4313C61.2707 61.4313 61.4903 62.02 62.4935 61.2342C63.2796 60.618 63.3569 59.8846 62.5708 59.2684C61.5702 58.4826 61.2732 59.433 60.0005 59.433C58.7278 59.433 58.7278 59.1162 57.4576 59.1162C56.1874 59.1162 56.1849 59.4006 54.9147 59.4006C53.6421 59.4006 53.6421 59.1636 52.3719 59.1636C51.1017 59.1636 51.0992 59.2734 49.829 59.2734C48.5563 59.2734 48.5563 59.443 47.2861 59.443C46.0134 59.443 46.0134 59.216 44.7432 59.216C43.4705 59.216 43.4705 59.0713 42.1978 59.0713C40.9252 59.0713 40.9252 59.438 39.655 59.438C38.3823 59.438 38.3823 59.3831 37.1096 59.3831C35.8369 59.3831 35.8369 59.1636 34.5642 59.1636C33.7781 59.1636 32.9447 59.3407 32.3083 59.7099C31.672 60.0792 31.0256 60.6978 30.6463 61.354C30.277 61.9901 30.005 62.8283 30.005 63.6141H30Z" fill="#DD1A22"/>
</g>
<defs>
<clipPath id="clip0_618_2434">
<rect width="400" height="200" fill="white"/>
</clipPath>
</defs>
</svg>
